<?xml version="1.0" encoding="UTF-8" standalone="no"?>
<svg
   xmlns:dc="http://purl.org/dc/elements/1.1/"
   xmlns:cc="http://creativecommons.org/ns#"
   xmlns:rdf="http://www.w3.org/1999/02/22-rdf-syntax-ns#"
   xmlns:svg="http://www.w3.org/2000/svg"
   xmlns="http://www.w3.org/2000/svg"
   xmlns:sodipodi="http://sodipodi.sourceforge.net/DTD/sodipodi-0.dtd"
   xmlns:inkscape="http://www.inkscape.org/namespaces/inkscape"
   width="160mm"
   height="24mm"
   viewBox="0 0 160 24"
   version="1.1"
   id="svg9859"
   inkscape:version="1.0.2-2 (e86c870879, 2021-01-15)"
   sodipodi:docname="logoPlantSwap5.svg"
   inkscape:export-filename="C:\dev\_PlantSwapFinance_v0_2beta\public\bitmap.png"
   inkscape:export-xdpi="96"
   inkscape:export-ydpi="96">
  <defs
     id="defs9853">
    <rect
       x="38.175594"
       y="21.166668"
       width="121.33036"
       height="24.190475"
       id="rect9877" />
  </defs>
  <sodipodi:namedview
     id="base"
     pagecolor="#ffffff"
     bordercolor="#666666"
     borderopacity="1.0"
     inkscape:pageopacity="0.0"
     inkscape:pageshadow="2"
     inkscape:zoom="0.7"
     inkscape:cx="113.48184"
     inkscape:cy="125.39966"
     inkscape:document-units="mm"
     inkscape:current-layer="layer1"
     inkscape:document-rotation="0"
     showgrid="false"
     units="mm"
     inkscape:window-width="1416"
     inkscape:window-height="1009"
     inkscape:window-x="78"
     inkscape:window-y="1080"
     inkscape:window-maximized="0" />
  <metadata
     id="metadata9856">
    <rdf:RDF>
      <cc:Work
         rdf:about="">
        <dc:format>image/svg+xml</dc:format>
        <dc:type
           rdf:resource="http://purl.org/dc/dcmitype/StillImage" />
        <dc:title></dc:title>
      </cc:Work>
    </rdf:RDF>
  </metadata>
  <g
     inkscape:label="Layer 1"
     inkscape:groupmode="layer"
     id="layer1"
     style="opacity:0.99">
    <g
       aria-label="PlantSwap.finance"
       transform="matrix(1.52727,0,0,1.942593,-57.051232,-42.000234)"
       id="text9875"
       style="font-style:normal;font-variant:normal;font-weight:normal;font-stretch:normal;font-size:11.8078px;line-height:1.25;font-family:Ebrima;-inkscape-font-specification:Ebrima;white-space:pre;shape-inside:url(#rect9877);fill:#000000;fill-opacity:1;stroke:none">
      <path
         d="m 40.983593,28.953773 v 2.848171 h -1.862265 v -8.267766 h 2.917357 q 3.124916,0 3.124916,2.634846 0,1.245354 -0.899423,2.017934 -0.893656,0.766815 -2.392694,0.766815 z m 0,-3.989745 v 2.577191 h 0.732222 q 1.487506,0 1.487506,-1.303009 0,-1.274182 -1.487506,-1.274182 z"
         style="font-style:normal;font-variant:normal;font-weight:bold;font-stretch:normal;font-size:11.8078px;font-family:Ebrima;-inkscape-font-specification:'Ebrima Bold'"
         id="path10956" />
      <path
         d="M 48.017537,31.801944 H 46.19563 v -8.74054 h 1.821907 z"
         style="font-style:normal;font-variant:normal;font-weight:bold;font-stretch:normal;font-size:11.8078px;font-family:Ebrima;-inkscape-font-specification:'Ebrima Bold'"
         id="path10958" />
      <path
         d="m 54.463396,31.801944 h -1.723893 v -0.847533 h -0.02306 q -0.593849,0.991671 -1.758486,0.991671 -0.859063,0 -1.354899,-0.484304 -0.49007,-0.49007 -0.49007,-1.303009 0,-1.718128 2.035232,-1.983342 l 1.602816,-0.213324 q 0,-0.968609 -1.049326,-0.968609 -1.055091,0 -2.006403,0.628443 v -1.372196 q 0.380525,-0.196028 1.037795,-0.345932 0.663035,-0.149903 1.204995,-0.149903 2.525301,0 2.525301,2.519535 z m -1.712362,-2.398459 v -0.397822 l -1.072388,0.138373 q -0.887891,0.11531 -0.887891,0.801408 0,0.311339 0.213324,0.513132 0.21909,0.196028 0.588084,0.196028 0.513132,0 0.836002,-0.351697 0.322869,-0.357463 0.322869,-0.899422 z"
         style="font-style:normal;font-variant:normal;font-weight:bold;font-stretch:normal;font-size:11.8078px;font-family:Ebrima;-inkscape-font-specification:'Ebrima Bold'"
         id="path10960" />
      <path
         d="m 61.606884,31.801944 h -1.816141 v -3.280585 q 0,-1.372196 -0.98014,-1.372196 -0.472773,0 -0.778346,0.363229 -0.305573,0.363228 -0.305573,0.922484 v 3.367068 h -1.821907 v -5.9039 h 1.821907 v 0.934015 h 0.02306 q 0.651505,-1.078153 1.896859,-1.078153 1.960279,0 1.960279,2.433052 z"
         style="font-style:normal;font-variant:normal;font-weight:bold;font-stretch:normal;font-size:11.8078px;font-family:Ebrima;-inkscape-font-specification:'Ebrima Bold'"
         id="path10962" />
      <path
         d="m 66.617129,31.732758 q -0.403587,0.213324 -1.216526,0.213324 -1.925687,0 -1.925687,-2.000638 v -2.704032 h -0.957077 v -1.343368 h 0.957077 v -1.274182 l 1.816142,-0.518897 v 1.793079 h 1.326071 v 1.343368 h -1.326071 v 2.386928 q 0,0.922484 0.732222,0.922484 0.288276,0 0.593849,-0.1672 z"
         style="font-style:normal;font-variant:normal;font-weight:bold;font-stretch:normal;font-size:11.8078px;font-family:Ebrima;-inkscape-font-specification:'Ebrima Bold'"
         id="path10964" />
      <path
         d="m 67.441599,31.48484 v -1.844969 q 0.501601,0.420884 1.089685,0.634208 0.588084,0.207559 1.187698,0.207559 0.351698,0 0.611146,-0.06342 0.265215,-0.06342 0.43818,-0.172965 0.178732,-0.115311 0.265215,-0.265215 0.08648,-0.155669 0.08648,-0.3344 0,-0.242152 -0.138373,-0.432415 -0.13837,-0.190263 -0.380522,-0.351698 -0.236386,-0.161435 -0.565022,-0.311339 -0.328635,-0.149903 -0.709159,-0.305573 -0.968609,-0.403586 -1.447148,-0.985905 -0.472773,-0.582318 -0.472773,-1.406788 0,-0.645739 0.259449,-1.106982 0.259448,-0.467007 0.703394,-0.766815 0.449711,-0.299807 1.037795,-0.43818 0.588084,-0.144138 1.245354,-0.144138 0.645739,0 1.141574,0.08072 0.501601,0.07495 0.922485,0.236387 v 1.723893 Q 72.509498,25.292666 72.26158,25.183121 72.019428,25.073576 71.759979,25.00439 71.50053,24.92944 71.241082,24.894845 q -0.253684,-0.03459 -0.484305,-0.03459 -0.317104,0 -0.576552,0.06342 -0.259449,0.05765 -0.43818,0.1672 -0.178732,0.109545 -0.276746,0.265214 -0.09801,0.149904 -0.09801,0.340166 0,0.207559 0.109545,0.37476 0.109545,0.161434 0.311339,0.311338 0.201793,0.144138 0.49007,0.288276 0.288276,0.138373 0.651504,0.288277 0.495836,0.207559 0.887891,0.443945 0.397822,0.230622 0.680333,0.524663 0.282511,0.294042 0.432414,0.674567 0.149904,0.374759 0.149904,0.87636 0,0.691864 -0.265214,1.164637 -0.259449,0.467008 -0.70916,0.76105 -0.449711,0.288276 -1.049326,0.415118 -0.59385,0.126841 -1.256885,0.126841 -0.680332,0 -1.297244,-0.11531 -0.611146,-0.115311 -1.060857,-0.345932 z"
         style="font-style:normal;font-variant:normal;font-weight:bold;font-stretch:normal;font-size:11.8078px;font-family:Ebrima;-inkscape-font-specification:'Ebrima Bold'"
         id="path10966" />
      <path
         d="m 82.812496,25.898044 -1.700831,5.9039 H 79.19751 l -0.870595,-3.459317 q -0.08648,-0.345931 -0.09801,-0.755284 h -0.03459 q -0.04036,0.449712 -0.11531,0.732222 l -0.934016,3.482379 h -1.891093 l -1.666237,-5.9039 h 1.8565 l 0.812939,3.851372 q 0.05765,0.27098 0.08648,0.65727 h 0.03459 q 0.02883,-0.403587 0.10378,-0.680332 l 1.014732,-3.82831 h 1.735424 l 0.910953,3.851372 q 0.03459,0.144138 0.08072,0.668801 h 0.04036 q 0.02883,-0.3344 0.09225,-0.668801 l 0.766815,-3.851372 z"
         style="font-style:normal;font-variant:normal;font-weight:bold;font-stretch:normal;font-size:11.8078px;font-family:Ebrima;-inkscape-font-specification:'Ebrima Bold'"
         id="path10968" />
      <path
         d="m 88.589552,31.801944 h -1.723893 v -0.847533 h -0.02306 q -0.593849,0.991671 -1.758486,0.991671 -0.859064,0 -1.354899,-0.484304 -0.49007,-0.49007 -0.49007,-1.303009 0,-1.718128 2.035231,-1.983342 l 1.602817,-0.213324 q 0,-0.968609 -1.049326,-0.968609 -1.055091,0 -2.006403,0.628443 v -1.372196 q 0.380524,-0.196028 1.037794,-0.345932 0.663036,-0.149903 1.204996,-0.149903 2.525301,0 2.525301,2.519535 z M 86.87719,29.403485 v -0.397822 l -1.072388,0.138373 q -0.887891,0.11531 -0.887891,0.801408 0,0.311339 0.213324,0.513132 0.21909,0.196028 0.588084,0.196028 0.513132,0 0.836002,-0.351697 0.322869,-0.357463 0.322869,-0.899422 z"
         style="font-style:normal;font-variant:normal;font-weight:bold;font-stretch:normal;font-size:11.8078px;font-family:Ebrima;-inkscape-font-specification:'Ebrima Bold'"
         id="path10970" />
      <path
         d="m 91.875906,31.115846 h -0.02306 v 3.401661 h -1.821907 v -8.619463 h 1.821907 v 0.887891 h 0.02306 q 0.674567,-1.032029 1.896859,-1.032029 1.147339,0 1.770016,0.789877 0.628443,0.784112 0.628443,2.139011 0,1.475975 -0.732222,2.369631 -0.726457,0.893657 -1.937217,0.893657 -1.066623,0 -1.625879,-0.830236 z m -0.05189,-2.421521 v 0.472773 q 0,0.611146 0.32287,0.997436 0.322869,0.38629 0.847532,0.38629 0.622677,0 0.962843,-0.478538 0.345932,-0.484305 0.345932,-1.36643 0,-1.556693 -1.210761,-1.556693 -0.559256,0 -0.916719,0.426649 -0.351697,0.420884 -0.351697,1.118513 z"
         style="font-style:normal;font-variant:normal;font-weight:bold;font-stretch:normal;font-size:11.8078px;font-family:Ebrima;-inkscape-font-specification:'Ebrima Bold'"
         id="path10972" />
      <path
         d="m 98.166096,31.946082 q -0.449711,0 -0.749518,-0.276745 -0.299808,-0.276745 -0.299808,-0.680332 0,-0.415118 0.305573,-0.680333 0.311339,-0.265214 0.772581,-0.265214 0.467008,0 0.76105,0.27098 0.299807,0.265214 0.299807,0.674567 0,0.420883 -0.305573,0.691863 -0.299807,0.265214 -0.784112,0.265214 z"
         style="font-style:normal;font-variant:normal;font-weight:bold;font-stretch:normal;font-size:11.8078px;font-family:Ebrima;-inkscape-font-specification:'Ebrima Bold'"
         id="path10974" />
      <path
         d="m 104.4044,24.456662 q -0.3517,-0.138373 -0.67457,-0.138373 -0.87636,0 -0.87636,0.951312 v 0.628443 h 1.34913 v 1.343368 h -1.34913 v 4.560532 h -1.81614 v -4.560532 h -0.99167 v -1.343368 h 0.99167 v -0.732222 q 0,-1.008967 0.65727,-1.625879 0.65727,-0.616911 1.78731,-0.616911 0.55349,0 0.92249,0.11531 z"
         style="font-style:normal;font-variant:normal;font-weight:bold;font-stretch:normal;font-size:11.8078px;font-family:Ebrima;-inkscape-font-specification:'Ebrima Bold'"
         id="path10976" />
      <path
         d="m 106.00145,24.964028 q -0.46124,0 -0.75529,-0.270979 -0.29404,-0.276746 -0.29404,-0.674567 0,-0.409353 0.29404,-0.668801 0.29405,-0.259449 0.75529,-0.259449 0.46701,0 0.75528,0.259449 0.29404,0.259448 0.29404,0.668801 0,0.415118 -0.29404,0.680332 -0.28827,0.265214 -0.75528,0.265214 z m 0.89942,6.837916 h -1.82191 v -5.9039 h 1.82191 z"
         style="font-style:normal;font-variant:normal;font-weight:bold;font-stretch:normal;font-size:11.8078px;font-family:Ebrima;-inkscape-font-specification:'Ebrima Bold'"
         id="path10978" />
      <path
         d="m 114.13661,31.801944 h -1.81614 v -3.280585 q 0,-1.372196 -0.98014,-1.372196 -0.47278,0 -0.77835,0.363229 -0.30557,0.363228 -0.30557,0.922484 v 3.367068 h -1.82191 v -5.9039 h 1.82191 v 0.934015 h 0.0231 q 0.65151,-1.078153 1.89686,-1.078153 1.96028,0 1.96028,2.433052 z"
         style="font-style:normal;font-variant:normal;font-weight:bold;font-stretch:normal;font-size:11.8078px;font-family:Ebrima;-inkscape-font-specification:'Ebrima Bold'"
         id="path10980" />
      <path
         d="m 120.49022,31.801944 h -1.7239 v -0.847533 h -0.0231 q -0.59385,0.991671 -1.75848,0.991671 -0.85907,0 -1.3549,-0.484304 -0.49007,-0.49007 -0.49007,-1.303009 0,-1.718128 2.03523,-1.983342 l 1.60282,-0.213324 q 0,-0.968609 -1.04933,-0.968609 -1.05509,0 -2.0064,0.628443 v -1.372196 q 0.38052,-0.196028 1.03779,-0.345932 0.66304,-0.149903 1.205,-0.149903 2.5253,0 2.5253,2.519535 z m -1.71236,-2.398459 v -0.397822 l -1.07239,0.138373 q -0.88789,0.11531 -0.88789,0.801408 0,0.311339 0.21332,0.513132 0.21909,0.196028 0.58808,0.196028 0.51314,0 0.83601,-0.351697 0.32287,-0.357463 0.32287,-0.899422 z"
         style="font-style:normal;font-variant:normal;font-weight:bold;font-stretch:normal;font-size:11.8078px;font-family:Ebrima;-inkscape-font-specification:'Ebrima Bold'"
         id="path10982" />
      <path
         d="m 127.63371,31.801944 h -1.81614 v -3.280585 q 0,-1.372196 -0.98014,-1.372196 -0.47277,0 -0.77835,0.363229 -0.30557,0.363228 -0.30557,0.922484 v 3.367068 h -1.82191 v -5.9039 h 1.82191 v 0.934015 h 0.0231 q 0.65151,-1.078153 1.89686,-1.078153 1.96028,0 1.96028,2.433052 z"
         style="font-style:normal;font-variant:normal;font-weight:bold;font-stretch:normal;font-size:11.8078px;font-family:Ebrima;-inkscape-font-specification:'Ebrima Bold'"
         id="path10984" />
      <path
         d="m 133.54914,31.588619 q -0.61691,0.357463 -1.78155,0.357463 -1.36066,0 -2.20243,-0.82447 -0.84177,-0.824471 -0.84177,-2.12748 0,-1.504803 0.89942,-2.369632 0.90519,-0.870594 2.41576,-0.870594 1.04356,0 1.51057,0.276745 v 1.545161 q -0.57079,-0.426649 -1.27418,-0.426649 -0.78412,0 -1.24536,0.461242 -0.45547,0.455477 -0.45547,1.262651 0,0.784112 0.43818,1.233823 0.43818,0.443945 1.20499,0.443945 0.68033,0 1.33184,-0.426649 z"
         style="font-style:normal;font-variant:normal;font-weight:bold;font-stretch:normal;font-size:11.8078px;font-family:Ebrima;-inkscape-font-specification:'Ebrima Bold'"
         id="path10986" />
      <path
         d="m 140.04688,29.368891 h -3.85137 q 0.0922,1.285713 1.62012,1.285713 0.97437,0 1.71236,-0.461242 v 1.31454 q -0.81871,0.43818 -2.12748,0.43818 -1.42985,0 -2.21973,-0.789877 -0.78988,-0.795643 -0.78988,-2.213963 0,-1.470209 0.8533,-2.329273 0.8533,-0.859063 2.09865,-0.859063 1.29148,0 1.99487,0.766815 0.70916,0.766815 0.70916,2.081355 z m -1.68929,-1.118512 q 0,-1.268416 -1.02627,-1.268416 -0.43818,0 -0.76105,0.363228 -0.3171,0.363228 -0.38629,0.905188 z"
         style="font-style:normal;font-variant:normal;font-weight:bold;font-stretch:normal;font-size:11.8078px;font-family:Ebrima;-inkscape-font-specification:'Ebrima Bold'"
         id="path10988" />
    </g>
  </g>
</svg>
