<?xml version="1.0" encoding="UTF-8" standalone="no"?>
<svg
   xmlns:dc="http://purl.org/dc/elements/1.1/"
   xmlns:cc="http://creativecommons.org/ns#"
   xmlns:rdf="http://www.w3.org/1999/02/22-rdf-syntax-ns#"
   xmlns:svg="http://www.w3.org/2000/svg"
   xmlns="http://www.w3.org/2000/svg"
   xmlns:xlink="http://www.w3.org/1999/xlink"
   xmlns:sodipodi="http://sodipodi.sourceforge.net/DTD/sodipodi-0.dtd"
   xmlns:inkscape="http://www.inkscape.org/namespaces/inkscape"
   width="160"
   height="26"
   viewBox="0 0 42.333332 6.8791667"
   version="1.1"
   id="svg9859"
   inkscape:version="1.0.2-2 (e86c870879, 2021-01-15)"
   sodipodi:docname="logoPlantSwap3.svg"
   inkscape:export-filename="C:\dev\_PlantSwapFinance_v0_2beta\public\bitmap.png"
   inkscape:export-xdpi="96"
   inkscape:export-ydpi="96">
  <defs
     id="defs9853">
    <rect
       x="38.175594"
       y="21.166668"
       width="121.33036"
       height="24.190475"
       id="rect9877" />
  </defs>
  <sodipodi:namedview
     id="base"
     pagecolor="#ffffff"
     bordercolor="#666666"
     borderopacity="1.0"
     inkscape:pageopacity="0.0"
     inkscape:pageshadow="2"
     inkscape:zoom="5.6"
     inkscape:cx="48.730133"
     inkscape:cy="35.340645"
     inkscape:document-units="mm"
     inkscape:current-layer="layer1"
     inkscape:document-rotation="0"
     showgrid="false"
     units="px"
     inkscape:window-width="1416"
     inkscape:window-height="1009"
     inkscape:window-x="78"
     inkscape:window-y="1080"
     inkscape:window-maximized="0" />
  <metadata
     id="metadata9856">
    <rdf:RDF>
      <cc:Work
         rdf:about="">
        <dc:format>image/svg+xml</dc:format>
        <dc:type
           rdf:resource="http://purl.org/dc/dcmitype/StillImage" />
        <dc:title></dc:title>
      </cc:Work>
    </rdf:RDF>
  </metadata>
  <g
     inkscape:label="Layer 1"
     inkscape:groupmode="layer"
     id="layer1"
     style="opacity:0.99">
    <g
       aria-label="PlantSwap.finance"
       transform="matrix(0.32148187,0,0,0.4063127,-3.487916,-7.7287383)"
       id="text9875"
       style="font-style:normal;font-variant:normal;font-weight:normal;font-stretch:normal;font-size:11.8078px;line-height:1.25;font-family:Ebrima;-inkscape-font-specification:Ebrima;white-space:pre;shape-inside:url(#rect9877);fill:#000000;fill-opacity:1;stroke:none">
      <path
         d="m 40.228309,28.677028 v 3.124916 H 39.2597 v -8.267766 h 2.271618 q 1.326072,0 2.052528,0.645739 0.732222,0.645739 0.732222,1.821906 0,1.176168 -0.812939,1.925686 -0.807174,0.749519 -2.185135,0.749519 z m 0,-4.26649 v 3.39013 h 1.014733 q 1.003202,0 1.527865,-0.455477 0.530428,-0.461242 0.530428,-1.297243 0,-1.63741 -1.937217,-1.63741 z"
         style="font-style:normal;font-variant:normal;font-weight:normal;font-stretch:normal;font-size:11.8078px;font-family:Ebrima;-inkscape-font-specification:Ebrima"
         id="path10899" />
      <path
         d="m 46.691465,31.801944 h -0.945546 v -8.74054 h 0.945546 z"
         style="font-style:normal;font-variant:normal;font-weight:normal;font-stretch:normal;font-size:11.8078px;font-family:Ebrima;-inkscape-font-specification:Ebrima"
         id="path10901" />
      <path
         d="M 52.831752,31.801944 H 51.886205 V 30.87946 h -0.02306 q -0.616911,1.060857 -1.816141,1.060857 -0.882126,0 -1.383727,-0.467008 -0.495835,-0.467008 -0.495835,-1.239589 0,-1.654706 1.948748,-1.925686 l 1.770017,-0.247917 q 0,-1.504803 -1.216526,-1.504803 -1.066623,0 -1.925686,0.726456 v -0.968608 q 0.870594,-0.553491 2.006403,-0.553491 2.081356,0 2.081356,2.202432 z m -0.945547,-2.986543 -1.424085,0.196028 q -0.65727,0.09225 -0.991671,0.328635 -0.334401,0.230621 -0.334401,0.82447 0,0.432415 0.305573,0.70916 0.311339,0.27098 0.824471,0.27098 0.703394,0 1.158871,-0.49007 0.461242,-0.495835 0.461242,-1.251119 z"
         style="font-style:normal;font-variant:normal;font-weight:normal;font-stretch:normal;font-size:11.8078px;font-family:Ebrima;-inkscape-font-specification:Ebrima"
         id="path10903" />
      <path
         d="m 59.513998,31.801944 h -0.945546 v -3.367068 q 0,-1.879562 -1.372196,-1.879562 -0.70916,0 -1.176167,0.536194 -0.461243,0.530429 -0.461243,1.343368 v 3.367068 H 54.6133 v -5.9039 h 0.945546 v 0.980139 h 0.02306 q 0.668801,-1.118512 1.937217,-1.118512 0.968608,0 1.48174,0.628443 0.513132,0.622677 0.513132,1.80461 z"
         style="font-style:normal;font-variant:normal;font-weight:normal;font-stretch:normal;font-size:11.8078px;font-family:Ebrima;-inkscape-font-specification:Ebrima"
         id="path10905" />
      <path
         d="m 64.034172,31.744289 q -0.334401,0.184497 -0.882126,0.184497 -1.550927,0 -1.550927,-1.729659 v -3.493909 h -1.014733 v -0.807174 h 1.014733 v -1.441382 l 0.945547,-0.305573 v 1.746955 h 1.487506 v 0.807174 h -1.487506 v 3.326709 q 0,0.593849 0.201793,0.847533 0.201794,0.253683 0.668801,0.253683 0.357463,0 0.616912,-0.196028 z"
         style="font-style:normal;font-variant:normal;font-weight:normal;font-stretch:normal;font-size:11.8078px;font-family:Ebrima;-inkscape-font-specification:Ebrima"
         id="path10907" />
      <path
         d="m 65.037373,31.467543 v -1.141574 q 0.196028,0.172966 0.467008,0.311338 0.276745,0.138373 0.576553,0.236387 0.305573,0.09225 0.611146,0.144138 0.305573,0.05189 0.565021,0.05189 0.893657,0 1.331837,-0.328635 0.443946,-0.334401 0.443946,-0.957078 0,-0.3344 -0.149904,-0.582318 -0.144138,-0.247918 -0.403587,-0.449711 -0.259448,-0.207559 -0.616911,-0.392056 -0.351697,-0.190262 -0.76105,-0.397821 -0.432414,-0.21909 -0.807174,-0.443946 -0.374759,-0.224856 -0.651504,-0.495835 -0.276746,-0.27098 -0.43818,-0.611146 -0.15567,-0.345932 -0.15567,-0.807174 0,-0.565022 0.247918,-0.98014 0.247918,-0.420883 0.651505,-0.691863 0.403587,-0.27098 0.916719,-0.403587 0.518897,-0.132607 1.055091,-0.132607 1.222292,0 1.781548,0.294042 v 1.089684 q -0.732222,-0.507366 -1.879562,-0.507366 -0.317104,0 -0.634208,0.06919 -0.317104,0.06342 -0.565022,0.213325 -0.247917,0.149904 -0.403586,0.38629 -0.15567,0.236387 -0.15567,0.576553 0,0.317104 0.115311,0.547725 0.121076,0.230621 0.351697,0.420884 0.230621,0.190262 0.559256,0.368993 0.334401,0.178732 0.766815,0.392056 0.443946,0.21909 0.841767,0.461242 0.397822,0.242153 0.697629,0.536194 0.299808,0.294042 0.472773,0.651505 0.178732,0.357463 0.178732,0.818705 0,0.611146 -0.242152,1.037795 -0.236387,0.420883 -0.645739,0.686098 -0.403587,0.265214 -0.934016,0.380525 -0.530428,0.121076 -1.118512,0.121076 -0.196028,0 -0.484305,-0.03459 -0.288276,-0.02883 -0.588083,-0.09225 -0.299808,-0.05766 -0.570788,-0.144138 -0.265214,-0.09225 -0.426649,-0.201794 z"
         style="font-style:normal;font-variant:normal;font-weight:normal;font-stretch:normal;font-size:11.8078px;font-family:Ebrima;-inkscape-font-specification:Ebrima"
         id="path10909" />
      <path
         d="m 79.007248,25.898044 -1.770017,5.9039 h -0.980139 l -1.216527,-4.226132 q -0.06919,-0.242152 -0.09225,-0.547725 h -0.02306 q -0.0173,0.207559 -0.121076,0.536194 l -1.320306,4.237663 h -0.945546 l -1.787314,-5.9039 h 0.991671 l 1.222292,4.439456 q 0.05766,0.201793 0.08072,0.530429 h 0.04612 q 0.0173,-0.253684 0.10378,-0.54196 l 1.360664,-4.427925 h 0.864829 l 1.222292,4.450987 q 0.05765,0.213325 0.08648,0.530429 h 0.04612 q 0.01153,-0.224856 0.09801,-0.530429 l 1.19923,-4.450987 z"
         style="font-style:normal;font-variant:normal;font-weight:normal;font-stretch:normal;font-size:11.8078px;font-family:Ebrima;-inkscape-font-specification:Ebrima"
         id="path10911" />
      <path
         d="M 84.328828,31.801944 H 83.383281 V 30.87946 h -0.02306 q -0.616911,1.060857 -1.816141,1.060857 -0.882126,0 -1.383727,-0.467008 -0.495835,-0.467008 -0.495835,-1.239589 0,-1.654706 1.948748,-1.925686 l 1.770017,-0.247917 q 0,-1.504803 -1.216526,-1.504803 -1.066623,0 -1.925686,0.726456 v -0.968608 q 0.870594,-0.553491 2.006403,-0.553491 2.081356,0 2.081356,2.202432 z m -0.945547,-2.986543 -1.424085,0.196028 q -0.65727,0.09225 -0.991671,0.328635 -0.3344,0.230621 -0.3344,0.82447 0,0.432415 0.305572,0.70916 0.311339,0.27098 0.824471,0.27098 0.703394,0 1.158871,-0.49007 0.461242,-0.495835 0.461242,-1.251119 z"
         style="font-style:normal;font-variant:normal;font-weight:normal;font-stretch:normal;font-size:11.8078px;font-family:Ebrima;-inkscape-font-specification:Ebrima"
         id="path10913" />
      <path
         d="m 87.078984,30.948646 h -0.02306 v 3.568861 h -0.945546 v -8.619463 h 0.945546 v 1.037795 h 0.02306 q 0.697628,-1.176168 2.040996,-1.176168 1.141575,0 1.781548,0.795643 0.639974,0.789877 0.639974,2.121714 0,1.481741 -0.720691,2.375397 -0.720691,0.887892 -1.97181,0.887892 -1.14734,0 -1.770017,-0.991671 z m -0.02306,-2.381163 v 0.82447 q 0,0.732222 0.472774,1.245354 0.478539,0.507367 1.210761,0.507367 0.859063,0 1.343367,-0.65727 0.49007,-0.65727 0.49007,-1.827673 0,-0.985905 -0.455476,-1.545161 -0.455477,-0.559256 -1.233823,-0.559256 -0.824471,0 -1.326072,0.576553 -0.501601,0.570787 -0.501601,1.435616 z"
         style="font-style:normal;font-variant:normal;font-weight:normal;font-stretch:normal;font-size:11.8078px;font-family:Ebrima;-inkscape-font-specification:Ebrima"
         id="path10915" />
      <path
         d="m 93.380706,31.928786 q -0.265214,0 -0.455476,-0.190263 -0.184497,-0.190262 -0.184497,-0.455477 0,-0.265214 0.184497,-0.455476 0.190262,-0.196028 0.455476,-0.196028 0.27098,0 0.461242,0.196028 0.190263,0.190262 0.190263,0.455476 0,0.265215 -0.190263,0.455477 -0.190262,0.190263 -0.461242,0.190263 z"
         style="font-style:normal;font-variant:normal;font-weight:normal;font-stretch:normal;font-size:11.8078px;font-family:Ebrima;-inkscape-font-specification:Ebrima"
         id="path10917" />
      <path
         d="m 98.529323,23.89164 q -0.276746,-0.155669 -0.628443,-0.155669 -0.991671,0 -0.991671,1.251119 v 0.910954 h 1.383727 v 0.807174 h -1.383727 v 5.096726 h -0.939781 v -5.096726 h -1.008967 v -0.807174 h 1.008967 v -0.957078 q 0,-0.92825 0.536194,-1.464444 0.536195,-0.541959 1.337603,-0.541959 0.432414,0 0.686098,0.103779 z"
         style="font-style:normal;font-variant:normal;font-weight:normal;font-stretch:normal;font-size:11.8078px;font-family:Ebrima;-inkscape-font-specification:Ebrima"
         id="path10919" />
      <path
         d="m 99.791972,24.399007 q -0.253684,0 -0.432415,-0.172966 -0.178731,-0.172966 -0.178731,-0.43818 0,-0.265215 0.178731,-0.43818 0.178731,-0.178732 0.432415,-0.178732 0.259448,0 0.438178,0.178732 0.1845,0.172965 0.1845,0.43818 0,0.253683 -0.1845,0.432414 -0.17873,0.178732 -0.438178,0.178732 z m 0.461238,7.402937 h -0.945543 v -5.9039 h 0.945543 z"
         style="font-style:normal;font-variant:normal;font-weight:normal;font-stretch:normal;font-size:11.8078px;font-family:Ebrima;-inkscape-font-specification:Ebrima"
         id="path10921" />
      <path
         d="m 107.06807,31.801944 h -0.94555 v -3.367068 q 0,-1.879562 -1.37219,-1.879562 -0.70916,0 -1.17617,0.536194 -0.46124,0.530429 -0.46124,1.343368 v 3.367068 h -0.94555 v -5.9039 h 0.94555 v 0.980139 h 0.0231 q 0.6688,-1.118512 1.93722,-1.118512 0.9686,0 1.48174,0.628443 0.51313,0.622677 0.51313,1.80461 z"
         style="font-style:normal;font-variant:normal;font-weight:normal;font-stretch:normal;font-size:11.8078px;font-family:Ebrima;-inkscape-font-specification:Ebrima"
         id="path10923" />
      <path
         d="M 113.07575,31.801944 H 112.1302 V 30.87946 h -0.0231 q -0.61691,1.060857 -1.81614,1.060857 -0.88213,0 -1.38373,-0.467008 -0.49583,-0.467008 -0.49583,-1.239589 0,-1.654706 1.94875,-1.925686 l 1.77001,-0.247917 q 0,-1.504803 -1.21652,-1.504803 -1.06663,0 -1.92569,0.726456 v -0.968608 q 0.87059,-0.553491 2.0064,-0.553491 2.08136,0 2.08136,2.202432 z m -0.94555,-2.986543 -1.42408,0.196028 q -0.65727,0.09225 -0.99167,0.328635 -0.3344,0.230621 -0.3344,0.82447 0,0.432415 0.30557,0.70916 0.31134,0.27098 0.82447,0.27098 0.70339,0 1.15887,-0.49007 0.46124,-0.495835 0.46124,-1.251119 z"
         style="font-style:normal;font-variant:normal;font-weight:normal;font-stretch:normal;font-size:11.8078px;font-family:Ebrima;-inkscape-font-specification:Ebrima"
         id="path10925" />
      <path
         d="m 119.75799,31.801944 h -0.94555 v -3.367068 q 0,-1.879562 -1.37219,-1.879562 -0.70916,0 -1.17617,0.536194 -0.46124,0.530429 -0.46124,1.343368 v 3.367068 h -0.94555 v -5.9039 h 0.94555 v 0.980139 h 0.0231 q 0.6688,-1.118512 1.93722,-1.118512 0.96861,0 1.48174,0.628443 0.51313,0.622677 0.51313,1.80461 z"
         style="font-style:normal;font-variant:normal;font-weight:normal;font-stretch:normal;font-size:11.8078px;font-family:Ebrima;-inkscape-font-specification:Ebrima"
         id="path10927" />
      <path
         d="m 125.56388,31.530964 q -0.68033,0.409353 -1.61435,0.409353 -1.26265,0 -2.04099,-0.818705 -0.77258,-0.824471 -0.77258,-2.133245 0,-1.458679 0.836,-2.340805 0.836,-0.887891 2.23126,-0.887891 0.77834,0 1.37219,0.288277 v 0.968608 q -0.65727,-0.461242 -1.40679,-0.461242 -0.90518,0 -1.4875,0.651505 -0.57655,0.645739 -0.57655,1.70083 0,1.037795 0.54195,1.63741 0.54773,0.599615 1.46445,0.599615 0.77258,0 1.45291,-0.513132 z"
         style="font-style:normal;font-variant:normal;font-weight:normal;font-stretch:normal;font-size:11.8078px;font-family:Ebrima;-inkscape-font-specification:Ebrima"
         id="path10929" />
      <path
         d="m 131.73876,29.086381 h -4.16848 q 0.0231,0.985905 0.53043,1.522099 0.50737,0.536194 1.39526,0.536194 0.99743,0 1.83344,-0.65727 v 0.887891 q -0.77835,0.565022 -2.0583,0.565022 -1.25112,0 -1.96604,-0.801409 -0.71493,-0.807174 -0.71493,-2.265852 0,-1.377961 0.77835,-2.24279 0.78411,-0.870595 1.94298,-0.870595 1.15887,0 1.79308,0.749519 0.63421,0.749518 0.63421,2.081355 z m -0.96861,-0.801409 q -0.006,-0.818705 -0.39782,-1.274181 -0.38629,-0.455477 -1.07816,-0.455477 -0.6688,0 -1.1358,0.478539 -0.46701,0.478539 -0.57656,1.251119 z"
         style="font-style:normal;font-variant:normal;font-weight:normal;font-stretch:normal;font-size:11.8078px;font-family:Ebrima;-inkscape-font-specification:Ebrima"
         id="path10931" />
    </g>
    <g
       id="g10936">
      <path
         style="fill:#ded3af;stroke-width:0.0122637"
         d="M 1.5892257,6.5942987 C 1.5701604,6.5758089 1.5492655,6.5425616 1.5427928,6.5204159 1.5363199,6.4982703 1.4619199,6.1264004 1.3774593,5.6940386 1.2929985,5.2616768 1.2097677,4.8400671 1.1925018,4.7571281 1.1752358,4.6741892 1.1611091,4.6043294 1.1611091,4.601884 c 0,-0.00245 -0.031497,-0.018764 -0.069992,-0.036264 -0.051613,-0.023462 -0.07834,-0.045053 -0.10178226,-0.082219 -0.0292508,-0.046376 -0.03179,-0.062038 -0.03179,-0.1960901 0,-0.1324864 0.002769,-0.1500787 0.0305594,-0.1941389 C 1.005179,4.066101 1.0410311,4.033041 1.0693539,4.018251 l 0.05069,-0.026471 h 0.7323436 0.7323438 l 0.00467,-0.062061 0.00467,-0.062061 0.00235,0.067697 0.00235,0.067697 -0.74972,0.00323 C 1.114451,4.009442 1.0986229,4.010002 1.0642054,4.033885 0.9869523,4.087489 0.9769723,4.112167 0.972271,4.2612143 c -0.002416,0.07659 0.001695,0.1564876 0.009258,0.1799426 0.0171423,0.053161 0.0701987,0.1009262 0.1354074,0.1219022 0.047763,0.015364 0.051413,0.020029 0.067276,0.085987 0.00923,0.038357 0.096284,0.4751627 0.1934646,0.9706783 0.097181,0.4955156 0.1855023,0.9167677 0.1962705,0.9361157 0.010768,0.019348 0.032336,0.04348 0.047928,0.053628 0.015592,0.010147 0.022421,0.018449 0.015176,0.018449 -0.00725,0 -0.028772,-0.015128 -0.047838,-0.033618 z m 2.4175457,-0.00506 c 0.048045,-0.050863 0.022924,0.059665 0.2461859,-1.0831471 0.098311,-0.5032226 0.1813013,-0.9187909 0.1844238,-0.9234851 0.00312,-0.00469 0.022173,-0.0116 0.042334,-0.015347 0.045073,-0.00838 0.1111118,-0.058579 0.1360873,-0.1034542 0.013417,-0.024107 0.018627,-0.074477 0.018627,-0.1800729 0,-0.1329135 -0.0027,-0.1503292 -0.028929,-0.1864902 -0.015911,-0.021937 -0.048246,-0.051982 -0.071857,-0.066765 L 4.4907159,4.0036014 H 3.7560371 c -0.6694479,0 -0.7353905,-0.00172 -0.7426928,-0.019404 -0.00629,-0.015219 -0.00432,-0.016555 0.00912,-0.00619 0.012081,0.00932 0.234762,0.014166 0.7551154,0.016449 l 0.737982,0.00324 0.048061,0.034067 c 0.026434,0.018737 0.056042,0.051813 0.065796,0.073503 0.024309,0.054058 0.024309,0.3100436 0,0.3641013 -0.019495,0.043352 -0.082373,0.092469 -0.1405054,0.1097555 -0.02258,0.00671 -0.041138,0.022518 -0.046883,0.039927 -0.00523,0.015848 -0.090077,0.4463995 -0.1885481,0.9567815 -0.1842258,0.9548568 -0.1985259,1.0121045 -0.2605089,1.042904 -0.019462,0.00967 -0.015801,0.00185 0.013799,-0.029489 z M 3.0236557,3.7376235 c 2.54e-5,-0.091024 0.00202,-0.1266978 0.00444,-0.079276 0.00242,0.047422 0.0024,0.1218955 -3.81e-5,0.1654974 -0.00244,0.043602 -0.00442,0.0048 -0.0044,-0.086221 z M 2.6057661,3.7315319 C 2.6110417,3.6012353 2.6097314,3.5923774 2.5751641,3.5246602 2.5378442,3.4515508 2.4102003,3.2865798 2.3518005,3.2359777 l -0.033234,-0.028796 -0.03483,0.025836 c -0.1107296,0.082138 -0.2219864,0.1454499 -0.282924,0.1610017 -0.017494,0.00446 0.00827,-0.010495 0.057252,-0.033243 0.048983,-0.022748 0.1253769,-0.068662 0.1697646,-0.102031 0.044388,-0.033369 0.087791,-0.058145 0.09645,-0.055057 0.025473,0.00908 0.1526532,0.1494909 0.2086203,0.2303203 0.085632,0.1236719 0.093451,0.1535461 0.079469,0.3036147 L 2.6002546,3.8676572 Z M 3.0394028,3.4420925 c 0.00358,-0.065017 0.011531,-0.1394906 0.017661,-0.1654973 0.011864,-0.050333 0.00766,0.00865 -0.013917,0.1950504 -0.00916,0.079109 -0.00956,0.075925 -0.00374,-0.029553 z m -1.5029716,-3.4e-5 c 0.007,-0.00224 0.087151,-0.00612 0.178119,-0.00863 0.090968,-0.0025 0.1482205,-8.759e-4 0.1272279,0.00361 -0.037775,0.00808 -0.3298656,0.012872 -0.3053469,0.00501 z M 1.3573775,3.4129525 C 1.0505692,3.3381965 0.77310227,3.1322491 0.60031644,2.8510306 0.5562699,2.7793423 0.57740821,2.8037782 0.66511056,2.9259327 0.84991673,3.183336 1.1124051,3.3538023 1.4155648,3.4132958 c 0.059479,0.011672 0.090968,0.021304 0.069975,0.021403 -0.020993,9.46e-5 -0.078666,-0.00969 -0.1281623,-0.021746 z m 0.5392676,0.00333 c 0.00918,-0.00341 0.020158,-0.00299 0.024385,9.327e-4 0.00423,0.00393 -0.00329,0.00672 -0.016699,0.00621 -0.014821,-5.674e-4 -0.017836,-0.00337 -0.00769,-0.00714 z M 3.0715357,3.1997571 c 0,-0.016254 0.00289,-0.022904 0.00642,-0.014776 0.00353,0.00813 0.00353,0.021426 0,0.029553 -0.00353,0.00813 -0.00642,0.00148 -0.00642,-0.014777 z m 0.011718,-0.054181 c 6.107e-4,-0.013771 0.00363,-0.016572 0.00769,-0.00714 0.00368,0.00853 0.00322,0.018729 -10e-4,0.022657 -0.00423,0.00393 -0.00723,-0.00305 -0.00668,-0.015515 z m -0.4946884,-0.099332 -0.092917,-0.094394 0.026293,-0.055227 c 0.04571,-0.096012 0.067513,-0.1947543 0.07663,-0.3470347 l 0.00885,-0.1477655 0.00204,0.1157555 c 0.00232,0.1313644 -0.022794,0.263364 -0.069888,0.3673247 l -0.031431,0.069386 0.08667,0.085805 c 0.047668,0.047193 0.089783,0.086464 0.093589,0.08727 0.00381,8.062e-4 0.023074,-0.044624 0.042819,-0.1009564 0.049378,-0.1408786 0.099525,-0.2412894 0.1689918,-0.3383783 0.053082,-0.074189 0.057236,-0.084821 0.041975,-0.1074336 C 2.8768761,2.4838248 2.801032,2.2929224 2.8037428,2.2321254 c 9.364e-4,-0.021014 0.00502,-0.014114 0.012439,0.021044 0.018146,0.085937 0.04998,0.1669464 0.1037908,0.2641259 l 0.050848,0.091829 -0.06006,0.083175 C 2.8427656,2.7864633 2.7802579,2.9144765 2.736624,3.0489262 2.720291,3.0992532 2.701202,3.1404772 2.694205,3.1405342 2.687205,3.1405933 2.63967,3.0981612 2.588566,3.0462452 Z m 0.5074112,0.060959 c -0.00127,-0.019927 0.060106,-0.1638459 0.086567,-0.2029773 0.030501,-0.045105 0.041408,-0.047736 0.083214,-0.020077 0.021231,0.014046 0.073074,0.042807 0.1152076,0.063914 0.042134,0.021106 0.072084,0.038496 0.066558,0.038644 -0.01595,4.255e-4 -0.1122342,-0.047105 -0.1703772,-0.084107 l -0.053198,-0.033856 -0.024499,0.032518 c -0.020203,0.026817 -0.059428,0.1104855 -0.095603,0.2039258 -0.00483,0.012481 -0.00716,0.013078 -0.00787,0.00202 z m 0.7279042,-0.046257 c 0.047524,-0.00228 0.1219526,-0.00226 0.1653962,3.55e-5 0.043443,0.0023 0.00456,0.00417 -0.086408,0.00415 -0.090968,-2.37e-5 -0.1265127,-0.0019 -0.078988,-0.00418 z M 3.6836434,3.0497103 c 0.012379,-0.003 0.029555,-0.0028 0.038168,4.385e-4 0.00861,0.00324 -0.00151,0.00569 -0.022507,0.00545 -0.020993,-2.411e-4 -0.02804,-0.00289 -0.015661,-0.00589 z m 0.4736817,-0.00974 c 0.1122634,-0.019746 0.1471784,-0.019488 0.063614,4.693e-4 -0.034988,0.00836 -0.083652,0.015193 -0.1081437,0.015194 -0.028484,9e-7 -0.012438,-0.00564 0.04453,-0.015663 z M 3.5657155,3.0283492 c -0.059391,-0.021251 -0.033733,-0.021662 0.038168,-6.112e-4 0.031489,0.00922 0.045802,0.016713 0.031807,0.016653 -0.013995,-5.91e-5 -0.045484,-0.00728 -0.069975,-0.016042 z m 0.744283,-0.017732 c 0.013995,-0.00559 0.034033,-0.010159 0.04453,-0.010159 0.012029,0 0.00968,0.00376 -0.00636,0.010159 -0.013995,0.00559 -0.034033,0.01016 -0.04453,0.01016 -0.012029,0 -0.00968,-0.00376 0.00636,-0.01016 z M 3.476656,2.9987961 c -0.010496,-0.0063 -0.013359,-0.011459 -0.00636,-0.011459 0.007,0 0.021311,0.00516 0.031807,0.011459 0.010496,0.0063 0.013359,0.011459 0.00636,0.011459 -0.007,0 -0.021311,-0.00516 -0.031807,-0.011459 z m 1.0038902,-0.042194 c 0.037821,-0.015956 0.070915,-0.027014 0.073543,-0.024572 0.00553,0.00513 -0.1164165,0.055284 -0.1319443,0.054264 -0.0057,-3.747e-4 0.02058,-0.013736 0.058401,-0.029692 z m 0.1335887,-0.055202 c 0.013329,-0.0082 0.067719,-0.041439 0.1208665,-0.073869 C 4.8497272,2.7575261 5.0103283,2.611414 5.0988112,2.4965425 5.1337992,2.4511205 5.1951432,2.3553716 5.235133,2.2837674 5.275122,2.2121634 5.308043,2.1576738 5.308289,2.16268 5.309379,2.184808 5.1849796,2.398101 5.1239994,2.4786619 4.9921041,2.6529085 4.7881657,2.8284152 4.6426095,2.8929395 c -0.02899,0.012851 -0.041804,0.016659 -0.028475,0.00846 z M 0.5562536,2.7852273 c -0.004612,-0.00693 -0.005658,-0.015143 -0.002323,-0.018242 0.003335,-0.0031 0.009454,0.00257 0.0135975,0.012608 0.008603,0.02083 0.00127,0.024494 -0.0112749,0.00563 z m -0.035365,-0.076601 c -0.029888,-0.058235 -0.0256833,-0.068144 0.005563,-0.013112 0.0141917,0.024995 0.0235527,0.047536 0.0208021,0.050092 -0.002751,0.00256 -0.014615,-0.014086 -0.0263651,-0.03698 z M 0.44994996,2.5355299 c -0.0217169,-0.060567 -0.0392943,-0.1180885 -0.039061,-0.127825 2.3333e-4,-0.00974 0.0200559,0.03791 0.0440501,0.105881 0.0239942,0.067971 0.0415717,0.1254921 0.039061,0.1278249 -0.002511,0.00233 -0.0223332,-0.045314 -0.0440501,-0.1058809 z M 2.5879673,2.3707927 c -0.00105,-0.017067 -0.00475,-0.048984 -0.00822,-0.070927 l -0.00632,-0.039897 0.013394,0.039677 c 0.00737,0.021822 0.011068,0.053739 0.00822,0.070927 l -0.00517,0.031251 z M 0.39208737,2.3420605 c -0.00479,-0.023723 -0.006164,-0.045498 -0.003054,-0.048387 0.00311,-0.00289 0.009574,0.014156 0.0143636,0.03788 0.00479,0.023723 0.006164,0.045498 0.003054,0.048387 -0.00311,0.00289 -0.009574,-0.014156 -0.0143636,-0.03788 z m -0.0168393,-0.099824 c 0,-0.022756 0.002618,-0.032065 0.005818,-0.020687 0.0032,0.011378 0.0032,0.029996 0,0.041374 -0.0032,0.011378 -0.005818,0.00207 -0.005818,-0.020687 z m 2.18637183,-0.0069 c 6.107e-4,-0.013771 0.00363,-0.016572 0.00769,-0.00714 0.00368,0.00853 0.00322,0.018729 -10e-4,0.022657 -0.00423,0.00393 -0.00723,-0.00305 -0.00668,-0.015515 z M 2.5293491,2.149179 C 2.4643584,1.9673758 2.291203,1.8196639 2.0423209,1.7337152 c -0.054318,-0.018758 -0.091419,-0.034365 -0.082447,-0.034681 0.033864,-0.00119 0.2193009,0.072881 0.2908706,0.1161911 0.086852,0.052558 0.1891209,0.1502146 0.2371308,0.2264375 0.035929,0.057042 0.076465,0.1537683 0.06781,0.1618091 -0.00286,0.00266 -0.014712,-0.021774 -0.026336,-0.054293 z m -2.16656705,0.0044 c 1.4122e-4,-0.026007 0.002747,-0.035254 0.00579,-0.020549 0.003043,0.014705 0.002928,0.035983 -2.5675e-4,0.047285 -0.003184,0.011302 -0.005674,-7.289e-4 -0.005533,-0.026736 z M 2.7915625,2.0871538 C 2.7864084,1.7845707 2.9007374,1.5233631 3.1040387,1.3732389 3.1806037,1.3167008 3.3785665,1.2205283 3.4448491,1.2076694 3.4658417,1.2035968 3.4371042,1.218042 3.3809881,1.2397699 2.9912349,1.39068 2.8297596,1.6147448 2.8033722,2.0412757 c -0.00984,0.1590341 -0.00988,0.159193 -0.01181,0.045878 z M 5.31603,2.1240244 c 0.00468,-0.016254 0.013814,-0.037533 0.020299,-0.047285 0.00819,-0.012323 0.0092,-0.00872 0.00328,0.011821 -0.00468,0.016254 -0.013814,0.037532 -0.020299,0.047285 -0.00819,0.012323 -0.0092,0.00872 -0.00328,-0.011821 z M 0.35197156,1.9230633 c 0,-0.1007761 0.001951,-0.1420026 0.004336,-0.091615 0.002385,0.050388 0.002385,0.1328412 0,0.1832292 -0.002385,0.050388 -0.004336,0.00916 -0.004336,-0.091614 z M 5.3614167,2.005812 c 0,-0.00975 0.00492,-0.028371 0.010934,-0.041374 0.00689,-0.014902 0.010934,-0.017087 0.010934,-0.00591 0,0.00975 -0.00492,0.028371 -0.010934,0.041374 -0.00689,0.014902 -0.010934,0.017087 -0.010934,0.00591 z m 0.024662,-0.089644 c 6.107e-4,-0.013771 0.00363,-0.016572 0.00769,-0.00714 0.00368,0.00853 0.00322,0.018729 -10e-4,0.022657 -0.00423,0.00393 -0.00723,-0.00305 -0.00668,-0.015515 z m 0.014255,-0.0463 c 0,-0.013003 0.00458,-0.036941 0.010186,-0.053196 0.00807,-0.023401 0.010186,-0.024631 0.010186,-0.00591 0,0.013003 -0.00458,0.036941 -0.010186,0.053196 -0.00807,0.023401 -0.010186,0.024632 -0.010186,0.00591 z m 0.033171,-0.1654973 c 0.00485,-0.045512 0.00839,-0.1891399 0.00785,-0.3191735 C 5.4405502,1.1890954 5.4356728,1.1286105 5.412758,1.0305597 5.3664533,0.83242381 5.369519,0.84877807 5.3846815,0.8807845 c 0.00718,0.0151488 0.025753,0.0816433 0.041281,0.1477655 0.024613,0.1048067 0.028167,0.1543271 0.027724,0.3862 -2.965e-4,0.1550521 -0.00645,0.2881631 -0.014757,0.3191735 -0.013107,0.048934 -0.013542,0.046567 -0.00543,-0.029553 z M 0.3630388,1.6866385 c 0,-0.029258 0.002481,-0.041227 0.005514,-0.026598 0.003033,0.014629 0.003033,0.038567 0,0.053196 -0.003033,0.014629 -0.005514,0.00266 -0.005514,-0.026598 z m 1.523269,0.00296 C 1.8758115,1.6857517 1.7756196,1.665325 1.6636591,1.644206 1.5516986,1.623087 1.471545,1.6054225 1.4855401,1.6049515 c 0.033223,-0.00112 0.3864231,0.065445 0.4268397,0.080441 0.017149,0.00636 0.022593,0.011486 0.012096,0.011385 -0.010496,-1.017e-4 -0.027672,-0.00333 -0.038168,-0.00718 z M 0.37477665,1.5979792 c 2.593e-4,-0.019505 0.003111,-0.026053 0.006336,-0.014551 0.003226,0.011502 0.003014,0.02746 -4.7138e-4,0.035464 -0.003485,0.008 -0.006124,-0.00141 -0.005865,-0.020912 z M 1.3011373,1.5828431 c -0.052439,-0.010123 -0.0895,-0.020215 -0.082358,-0.022427 0.00714,-0.00221 0.064359,0.00613 0.1271502,0.018544 0.062791,0.012411 0.099852,0.022503 0.082358,0.022427 -0.017494,-7.57e-5 -0.074712,-0.00842 -0.1271502,-0.018544 z M 0.38707893,1.5329624 c -1.0051e-4,-0.028658 0.0326383,-0.1360522 0.0342355,-0.1123018 4.3728e-4,0.0065 -0.007063,0.041079 -0.0166681,0.076838 -0.009605,0.035759 -0.01751,0.051718 -0.0175674,0.035464 z M 1.078411,1.5315888 C 0.86976135,1.4769149 0.66813548,1.3561337 0.57455964,1.2297635 c -0.0458364,-0.0619 -0.0584497,-0.057663 -0.0928363,0.031187 -0.0128528,0.03321 -0.0258289,0.058096 -0.0288358,0.055302 -0.009134,-0.00849 0.0528006,-0.1418063 0.0680742,-0.1465368 0.007837,-0.00243 0.0411634,0.028086 0.0740593,0.067808 0.0328959,0.039721 0.0886365,0.093392 0.12386807,0.119267 0.0839135,0.06163 0.24511907,0.13312 0.37224459,0.1650806 0.05598,0.014074 0.1041679,0.027647 0.1070835,0.030162 0.01128,0.00973 -0.034409,0.00193 -0.1198062,-0.020444 z M 0.42497596,1.3911075 c 0,-0.00975 0.00492,-0.028371 0.0109343,-0.041374 0.006892,-0.014902 0.0109343,-0.017087 0.0109343,-0.00591 0,0.00975 -0.00492,0.028371 -0.0109343,0.041374 -0.006892,0.014902 -0.0109343,0.017087 -0.0109343,0.00591 z M 3.5339086,1.1828896 c 0.058431,-0.019992 0.4071427,-0.087535 0.4452975,-0.086251 0.013995,4.71e-4 -0.066561,0.01819 -0.1790134,0.039375 -0.1124524,0.021185 -0.2235179,0.044692 -0.2468122,0.052237 -0.023294,0.00755 -0.048655,0.013343 -0.056358,0.012885 -0.0077,-4.581e-4 0.0089,-0.00867 0.036886,-0.018245 z m 0.49325,-0.095505 c 0.012379,-0.003 0.029555,-0.0028 0.038168,4.38e-4 0.00861,0.00324 -0.00151,0.00569 -0.022507,0.00545 -0.020993,-2.41e-4 -0.02804,-0.00289 -0.015661,-0.00589 z M 4.2718301,1.0495472 C 4.6742265,0.97768413 4.8692695,0.91397756 5.0346702,0.80038205 5.0999892,0.7555216 5.1802441,0.67931529 5.2043933,0.63922101 c 0.00736,-0.0122142 0.017349,-0.0185157 0.022206,-0.0140032 0.00486,0.004512 -0.039518,0.0531267 -0.09861,0.10803163 C 5.0359381,0.81877786 5.0015521,0.84164645 4.8879224,0.89290751 4.7055926,0.97516078 4.3878679,1.0545255 4.1509637,1.0769929 c -0.038487,0.00365 0.015903,-0.0087 0.1208664,-0.027446 z M 5.3154008,0.72051575 c -0.012351,-0.0310279 -0.031062,-0.0697133 -0.041581,-0.0859675 -0.017299,-0.0267308 -0.017233,-0.0278597 6.909e-4,-0.0118212 0.020777,0.0185909 0.076959,0.14155465 0.068336,0.14956595 -0.00275,0.00255 -0.015096,-0.0207492 -0.027446,-0.0517773 z"
         id="path10954" />
      <path
         style="fill:#b0cd92;stroke-width:0.0122637"
         d="m 2.6027262,3.9267634 c 7.64e-5,-0.03901 0.00245,-0.053544 0.00528,-0.032297 0.00283,0.021247 0.00277,0.053164 -1.298e-4,0.070927 -0.0029,0.017763 -0.00522,3.795e-4 -0.00515,-0.038631 z M 3.0110338,3.7908191 c 0,-0.1007761 0.00195,-0.1420026 0.00434,-0.091615 0.00238,0.050388 0.00238,0.1328412 0,0.1832292 -0.00238,0.050388 -0.00434,0.00916 -0.00434,-0.091614 z M 2.6157841,3.7671766 c 0,-0.048763 0.00225,-0.068711 0.00499,-0.04433 0.00274,0.024381 0.00274,0.064278 0,0.088659 -0.00274,0.024381 -0.00499,0.00443 -0.00499,-0.04433 z m 0.010482,-0.1261114 c -0.00112,-0.020599 -0.00533,-0.047197 -0.00936,-0.059106 -0.00691,-0.020431 -0.0065,-0.020471 0.00715,-7.117e-4 0.00796,0.011518 0.012169,0.038116 0.00936,0.059106 l -0.00511,0.038164 z M 3.0227079,3.5071094 c 0,-0.042261 0.00231,-0.05955 0.00513,-0.038419 0.00282,0.02113 0.00282,0.055708 0,0.076838 -0.00282,0.021131 -0.00513,0.00384 -0.00513,-0.038419 z m -0.4405222,0.00576 c -0.011637,-0.022674 -0.018536,-0.041226 -0.01533,-0.041226 0.00871,0 0.047328,0.07238 0.041508,0.077788 -0.00276,0.00256 -0.014541,-0.013888 -0.026178,-0.036562 z M 2.5156129,3.4095841 c -0.019613,-0.027632 -0.027531,-0.044 -0.017594,-0.036373 0.019108,0.014667 0.067822,0.086613 0.058645,0.086613 -0.00296,0 -0.021438,-0.022608 -0.041051,-0.05024 z m -0.9246112,0.017833 c 0.044009,-0.00231 0.1127118,-0.0023 0.1526734,4.73e-5 0.039961,0.00234 0.00395,0.00423 -0.080016,0.00421 -0.08397,-2.37e-5 -0.1166663,-0.00194 -0.072657,-0.00425 z M 1.4571559,3.4161687 c 0.012379,-0.003 0.029555,-0.0028 0.038168,4.386e-4 0.00861,0.00324 -0.00151,0.00569 -0.022507,0.00545 -0.020993,-2.411e-4 -0.02804,-0.00289 -0.015661,-0.00589 z m 0.4544933,-0.015404 c 0.045427,-0.012052 0.084637,-0.020014 0.087134,-0.017694 0.00634,0.0059 -0.1254064,0.041476 -0.1497719,0.040448 -0.010976,-4.634e-4 0.017211,-0.010703 0.062638,-0.022754 z m -0.5247107,0.00395 c 0.00875,-0.00328 0.02306,-0.00328 0.031807,0 0.00875,0.00328 0.00159,0.00596 -0.015904,0.00596 -0.017494,0 -0.02465,-0.00268 -0.015903,-0.00596 z m 1.6476285,-0.03355 c 1.412e-4,-0.026007 0.00275,-0.035254 0.00579,-0.020549 0.00304,0.014705 0.00293,0.035983 -2.57e-4,0.047285 C 3.03692,3.4092031 3.03443,3.3971718 3.03457,3.3711651 Z M 1.3074211,3.388897 c -0.016039,-0.0064 -0.01839,-0.01016 -0.00636,-0.01016 0.010496,0 0.030535,0.00457 0.04453,0.01016 0.016039,0.0064 0.01839,0.010159 0.00636,0.010159 -0.010496,0 -0.030535,-0.00457 -0.04453,-0.010159 z M 1.2374461,3.365254 c -0.010496,-0.0063 -0.013359,-0.011459 -0.00636,-0.011459 0.007,0 0.021311,0.00516 0.031807,0.011459 0.010496,0.0063 0.013359,0.011459 0.00636,0.011459 -0.007,0 -0.021311,-0.00516 -0.031807,-0.011459 z M 2.0724847,3.343184 C 2.1084057,3.32478 2.1570697,3.29745 2.1806284,3.282452 c 0.023559,-0.014999 0.034246,-0.018785 0.023749,-0.00841 -0.024139,0.023851 -0.165764,0.1031092 -0.1837319,0.1028235 -0.00741,-1.182e-4 0.015918,-0.015272 0.051839,-0.033677 z M 1.1324828,3.3231031 c -0.033238,-0.016076 -0.060433,-0.031877 -0.060433,-0.035112 0,-0.00528 0.1259521,0.049999 0.1388904,0.060954 0.015752,0.013338 -0.025641,-2.955e-4 -0.078457,-0.025842 z m 1.2705355,-0.046508 c -0.040181,-0.042261 -0.07953,-0.076838 -0.087442,-0.076838 -0.00791,0 -0.031875,0.014629 -0.05325,0.032508 l -0.038864,0.032509 0.037368,-0.038419 c 0.020552,-0.02113 0.043693,-0.038419 0.051423,-0.038419 0.00773,0 0.036848,0.022608 0.064706,0.05024 0.076069,0.075452 0.1124824,0.115257 0.1054358,0.115257 -0.00348,0 -0.039195,-0.034577 -0.079377,-0.076838 z m 0.6435433,0 c 2.596e-4,-0.019505 0.00311,-0.026053 0.00634,-0.014552 0.00323,0.011502 0.00301,0.02746 -4.72e-4,0.035464 -0.00349,0.008 -0.00612,-0.00141 -0.00587,-0.020912 z M 1.0050276,3.2525261 C 0.9789119,3.2360371 0.9575445,3.2200031 0.9575445,3.2168941 c 0,-0.00311 0.022901,0.00843 0.0508911,0.02564 0.044443,0.027326 0.059463,0.039971 0.047483,0.039971 -0.00187,0 -0.024775,-0.013491 -0.050891,-0.029979 z m 2.0537853,-0.040948 c 0,-0.016254 0.00289,-0.022904 0.00642,-0.014777 0.00353,0.00813 0.00353,0.021426 0,0.029553 -0.00353,0.00813 -0.00642,0.00148 -0.00642,-0.014776 z M 0.8730138,3.1549157 C 0.83701824,3.1243142 0.7890346,3.0779984 0.76638355,3.0519916 c -0.039395,-0.045231 -0.0387748,-0.044974 0.014278,0.00591 0.0305039,0.029257 0.0813502,0.075592 0.11299164,0.1029664 0.0316414,0.027374 0.0546673,0.049752 0.0511685,0.049729 -0.003499,-2.36e-5 -0.0358124,-0.02508 -0.0718079,-0.055681 z m 2.1986756,0.00347 c -2.061e-4,-0.013003 0.00455,-0.034282 0.01056,-0.047285 0.013932,-0.030123 0.013932,9.552e-4 0,0.041374 -0.00819,0.023757 -0.01026,0.024917 -0.01056,0.00591 z M 2.5823223,3.0596572 c -0.053924,-0.051485 -0.097956,-0.09821 -0.097849,-0.1038332 1.018e-4,-0.00562 0.00637,-0.018203 0.013923,-0.027955 0.01143,-0.014764 0.012468,-0.014121 0.0062,0.00384 -0.00544,0.015599 0.018017,0.047529 0.084678,0.1152507 0.050715,0.051521 0.097933,0.09367 0.1049309,0.093665 0.007,-5.5e-6 0.022788,-0.031835 0.03509,-0.070731 0.027477,-0.086876 0.074197,-0.2041106 0.079303,-0.1989947 0.00978,0.00979 -0.096423,0.276075 -0.1112769,0.2790123 -0.00933,0.00184 -0.061075,-0.038772 -0.1149986,-0.090257 z m 0.5137392,0.010066 c -3.842e-4,-0.00975 0.00485,-0.025711 0.011634,-0.035464 0.01503,-0.021609 0.01503,-0.00294 0,0.029553 -0.00721,0.015589 -0.011173,0.017603 -0.011634,0.00591 z m 0.714011,-0.020575 c 0.046927,-0.00227 0.1270808,-0.00228 0.178119,-3.54e-5 0.051038,0.00225 0.012643,0.00411 -0.085322,0.00412 -0.097965,2.36e-5 -0.139724,-0.00182 -0.092797,-0.00409 z M 3.6709206,3.037889 c 0.012379,-0.003 0.029555,-0.0028 0.038168,4.386e-4 0.00861,0.00324 -0.00151,0.00569 -0.022507,0.00545 -0.020993,-2.412e-4 -0.02804,-0.00289 -0.015661,-0.00589 z m 0.4323326,4.73e-5 c 0.012246,-0.00297 0.032284,-0.00297 0.04453,0 0.012246,0.00297 0.00223,0.00541 -0.022265,0.00541 -0.024491,0 -0.034511,-0.00243 -0.022265,-0.00541 z m -0.489032,-0.011748 c 0.00918,-0.00341 0.020158,-0.00299 0.024385,9.327e-4 0.00423,0.00393 -0.00329,0.00672 -0.016699,0.00621 -0.014821,-5.674e-4 -0.017836,-0.00337 -0.00769,-0.00714 z m 0.5717301,2.459e-4 c 0.00875,-0.00328 0.02306,-0.00328 0.031807,0 0.00875,0.00328 0.00159,0.00596 -0.015904,0.00596 -0.017494,0 -0.02465,-0.00268 -0.015903,-0.00596 z m 0.079517,-0.015817 c 0.043501,-0.012944 0.07695,-0.012944 0.04453,0 -0.013995,0.00559 -0.036896,0.010003 -0.050891,0.00981 -0.020455,-2.79e-4 -0.019208,-0.0022 0.00636,-0.00981 z m -1.144149,-0.00591 c 0,-0.0065 0.00818,-0.02512 0.018182,-0.041374 0.01,-0.016254 0.018182,-0.024234 0.018182,-0.017732 0,0.0065 -0.00818,0.02512 -0.018182,0.041374 -0.01,0.016254 -0.018182,0.024234 -0.018182,0.017732 z m 0.3807819,-0.00591 c -0.023257,-0.013965 -0.00317,-0.013965 0.031807,0 0.016778,0.0067 0.018945,0.010381 0.00636,0.010809 -0.010496,3.57e-4 -0.027672,-0.00451 -0.038168,-0.010809 z M 0.690366,2.9633324 C 0.675418,2.9438274 0.6660504,2.9278684 0.6695491,2.9278684 c 0.003499,0 0.0185916,0.015959 0.0335396,0.035464 0.0149481,0.019505 0.0243156,0.035464 0.0208169,0.035464 -0.003499,0 -0.0185916,-0.015959 -0.0335396,-0.035464 z m 3.6896078,0.017732 c 0.058088,-0.020785 0.080943,-0.020478 0.031807,4.268e-4 -0.020993,0.00893 -0.046756,0.016074 -0.057253,0.015872 -0.010496,-2.01e-4 9.542e-4,-0.00754 0.025446,-0.016299 z M 3.3748737,2.9449715 c -0.045484,-0.022725 -0.097011,-0.052459 -0.114505,-0.066077 l -0.031807,-0.024759 0.038168,0.021779 c 0.020993,0.011979 0.078245,0.041727 0.1272278,0.066109 0.048983,0.024381 0.083334,0.044315 0.076337,0.044298 -0.007,-1.18e-5 -0.049937,-0.018625 -0.095421,-0.04135 z m 1.0941596,0.00654 c 0.010496,-0.0063 0.024809,-0.011459 0.031807,-0.011459 0.007,0 0.00413,0.00516 -0.00636,0.011459 -0.010496,0.0063 -0.024809,0.011459 -0.031807,0.011459 -0.007,0 -0.00413,-0.00516 0.00636,-0.011459 z M 3.1773814,2.8953602 c 0.011015,-0.02113 0.025831,-0.038419 0.032925,-0.038419 0.00831,0 0.00804,0.00526 -7.608e-4,0.014776 -0.00751,0.00813 -0.022328,0.025416 -0.032924,0.038419 -0.016201,0.019881 -0.016081,0.017531 7.608e-4,-0.014777 z m 1.3690488,0.028199 c 0.00292,-0.00237 0.019614,-0.010643 0.037108,-0.018384 0.029991,-0.013271 0.030397,-0.013025 0.00711,0.00431 -0.020267,0.015087 -0.061678,0.028268 -0.044219,0.014075 z M 0.60187467,2.8355664 c -0.0283026,-0.044264 -0.0513903,-0.085491 -0.0513061,-0.091615 8.397e-5,-0.00612 0.0148475,0.012804 0.0328071,0.042062 0.0179596,0.029257 0.0441212,0.070484 0.058137,0.091615 0.0140157,0.02113 0.0224092,0.038419 0.0186522,0.038419 -0.003757,0 -0.0299876,-0.036217 -0.0582902,-0.080481 z m 1.90888983,0.06866 c -5.61e-4,-0.00325 0.010159,-0.032509 0.023821,-0.065017 0.013662,-0.032508 0.024958,-0.051127 0.025101,-0.041374 2.468e-4,0.016752 -0.046753,0.1189645 -0.048922,0.106391 z m 2.1109422,-0.014707 c 0.0035,-0.00362 0.049478,-0.033316 0.1021756,-0.065989 0.098865,-0.061297 0.221545,-0.1648337 0.3175869,-0.268031 0.030254,-0.032508 0.047033,-0.048467 0.037285,-0.035464 -0.086331,0.1151656 -0.2860796,0.2853023 -0.4085605,0.3479933 -0.030167,0.01544 -0.051986,0.025111 -0.048487,0.021491 z M 2.8155806,2.8533988 c -8.511e-4,-0.015792 0.037901,-0.080798 0.098457,-0.1651619 l 0.057456,-0.080045 -0.035464,-0.06181 c -0.019505,-0.033995 -0.029756,-0.05649 -0.02278,-0.049989 0.00698,0.0065 0.025855,0.034176 0.041953,0.061498 l 0.029269,0.049677 -0.064291,0.092178 c -0.03536,0.050698 -0.073246,0.1081366 -0.084191,0.1276416 -0.010945,0.019505 -0.020128,0.03121 -0.020409,0.026011 z M 2.5633889,2.7564607 c 1.311e-4,-0.013003 0.00461,-0.039601 0.00995,-0.059106 0.00872,-0.031855 0.00974,-0.032456 0.00995,-0.00591 1.298e-4,0.016254 -0.00435,0.042852 -0.00995,0.059106 -0.00798,0.023158 -0.010135,0.024437 -0.00995,0.00591 z M 0.52088862,2.6849838 c -0.029888,-0.058235 -0.0256833,-0.068144 0.005563,-0.013112 0.0141917,0.024995 0.0235527,0.047536 0.0208021,0.050092 -0.002751,0.00256 -0.014615,-0.014085 -0.0263651,-0.03698 z M 2.5887238,2.5422715 c -0.00236,-0.1059697 -0.026777,-0.2806156 -0.04794,-0.3428813 -0.00651,-0.019153 -0.00571,-0.019561 0.00587,-0.003 0.02596,0.037134 0.053141,0.2311722 0.048908,0.3491527 l -0.00417,0.1163462 z M 5.1397675,2.4239513 c 0.072022,-0.1084636 0.084359,-0.1231511 0.047992,-0.057135 -0.018047,0.032759 -0.047051,0.075316 -0.064454,0.09457 -0.018921,0.020934 -0.012303,0.00588 0.016462,-0.037435 z m -2.2658511,0.00768 c -0.028711,-0.06667 -0.024286,-0.076591 0.00593,-0.013305 0.013647,0.02858 0.022547,0.054069 0.019778,0.056641 -0.00277,0.00257 -0.014339,-0.016929 -0.025711,-0.043337 z m -2.44972447,-0.00715 c 6.1044e-4,-0.013771 0.003625,-0.016572 0.007687,-0.00714 0.003675,0.00853 0.003223,0.018729 -0.001004,0.022657 -0.004228,0.00393 -0.007235,-0.00305 -0.006682,-0.015515 z m -0.0117183,-0.05221 c 0,-0.016254 0.002888,-0.022904 0.006417,-0.014777 0.003529,0.00813 0.003529,0.021426 0,0.029553 -0.003529,0.00813 -0.006417,0.00148 -0.006417,-0.014776 z M 2.8285347,2.3106334 C 2.8201148,2.2827678 2.8113134,2.1881546 2.8089763,2.1003819 l -0.00425,-0.1595867 0.00956,0.1536761 c 0.00526,0.084522 0.016549,0.1768211 0.025092,0.2051096 0.00854,0.028288 0.013043,0.053747 0.01,0.056575 -0.00304,0.00283 -0.012423,-0.017657 -0.020844,-0.045523 z m -2.42978834,0.00746 c 6.1044e-4,-0.013771 0.003625,-0.016572 0.007687,-0.00714 0.003675,0.00853 0.003223,0.018729 -0.001004,0.022657 -0.004228,0.00393 -0.007235,-0.00305 -0.006682,-0.015515 z m -0.0112469,-0.058121 c 2.5929e-4,-0.019505 0.003111,-0.026053 0.006336,-0.014552 0.003226,0.011502 0.003014,0.02746 -4.7138e-4,0.035464 -0.003485,0.008 -0.006124,-0.00141 -0.005865,-0.020912 z M 5.2584084,2.2289762 c -3.092e-4,-0.00404 0.013841,-0.03596 0.031445,-0.070927 0.017604,-0.034968 0.028327,-0.050279 0.02383,-0.034024 -0.00854,0.030861 -0.054296,0.1177409 -0.055275,0.104951 z M 0.37550483,2.1653987 c 1.4122e-4,-0.026007 0.002747,-0.035254 0.00579,-0.020549 0.003043,0.014705 0.002928,0.035983 -2.5675e-4,0.047285 -0.003184,0.011302 -0.005674,-7.289e-4 -0.005533,-0.026736 z M 2.4807705,2.0728566 C 2.3779801,1.8904418 2.2020099,1.781235 1.8765568,1.6978833 1.8014483,1.6786473 1.762188,1.6659551 1.7893117,1.6696785 c 0.097107,0.01333 0.2706164,0.06616 0.3768974,0.1147581 0.080574,0.036843 0.1309338,0.070611 0.1975398,0.132457 0.07703,0.071525 0.1710505,0.1995941 0.1564734,0.2131383 -0.00261,0.00243 -0.020365,-0.023303 -0.039452,-0.057175 z M 0.36475291,1.9230633 c 0,-0.1072777 0.001929,-0.1511641 0.004286,-0.097525 0.002357,0.053639 0.002357,0.1414115 0,0.1950504 -0.002357,0.053639 -0.004286,0.00975 -0.004286,-0.097525 z M 5.3234612,2.08265 c -3.81e-5,-0.0065 0.00765,-0.03044 0.017083,-0.053196 0.00943,-0.022756 0.017326,-0.033395 0.017542,-0.023642 2.163e-4,0.00975 -0.00747,0.033691 -0.017083,0.053195 -0.00961,0.019505 -0.017506,0.030144 -0.017542,0.023643 z m 0.037746,-0.1063911 c -5.992e-4,-0.0065 0.00688,-0.038419 0.016613,-0.070928 0.00974,-0.032508 0.017773,-0.048467 0.017861,-0.035464 1.705e-4,0.025166 -0.032631,0.1263964 -0.034474,0.106392 z M 2.8180229,1.8994208 c 0,-0.022756 0.00262,-0.032065 0.00582,-0.020687 0.0032,0.011378 0.0032,0.029996 0,0.041374 -0.0032,0.011378 -0.00582,0.00207 -0.00582,-0.020687 z m 0.017151,-0.088659 C 2.8481458,1.7299481 2.9142087,1.5893637 2.9740479,1.5152305 3.0448215,1.4275511 3.150502,1.345089 3.2616308,1.2908304 3.3414515,1.2518581 3.5634153,1.1775173 3.5954891,1.1790136 c 0.00812,3.787e-4 -0.048222,0.0204 -0.1251945,0.044492 C 3.2784214,1.2835612 3.171257,1.3418854 3.05559,1.4492088 2.9511311,1.5461325 2.9013528,1.626662 2.8539038,1.7754892 c -0.016064,0.050385 -0.023363,0.064131 -0.01873,0.035273 z m 2.5636277,0.010836 c 6.107e-4,-0.013771 0.00363,-0.016572 0.00769,-0.00714 0.00368,0.00853 0.00322,0.018729 -10e-4,0.022657 -0.00423,0.00393 -0.00723,-0.00305 -0.00668,-0.015515 z m 0.014199,-0.058121 c 2.596e-4,-0.019505 0.00311,-0.026053 0.00634,-0.014552 0.00323,0.011502 0.00301,0.02746 -4.72e-4,0.035464 -0.00349,0.008 -0.00612,-0.00141 -0.00587,-0.020912 z m 0.013194,-0.088659 c 0,-0.022756 0.00262,-0.032065 0.00582,-0.020687 0.0032,0.011378 0.0032,0.029996 0,0.041374 -0.0032,0.011378 -0.00582,0.00207 -0.00582,-0.020687 z M 0.37524808,1.662996 c 0,-0.022756 0.002618,-0.032065 0.005818,-0.020687 0.0032,0.011378 0.0032,0.029996 0,0.041374 -0.0032,0.011378 -0.005818,0.00207 -0.005818,-0.020687 z M 1.6922854,1.655166 c 0.00875,-0.00328 0.02306,-0.00328 0.031807,0 0.00875,0.00328 0.00159,0.00596 -0.015903,0.00596 -0.017494,0 -0.02465,-0.00268 -0.015904,-0.00596 z M 1.5745996,1.6393536 c -0.034046,-0.00805 -0.034733,-0.00902 -0.00636,-0.00902 0.017494,0 0.048983,0.00406 0.069975,0.00902 0.034046,0.00805 0.034733,0.00902 0.00636,0.00902 -0.017494,0 -0.048983,-0.00406 -0.069975,-0.00902 z M 1.402842,1.6126476 c -0.038486,-0.00664 -0.064184,-0.01401 -0.057106,-0.016373 0.00708,-0.00236 0.05288,0.00308 0.1017823,0.012101 0.048902,0.00902 0.074599,0.016387 0.057106,0.016373 -0.017494,-1.3e-5 -0.063296,-0.00546 -0.1017823,-0.012101 z M 0.38749944,1.586158 c 2.5929e-4,-0.019505 0.003111,-0.026053 0.006336,-0.014552 0.003226,0.011502 0.003014,0.02746 -4.7138e-4,0.035464 -0.003485,0.008 -0.006124,-0.00141 -0.005865,-0.020912 z M 5.4411975,1.41475 c 0,-0.1137794 0.00191,-0.1603255 0.00424,-0.1034358 0.00233,0.05689 0.00233,0.1499819 0,0.2068717 -0.00233,0.05689 -0.00424,0.010344 -0.00424,-0.1034359 z M 1.1293021,1.5554371 C 0.93566398,1.507216 0.77539865,1.4325572 0.67130155,1.3420798 0.62545664,1.302233 0.57826809,1.2544068 0.56643813,1.2357994 c -0.0226661,-0.035652 -0.0477335,-0.043819 -0.0584879,-0.019055 -0.004032,0.00928 -0.006791,0.00982 -0.007422,0.00145 -5.5242e-4,-0.00733 0.007101,-0.01958 0.0170084,-0.027219 0.0146118,-0.011267 0.0253784,-0.00394 0.0570226,0.038791 0.1083067,0.1462636 0.30605412,0.2541364 0.58858047,0.3210755 0.09335,0.022117 0.1554134,0.040041 0.1379196,0.039832 C 1.2835659,1.5904604 1.206275,1.5746054 1.1293021,1.5554371 Z M 0.3997508,1.5211412 c 0,-0.016254 0.002888,-0.022904 0.006417,-0.014777 0.003529,0.00813 0.003529,0.021426 0,0.029553 -0.003529,0.00813 -0.006417,0.00148 -0.006417,-0.014776 z m 0.0117183,-0.054181 c 6.1044e-4,-0.013771 0.003625,-0.016572 0.007687,-0.00714 0.003675,0.00853 0.003223,0.018729 -0.001004,0.022657 -0.004228,0.00393 -0.007235,-0.00305 -0.006682,-0.015515 z m 0.0135068,-0.040389 c 0,-0.00975 0.00492,-0.028371 0.0109343,-0.041374 0.006892,-0.014902 0.0109343,-0.017087 0.0109343,-0.00591 0,0.00975 -0.00492,0.028371 -0.0109343,0.041374 -0.006892,0.014902 -0.0109343,0.017087 -0.0109343,0.00591 z m 0.0247462,-0.082749 c -3.8467e-4,-0.00975 0.004851,-0.025711 0.0116337,-0.035464 0.0150297,-0.021609 0.0150297,-0.00294 0,0.029553 -0.00721,0.015589 -0.0111726,0.017602 -0.0116337,0.00591 z m 0.0247462,-0.065017 c 0,-0.0065 0.00555,-0.019801 0.0123331,-0.029553 0.006783,-0.00975 0.0123331,-0.012412 0.0123331,-0.00591 0,0.0065 -0.00555,0.019801 -0.0123331,0.029553 -0.006783,0.00975 -0.0123331,0.012412 -0.0123331,0.00591 z M 5.4261939,1.1546827 c 0,-0.022756 0.00262,-0.032065 0.00582,-0.020687 0.0032,0.011378 0.0032,0.029996 0,0.041374 -0.0032,0.011378 -0.00582,0.00207 -0.00582,-0.020687 z M 3.6420522,1.166504 c 0.017494,-0.00521 0.043257,-0.00946 0.057253,-0.00946 0.020149,0 0.018824,0.00197 -0.00636,0.00946 -0.017494,0.00521 -0.043257,0.00946 -0.057252,0.00946 -0.020149,0 -0.018824,-0.00197 0.00636,-0.00946 z m 0.098602,-0.01965 c 0.00875,-0.00328 0.02306,-0.00328 0.031807,0 0.00875,0.00328 0.00159,0.00596 -0.015904,0.00596 -0.017494,0 -0.02465,-0.00268 -0.015903,-0.00596 z m 0.063614,-0.011821 c 0.00875,-0.00328 0.02306,-0.00328 0.031807,0 0.00875,0.00328 0.00159,0.00596 -0.015904,0.00596 -0.017494,0 -0.02465,-0.00268 -0.015903,-0.00596 z m 0.070217,-0.012184 c 0.012379,-0.003 0.029555,-0.0028 0.038168,4.379e-4 0.00861,0.00324 -0.00151,0.00569 -0.022507,0.00545 -0.020993,-2.409e-4 -0.02804,-0.00289 -0.015661,-0.00589 z M 4.011013,1.1006299 c 0.045484,-0.00867 0.097011,-0.015423 0.1145051,-0.014997 0.017494,4.254e-4 -0.00827,0.00783 -0.057252,0.016454 -0.048983,0.00862 -0.10051,0.015373 -0.1145051,0.014997 -0.013995,-3.755e-4 0.011769,-0.00778 0.057252,-0.016454 z m 1.4015152,-0.028696 c 0,-0.016254 0.00289,-0.022904 0.00642,-0.014777 0.00353,0.00813 0.00353,0.021426 0,0.029553 -0.00353,0.00813 -0.00642,0.00148 -0.00642,-0.014776 z m -1.2326961,0.00363 c 0.012379,-0.003 0.029555,-0.0028 0.038168,4.38e-4 0.00861,0.00324 -0.00151,0.00569 -0.022507,0.00545 -0.020993,-2.409e-4 -0.02804,-0.00289 -0.015661,-0.00589 z m 0.091998,-0.015451 c 0.020993,-0.00496 0.052481,-0.00902 0.069975,-0.00902 0.028372,0 0.027685,9.745e-4 -0.00636,0.00902 -0.020993,0.00496 -0.052481,0.00902 -0.069975,0.00902 -0.028372,0 -0.027685,-9.745e-4 0.00636,-0.00902 z M 4.5390086,1.0077519 C 4.8723184,0.9281032 5.0534828,0.83404635 5.1958009,0.66675869 c 0.027127,-0.0318867 0.049322,-0.0529276 0.049322,-0.0467574 0,0.0136719 -0.092306,0.11288903 -0.1507067,0.1619906 C 5.03264,0.83393152 4.9133453,0.89969048 4.8045652,0.94176675 4.7060786,0.97986155 4.4434927,1.0484638 4.399058,1.0477081 4.385063,1.0474701 4.448041,1.0294901 4.5390086,1.0077519 Z m 0.8607969,0.00508 c 0,-0.0162542 0.00289,-0.0229037 0.00642,-0.0147766 0.00353,0.008127 0.00353,0.021426 0,0.0295531 -0.00353,0.00813 -0.00642,0.00148 -0.00642,-0.014777 z M 5.3860783,0.9586472 c 6.107e-4,-0.0137711 0.00363,-0.0165722 0.00769,-0.007142 0.00368,0.008533 0.00322,0.0187293 -10e-4,0.0226574 -0.00423,0.003928 -0.00723,-0.003054 -0.00668,-0.0155154 z m -0.012723,-0.047285 c 6.107e-4,-0.0137711 0.00363,-0.0165722 0.00769,-0.007142 0.00368,0.008533 0.00322,0.0187293 -0.001,0.0226574 -0.00423,0.003928 -0.00723,-0.003054 -0.00668,-0.0155154 z M 5.3432703,0.8211549 C 5.3316843,0.7874918 5.3243163,0.7579872 5.3268973,0.7555891 c 0.00258,-0.002398 0.014447,0.0229269 0.026369,0.0562777 0.011922,0.0333508 0.01929,0.0628554 0.016373,0.0655658 -0.00292,0.00271 -0.014783,-0.0226146 -0.026369,-0.0562777 z M 5.3039473,0.7227505 c -0.012277,-0.0297268 -0.00866,-0.0373971 0.00634,-0.0134329 0.00743,0.0118656 0.010822,0.024064 0.00755,0.0271076 -0.00328,0.003044 -0.00953,-0.00311 -0.013889,-0.0136747 z M 5.2724043,0.6493248 c -0.013883,-0.0301447 -0.013569,-0.0308399 0.00432,-0.009562 0.01061,0.0126206 0.019291,0.0272494 0.019291,0.0325084 0,0.0179672 -0.00863,0.009579 -0.02361,-0.0229466 z"
         id="path10952" />
      <path
         style="fill:#ef985d;stroke-width:0.0122637"
         d="M 1.6356505,6.6165738 C 1.6132482,6.6038823 1.5857981,6.57711 1.5746501,6.5570799 1.5635021,6.5370497 1.4748699,6.1152395 1.3776893,5.6197239 1.2805088,5.1242083 1.1934497,4.687403 1.1842247,4.6490456 1.1683618,4.5830882 1.1647119,4.5784234 1.1169489,4.563059 1.0517403,4.542083 0.99868388,4.4943183 0.98154158,4.4411568 c -0.007563,-0.023455 -0.011674,-0.1033528 -0.009258,-0.1799426 0.004701,-0.1490454 0.0146798,-0.1737207 0.0919301,-0.2273293 0.034314,-0.023813 0.052498,-0.024509 0.7912121,-0.030284 0.4158498,-0.00325 0.7560884,-0.00204 0.7560858,0.00268 -2.7e-6,0.00473 -0.3373789,0.010045 -0.7497249,0.011821 -0.7346003,0.00316 -0.7504285,0.00372 -0.7848459,0.027603 -0.071183,0.049392 -0.0857131,0.080138 -0.0915588,0.1937409 -0.002998,0.058257 -0.001513,0.1303197 0.0033,0.1601401 0.0110782,0.06864 0.0659237,0.12861 0.13798632,0.1508794 l 0.053525,0.016541 0.022117,0.093621 c 0.012164,0.051492 0.099974,0.4897593 0.1951312,0.9739278 0.095158,0.4841684 0.1809897,0.8946362 0.1907375,0.9121506 0.00975,0.017514 0.036444,0.045552 0.059324,0.062306 0.049529,0.036267 0.044491,0.039481 -0.011853,0.00756 z M 3.975278,6.5990251 c 0.02583,-0.023861 0.052736,-0.060369 0.059791,-0.081129 0.00706,-0.02076 0.096305,-0.4654058 0.198332,-0.988102 0.1020268,-0.522696 0.1880752,-0.954223 0.1912186,-0.9589488 0.00314,-0.00473 0.023963,-0.011983 0.046267,-0.016128 0.060928,-0.011322 0.122511,-0.060733 0.1388511,-0.1114072 0.0083,-0.02574 0.012475,-0.1012327 0.00995,-0.1799632 -0.00377,-0.1175127 -0.00813,-0.1405585 -0.032721,-0.1725845 -0.059265,-0.077198 -0.038351,-0.07534 -0.8482386,-0.07534 -0.4030499,0 -0.7328199,-0.00399 -0.7328221,-0.00887 -2.3e-6,-0.00488 0.337373,-0.00621 0.7497228,-0.00296 0.7357375,0.0058 0.750397,0.00637 0.7856361,0.03064 0.080826,0.055662 0.093162,0.088699 0.093162,0.2494942 0,0.1055959 -0.00521,0.1559664 -0.018627,0.1800729 -0.024976,0.044875 -0.091015,0.095078 -0.1360873,0.1034542 -0.020161,0.00375 -0.039211,0.010652 -0.042334,0.015347 -0.00312,0.00469 -0.086113,0.4202625 -0.1844238,0.9234851 -0.098311,0.5032226 -0.1847961,0.9429311 -0.1921897,0.97713 -0.01378,0.063736 -0.056626,0.1233209 -0.1051987,0.1462937 -0.016786,0.00794 -0.00922,-0.00377 0.019709,-0.030493 z"
         id="path10950" />
      <path
         style="fill:#8bb65e;stroke-width:0.0122637"
         d="m 2.6218357,3.8440147 c 0.010485,-0.2079873 0.010138,-0.2541731 -0.00213,-0.2837098 -0.0054,-0.013003 -8.525e-4,-0.00931 0.010107,0.0082 0.01738,0.027776 0.018233,0.054975 0.00667,0.2127823 -0.017418,0.237769 -0.025142,0.2708395 -0.014651,0.062723 z m 0.3762978,0.011821 c 2.54e-5,-0.084522 0.00205,-0.1175479 0.0045,-0.073391 0.00245,0.044157 0.00244,0.113311 -3.82e-5,0.1536761 -0.00248,0.040365 -0.00449,0.00424 -0.00446,-0.080285 z m 0.011722,-0.3073522 c 7.63e-5,-0.03901 0.00245,-0.053544 0.00528,-0.032297 0.00283,0.021247 0.00277,0.053164 -1.298e-4,0.070927 -0.0029,0.017763 -0.00522,3.795e-4 -0.00515,-0.038631 z m -0.44924,-0.088659 c -0.00749,-0.013003 -0.010756,-0.023643 -0.00726,-0.023643 0.0035,0 0.01249,0.010639 0.01998,0.023643 0.00749,0.013003 0.010755,0.023642 0.00726,0.023642 -0.0035,0 -0.01249,-0.010639 -0.01998,-0.023642 z m 0.4612287,-0.065017 c 1.412e-4,-0.026007 0.00275,-0.035254 0.00579,-0.020549 0.00304,0.014704 0.00293,0.035983 -2.57e-4,0.047285 -0.00318,0.011302 -0.00567,-7.294e-4 -0.00553,-0.026736 z m -1.5013164,0.021404 c 0.012246,-0.00297 0.032284,-0.00297 0.04453,0 0.012246,0.00297 0.00223,0.00541 -0.022265,0.00541 -0.024491,0 -0.034511,-0.00243 -0.022265,-0.00541 z m 0.2674206,-4.72e-5 c 0.012379,-0.003 0.029555,-0.0028 0.038168,4.385e-4 0.00861,0.00324 -0.00151,0.00569 -0.022507,0.00545 -0.020993,-2.411e-4 -0.02804,-0.00289 -0.015661,-0.00589 z M 2.4741982,3.3426414 C 2.437309,3.2976981 2.3843929,3.2418428 2.3566068,3.2185184 c -0.027786,-0.02332 -0.045995,-0.042404 -0.040463,-0.042404 0.019443,0 0.1895457,0.1771629 0.2241656,0.2334694 0.021063,0.034257 -0.00328,0.00961 -0.066111,-0.066939 z m -1.0363685,0.062065 c 0.00875,-0.00328 0.02306,-0.00328 0.031807,0 0.00875,0.00328 0.00159,0.00596 -0.015904,0.00596 -0.017494,0 -0.02465,-0.00268 -0.015903,-0.00596 z m 0.420647,-2.459e-4 c 0.00918,-0.00341 0.020158,-0.00299 0.024385,9.327e-4 0.00423,0.00393 -0.00329,0.00672 -0.016699,0.00621 -0.014821,-5.674e-4 -0.017836,-0.00337 -0.00769,-0.00714 z m -0.484261,-0.011571 c 0.00875,-0.00328 0.02306,-0.00328 0.031807,0 0.00875,0.00328 0.00159,0.00596 -0.015904,0.00596 -0.017494,0 -0.02465,-0.00268 -0.015903,-0.00596 z m 0.5351522,-2.458e-4 c 0.00918,-0.00341 0.020158,-0.00299 0.024385,9.326e-4 0.00423,0.00393 -0.00329,0.00672 -0.016699,0.00621 -0.014821,-5.674e-4 -0.017836,-0.00337 -0.00769,-0.00714 z m 0.040554,-0.00626 c 0.011677,-0.010012 0.178119,-0.079066 0.178119,-0.073899 0,0.00704 -0.1138177,0.059559 -0.1526735,0.070443 -0.017494,0.0049 -0.028944,0.00646 -0.025446,0.00346 z M 1.2628913,3.3652545 c -0.023257,-0.013965 -0.00317,-0.013965 0.031807,0 0.016778,0.0067 0.018945,0.010381 0.00636,0.010809 -0.010496,3.57e-4 -0.027672,-0.00451 -0.038168,-0.010809 z m -0.089059,-0.035464 c -0.024491,-0.012458 -0.038804,-0.022652 -0.031807,-0.022652 0.007,0 0.032761,0.010193 0.057252,0.022652 0.024491,0.012458 0.038805,0.022651 0.031807,0.022651 -0.007,0 -0.032761,-0.010193 -0.057252,-0.022651 z m 1.860007,-0.029553 c 2.596e-4,-0.019505 0.00311,-0.026053 0.00634,-0.014552 0.00323,0.011502 0.00301,0.02746 -4.72e-4,0.035464 -0.00349,0.008 -0.00612,-0.00141 -0.00587,-0.020912 z M 1.0196102,3.2488999 C 0.92671541,3.1922479 0.77720135,3.0626906 0.7246547,2.9933144 c -0.0149521,-0.019741 0.0241747,0.014203 0.0869486,0.07543 0.0638681,0.062295 0.15609606,0.136859 0.2094126,0.1693053 0.099751,0.060704 0.1105346,0.068098 0.099316,0.068098 -0.00377,0 -0.049092,-0.025762 -0.1007217,-0.057248 z m 1.1593217,0.031004 c 0,-0.00232 0.027195,-0.024979 0.060433,-0.050361 0.033238,-0.025382 0.048983,-0.033913 0.034988,-0.018959 -0.024735,0.02643 -0.095421,0.077781 -0.095421,0.06932 z m 0.8671582,-0.056504 c 0,-0.016254 0.00289,-0.022904 0.00642,-0.014776 0.00353,0.00813 0.00353,0.021426 0,0.029553 -0.00353,0.00813 -0.00642,0.00148 -0.00642,-0.014777 z m 0.012723,-0.059106 c 0,-0.016254 0.00289,-0.022904 0.00642,-0.014776 0.00353,0.00813 0.00353,0.021426 0,0.029553 -0.00353,0.00813 -0.00642,0.00148 -0.00642,-0.014777 z m -0.47475,-0.088974 C 2.5256829,3.0192014 2.4761877,2.9688855 2.4740737,2.9635062 c -0.00211,-0.00538 0.010243,-0.040877 0.02746,-0.078884 0.093065,-0.2054445 0.09446,-0.5182656 0.00327,-0.7337703 C 2.4670413,2.0616025 2.4367312,2.0192277 2.3519231,1.9371145 2.197868,1.7879546 2.0293052,1.7298402 1.4728173,1.6340304 1.1583089,1.5798818 1.0161122,1.5435081 0.87529181,1.4811842 0.74037104,1.4214712 0.64525762,1.3544182 0.5796428,1.2727576 0.55366336,1.240425 0.52862418,1.2179198 0.52400018,1.2227459 c -0.004624,0.00483 -0.0185745,0.034161 -0.0310012,0.065189 -0.0124267,0.031028 -0.0247531,0.054408 -0.0273921,0.051956 -0.009778,-0.00909 0.0507033,-0.1379239 0.0647468,-0.1379239 0.008016,0 0.0242544,0.015224 0.0360844,0.033832 0.01183,0.018607 0.0590185,0.066434 0.10486342,0.1062804 0.14311011,0.1243861 0.3456209,0.2003747 0.6975522,0.261744 0.529353,0.092308 0.63304,0.1173254 0.7973554,0.1923851 0.1303391,0.059539 0.2525713,0.1668871 0.3152013,0.2768192 0.1231722,0.2161995 0.1387749,0.5717916 0.035455,0.8080447 -0.021922,0.050127 -0.028345,0.079164 -0.020451,0.092447 0.021347,0.035918 0.1886147,0.1817941 0.2032543,0.1772599 0.00798,-0.00247 0.036909,-0.066599 0.064285,-0.142505 0.05582,-0.1547721 0.083461,-0.2096529 0.1549915,-0.3077296 0.027171,-0.037255 0.052442,-0.075096 0.056156,-0.08409 0.00371,-0.00899 -0.00955,-0.042347 -0.029469,-0.074118 C 2.8449,2.3816952 2.8084805,2.2310786 2.8188486,2.0180059 2.8315028,1.7579517 2.8998674,1.5936982 3.05559,1.4492088 3.1687429,1.3442182 3.2782694,1.2837133 3.4545436,1.2288176 3.615267,1.1787648 3.7328306,1.1549806 4.1127953,1.0956471 4.7703051,0.99297363 4.9886913,0.90889988 5.2030044,0.67594145 l 0.052216,-0.0567584 0.020397,0.0366486 c 0.025695,0.0461681 0.026054,0.0669879 3.972e-4,0.0230462 -0.018069,-0.0309454 -0.043614,-0.0440371 -0.043614,-0.0223515 0,0.019106 -0.1058727,0.12193862 -0.1729372,0.1679714 C 4.9376644,0.90809989 4.7665539,0.97821408 4.5712599,1.0245437 4.4400913,1.0556609 4.395796,1.0635571 4.0682656,1.1142092 3.3529874,1.224826 3.0925845,1.3402948 2.9366625,1.6159893 c -0.078173,0.138222 -0.101294,0.2400433 -0.1019403,0.4489289 -6.514e-4,0.2104715 0.019707,0.2940431 0.108573,0.445695 0.027442,0.046831 0.049895,0.090666 0.049895,0.09741 0,0.00674 -0.026615,0.048222 -0.059144,0.092171 -0.072125,0.097446 -0.1086063,0.1708633 -0.168456,0.3390084 -0.025267,0.070987 -0.052564,0.1311101 -0.060661,0.1336078 -0.0081,0.0025 -0.062486,-0.041374 -0.1208665,-0.097492 z m 0.4872524,0.041689 c 0,-0.00975 0.00492,-0.028371 0.010934,-0.041374 0.00689,-0.014902 0.010934,-0.017087 0.010934,-0.00591 0,0.00975 -0.00492,0.028371 -0.010934,0.041374 -0.00689,0.014902 -0.010934,0.017087 -0.010934,0.00591 z m 0.024047,-0.076838 c 0,-0.0065 0.00555,-0.019801 0.012333,-0.029553 0.00678,-0.00975 0.012333,-0.012412 0.012333,-0.00591 0,0.0065 -0.00555,0.019801 -0.012333,0.029553 -0.00678,0.00975 -0.012333,0.012412 -0.012333,0.00591 z m 0.6391724,-0.00228 c 0.012379,-0.003 0.029555,-0.0028 0.038168,4.386e-4 0.00861,0.00324 -0.00151,0.00569 -0.022507,0.00545 -0.020993,-2.412e-4 -0.02804,-0.00289 -0.015661,-0.00589 z m 0.2923819,4.73e-5 c 0.012246,-0.00297 0.032284,-0.00297 0.04453,0 0.012246,0.00297 0.00223,0.00541 -0.022265,0.00541 -0.024491,0 -0.034511,-0.00243 -0.022265,-0.00541 z M 3.6515943,3.0264348 c 0.00875,-0.00328 0.02306,-0.00328 0.031807,0 0.00875,0.00328 0.00159,0.00596 -0.015903,0.00596 -0.017494,0 -0.02465,-0.00268 -0.015903,-0.00596 z m 0.4834659,0 c 0.00875,-0.00328 0.02306,-0.00328 0.031807,0 0.00875,0.00328 0.00159,0.00596 -0.015903,0.00596 -0.017494,0 -0.02465,-0.00268 -0.015904,-0.00596 z M 3.5720769,3.0106173 c -0.016039,-0.0064 -0.01839,-0.010159 -0.00636,-0.010159 0.010496,0 0.030535,0.00457 0.04453,0.010159 0.016039,0.0064 0.018391,0.01016 0.00636,0.01016 -0.010496,0 -0.030535,-0.00457 -0.04453,-0.01016 z m 0.6265972,0.00399 c 0.00875,-0.00328 0.02306,-0.00328 0.031807,0 0.00875,0.00328 0.00159,0.00596 -0.015904,0.00596 -0.017494,0 -0.02465,-0.00268 -0.015904,-0.00596 z m 0.064409,-0.012068 c 0.00918,-0.00341 0.020158,-0.00299 0.024385,9.327e-4 0.00423,0.00393 -0.00329,0.00672 -0.016699,0.00621 -0.014821,-5.674e-4 -0.017836,-0.00337 -0.00769,-0.00714 z M 3.4702946,2.9758004 c -0.02799,-0.012306 -0.045166,-0.022412 -0.038168,-0.022456 0.017352,-1.064e-4 0.1177505,0.043553 0.1017823,0.044265 -0.007,3.121e-4 -0.035624,-0.0095 -0.063614,-0.021809 z m 0.8436798,0.014921 c 0.00918,-0.00341 0.020158,-0.00299 0.024385,9.327e-4 0.00423,0.00393 -0.00329,0.00672 -0.016699,0.00621 -0.014821,-5.674e-4 -0.017836,-0.00337 -0.00769,-0.00714 z M 3.120418,2.9825635 c 0,-0.012767 0.050538,-0.1019798 0.05777,-0.1019798 0.0035,0 -0.00591,0.022608 -0.020907,0.05024 -0.029493,0.054341 -0.036863,0.064684 -0.036863,0.05174 z m 1.2850014,-0.017237 c 0.010496,-0.00603 0.033397,-0.014513 0.050891,-0.018861 0.022106,-0.00549 0.025986,-0.00456 0.012723,0.00305 -0.010496,0.00603 -0.033397,0.014513 -0.050891,0.018861 -0.022106,0.00549 -0.025986,0.00456 -0.012723,-0.00305 z M 0.68118199,2.9367346 c -0.0190738,-0.022915 -0.0310721,-0.04433 -0.0248371,-0.04433 0.003107,0 0.0150273,0.013299 0.0264897,0.029553 0.0214485,0.030415 0.020254,0.041095 -0.001653,0.014777 z M 3.3462475,2.9211072 c -0.047563,-0.023975 -0.044668,-0.033961 0.00318,-0.01097 0.020993,0.010086 0.038168,0.020862 0.038168,0.023946 0,0.00761 -0.00137,0.00718 -0.041348,-0.012976 z m 1.1492916,0.014094 c 0.012979,-0.010989 0.1388904,-0.066222 0.1388904,-0.060927 0,0.00667 -0.1215022,0.065415 -0.1352867,0.065415 -0.0049,0 -0.00652,-0.00202 -0.0036,-0.00449 z m -3.86878703,-0.07826 c -0.00749,-0.013003 -0.0107554,-0.023643 -0.007257,-0.023643 0.003499,0 0.0124895,0.010639 0.0199795,0.023643 0.00749,0.013003 0.0107554,0.023642 0.007257,0.023642 -0.003499,0 -0.0124895,-0.010639 -0.0199795,-0.023642 z m 2.56560713,-0.00296 c 0.00324,-0.00488 0.016672,-0.00887 0.029841,-0.00887 0.013169,0 0.026598,0.00399 0.029841,0.00887 0.00324,0.00488 -0.010185,0.00887 -0.029841,0.00887 -0.019656,0 -0.033085,-0.00399 -0.029841,-0.00887 z m 1.4611545,0.00668 c 0.007,-0.0063 0.052114,-0.037076 0.100259,-0.068393 C 4.876627,2.7123633 5.0147922,2.5787131 5.1062629,2.4513045 5.190479,2.3340007 5.2066985,2.3144154 5.1815046,2.3604491 5.1164289,2.4793543 4.9550142,2.65706 4.8231546,2.7549661 4.7386687,2.8176973 4.6171123,2.8934383 4.6535137,2.8606684 Z M 0.57523195,2.7730469 c -0.0146254,-0.026637 -0.0244095,-0.050458 -0.0217424,-0.052936 0.002667,-0.00248 0.0173053,0.019316 0.0325292,0.048431 0.0346733,0.066311 0.0252986,0.070227 -0.0107868,0.00451 z m -0.059679,-0.125573 c -0.0353117,-0.07793 -0.0833671,-0.2165773 -0.0770881,-0.2224113 0.002844,-0.00264 0.0213227,0.041584 0.0410648,0.09828 0.0197421,0.056696 0.0441899,0.1182072 0.0543283,0.136691 0.0101385,0.018484 0.0159288,0.035934 0.0128673,0.038779 -0.003061,0.00284 -0.017089,-0.020258 -0.0311723,-0.051339 z M 0.42519637,2.3840916 c 0,-0.016254 0.002888,-0.022904 0.006417,-0.014776 0.003529,0.00813 0.003529,0.021426 0,0.029553 -0.003529,0.00813 -0.006417,0.00148 -0.006417,-0.014777 z m -0.0203862,-0.077495 c -0.00479,-0.023723 -0.006164,-0.045498 -0.003054,-0.048387 0.00311,-0.00289 0.009574,0.014156 0.0143636,0.03788 0.00479,0.023723 0.006164,0.045498 0.003054,0.048387 -0.00311,0.00289 -0.009574,-0.014156 -0.0143636,-0.03788 z M 5.2222426,2.2720492 c 0.015224,-0.029115 0.029862,-0.050909 0.032529,-0.048431 0.00576,0.00535 -0.045653,0.1013667 -0.054272,0.1013667 -0.00327,0 0.00652,-0.023821 0.021742,-0.052936 z M 0.38797087,2.1949518 c 0,-0.022756 0.002618,-0.032065 0.005818,-0.020687 0.0032,0.011378 0.0032,0.029996 0,0.041374 -0.0032,0.011378 -0.005818,0.00207 -0.005818,-0.020687 z M 5.2709585,2.1772199 c 0,-0.0065 0.00555,-0.0198 0.012333,-0.029553 0.00678,-0.00975 0.012333,-0.012412 0.012333,-0.00591 0,0.0065 -0.00555,0.019801 -0.012333,0.029553 -0.00678,0.00975 -0.012333,0.012412 -0.012333,0.00591 z M 0.37576159,2.0767394 c 0,-0.029258 0.002481,-0.041227 0.005514,-0.026598 0.003033,0.014629 0.003033,0.038567 0,0.053196 -0.003033,0.014629 -0.005514,0.00266 -0.005514,-0.026598 z m 4.92754561,0.023642 c 0.00468,-0.016254 0.013814,-0.037532 0.020299,-0.047285 0.00819,-0.012323 0.0092,-0.00872 0.00328,0.011821 -0.00468,0.016254 -0.013814,0.037532 -0.020299,0.047285 -0.00819,0.012323 -0.0092,0.00872 -0.00328,-0.011821 z m 0.032664,-0.082749 c 0,-0.00975 0.00492,-0.028371 0.010934,-0.041374 0.00689,-0.014902 0.010934,-0.017087 0.010934,-0.00591 0,0.00975 -0.00492,0.028371 -0.010934,0.041374 -0.00689,0.014902 -0.010934,0.017087 -0.010934,0.00591 z m 0.024662,-0.089644 c 6.107e-4,-0.013771 0.00363,-0.016572 0.00769,-0.00714 0.00368,0.00853 0.00322,0.018729 -10e-4,0.022657 -0.00423,0.00393 -0.00723,-0.00305 -0.00668,-0.015515 z m 0.012723,-0.047285 c 6.107e-4,-0.013771 0.00363,-0.016572 0.00769,-0.00714 0.00368,0.00853 0.00322,0.018729 -0.001,0.022657 -0.00423,0.00393 -0.00723,-0.00305 -0.00668,-0.015515 z m 0.012723,-0.047285 c 6.107e-4,-0.013771 0.00363,-0.016572 0.00769,-0.00714 0.00368,0.00853 0.00322,0.018729 -0.001,0.022657 -0.00423,0.00393 -0.00723,-0.00305 -0.00668,-0.015515 z M 0.37610892,1.7575659 c 0,-0.035759 0.002385,-0.050388 0.0053,-0.032508 0.002915,0.01788 0.002915,0.047137 0,0.065017 -0.002915,0.01788 -0.0053,0.00325 -0.0053,-0.032509 z M 5.400277,1.7752978 c 2.595e-4,-0.019505 0.00311,-0.026053 0.00634,-0.014552 0.00323,0.011502 0.00301,0.02746 -4.72e-4,0.035464 -0.00349,0.008 -0.00612,-0.00141 -0.00587,-0.020912 z m 0.013194,-0.076838 c 0,-0.022756 0.00262,-0.032065 0.00582,-0.020687 0.0032,0.011378 0.0032,0.029996 0,0.041374 -0.0032,0.011378 -0.00582,0.00207 -0.00582,-0.020687 z M 0.38749944,1.6452642 c 2.5929e-4,-0.019505 0.003111,-0.026053 0.006336,-0.014552 0.003226,0.011502 0.003014,0.02746 -4.7138e-4,0.035464 -0.003485,0.008 -0.006124,-0.00141 -0.005865,-0.020912 z M 5.4267074,1.5920686 c 0,-0.029258 0.00248,-0.041227 0.00551,-0.026598 0.00303,0.014629 0.00303,0.038567 0,0.053196 -0.00303,0.014629 -0.00551,0.00266 -0.00551,-0.026598 z M 0.40022223,1.5743367 c 2.5929e-4,-0.019505 0.003111,-0.026053 0.006336,-0.014551 0.003226,0.011502 0.003014,0.02746 -4.7138e-4,0.035464 -0.003485,0.008 -0.006124,-0.00141 -0.005865,-0.020912 z m 0.0122513,-0.065017 c 0,-0.016254 0.002888,-0.022904 0.006417,-0.014776 0.003529,0.00813 0.003529,0.021426 0,0.029553 -0.003529,0.00813 -0.006417,0.00148 -0.006417,-0.014777 z m 0.0125024,-0.047285 c 0,-0.00975 0.00492,-0.028371 0.0109343,-0.041374 0.006892,-0.014902 0.0109343,-0.017087 0.0109343,-0.00591 0,0.00975 -0.00492,0.028371 -0.0109343,0.041374 -0.006892,0.014902 -0.0109343,0.017087 -0.0109343,0.00591 z m 0.0246615,-0.089644 c 6.1044e-4,-0.013771 0.003625,-0.016572 0.007687,-0.00714 0.003675,0.00853 0.003223,0.018729 -0.001004,0.022657 -0.004228,0.00393 -0.007235,-0.00305 -0.006682,-0.015515 z M 5.4264507,1.2315208 c 1.412e-4,-0.026007 0.00275,-0.035254 0.00579,-0.020549 0.00304,0.014704 0.00293,0.035983 -2.57e-4,0.047285 -0.00318,0.011302 -0.00567,-7.289e-4 -0.00553,-0.026736 z M 5.4129997,1.1251296 c 2.596e-4,-0.019505 0.00311,-0.026053 0.00634,-0.014552 0.00323,0.011502 0.00301,0.02746 -4.72e-4,0.035464 -0.00348,0.008 -0.00612,-0.00141 -0.00586,-0.020912 z m -0.013194,-0.065017 c 0,-0.016254 0.00289,-0.022904 0.00642,-0.014776 0.00353,0.00813 0.00353,0.021426 0,0.029553 -0.00353,0.00813 -0.00642,0.00148 -0.00642,-0.014777 z m -0.012723,-0.059106 c 0,-0.0162542 0.00289,-0.0229036 0.00642,-0.0147765 0.00353,0.008127 0.00353,0.021426 0,0.0295531 -0.00353,0.00813 -0.00642,0.00148 -0.00642,-0.014777 z M 5.3733557,0.946826 c 6.107e-4,-0.0137711 0.00363,-0.0165722 0.00769,-0.007142 0.00368,0.008533 0.00322,0.0187293 -10e-4,0.0226574 -0.00423,0.003928 -0.00723,-0.003054 -0.00668,-0.0155154 z M 5.3606328,0.899541 c 6.107e-4,-0.0137711 0.00363,-0.0165722 0.00769,-0.007142 0.00368,0.008533 0.00322,0.0187293 -10e-4,0.0226574 -0.00423,0.003928 -0.00723,-0.003054 -0.00668,-0.0155154 z M 5.3101508,0.76326838 c -0.00784,-0.0208912 -0.012025,-0.0400528 -0.0093,-0.0425812 0.00272,-0.002528 0.011361,0.0124957 0.019199,0.0333869 0.00784,0.0208912 0.012025,0.0400528 0.0093,0.0425812 -0.00272,0.002528 -0.011361,-0.0124957 -0.019199,-0.0333869 z"
         id="path10948" />
      <path
         style="fill:#7aaf41;stroke-width:0.0122637"
         d="m 2.6242603,3.9592718 c 1.27e-5,-0.024381 0.00583,-0.1149257 0.012911,-0.2012096 0.011379,-0.1385914 0.010404,-0.1613296 -0.00836,-0.1950504 -0.017863,-0.032103 -0.018135,-0.035778 -0.00171,-0.023121 0.01715,0.013218 0.020819,0.00386 0.030136,-0.076838 0.00583,-0.050539 0.00929,-0.1020412 0.00768,-0.1144504 C 2.6608087,3.3170065 2.5450638,3.1887743 2.4121641,3.0685843 2.2636146,2.9342411 2.0983049,2.8219571 1.7972483,2.6509121 1.6607965,2.5733871 1.4890389,2.4753752 1.4155648,2.4331079 0.95067597,2.1656718 0.72254439,1.9284156 0.60919708,1.5944881 0.5786241,1.5044184 0.56355676,1.4326079 0.54353245,1.2815323 0.5387083,1.245136 0.53114273,1.227976 0.52218752,1.2331185 c -0.008876,0.0051 -0.010175,0.00241 -0.003607,-0.00747 0.007605,-0.011434 0.0169017,-0.00655 0.0358784,0.018861 0.0648805,0.086866 0.17762645,0.1714276 0.30584331,0.2293867 0.15280507,0.069074 0.28622207,0.1039534 0.61251507,0.1601309 0.5564879,0.09581 0.7250507,0.1539242 0.8791058,0.3030841 0.084808,0.082113 0.1151182,0.124488 0.1528827,0.2137371 0.091779,0.2169031 0.090494,0.514162 -0.00317,0.7328114 l -0.034234,0.079917 0.1006781,0.097401 c 0.112617,0.1089515 0.1302827,0.1219953 0.1455825,0.107492 0.00585,-0.00555 0.028546,-0.062169 0.050425,-0.1258201 0.052771,-0.153522 0.098574,-0.2457695 0.1700392,-0.3424586 0.032484,-0.04395 0.059062,-0.085427 0.059062,-0.092171 0,-0.00674 -0.022453,-0.050579 -0.049895,-0.09741 C 2.8544294,2.3589613 2.8340711,2.2753897 2.8347222,2.0649182 2.8353685,1.8560326 2.8584895,1.7542113 2.9366625,1.6159893 3.0925845,1.3402948 3.3529874,1.224826 4.0682656,1.1142092 4.5708884,1.0364793 4.7165344,1.0007656 4.9171025,0.90606637 5.0466259,0.84491131 5.1845373,0.73767504 5.2300008,0.66276501 c 0.011521,-0.0189833 0.016025,-0.0198466 0.030233,-0.005795 0.011157,0.0110334 0.011544,0.0138142 0.00117,0.008382 -0.017845,-0.00934 -0.023865,0.0112801 -0.035426,0.12135782 C 5.2137898,0.90275751 5.1630548,1.0723288 5.1076589,1.1821628 5.0095597,1.3766603 4.8986993,1.501917 4.6789593,1.6665297 4.5007427,1.800036 4.3562216,1.8853829 4.0046516,2.0647417 3.4642565,2.3404325 3.2650134,2.4863016 3.0641172,2.753322 2.9488027,2.9065917 2.8828222,3.083477 2.841071,3.3512806 2.8143484,3.522686 2.7827355,3.9718581 2.7959917,3.9917874 c 0.00495,0.00744 -0.025355,0.011814 -0.081952,0.011814 h -0.08981 l 2.54e-5,-0.04433 z M 2.9970027,3.6489642 c 0,-0.035759 0.00239,-0.050388 0.0053,-0.032508 0.00292,0.01788 0.00292,0.047137 0,0.065017 -0.00292,0.01788 -0.0053,0.00325 -0.0053,-0.032508 z m 0.011391,-0.1950504 c 2.595e-4,-0.019505 0.00311,-0.026053 0.00634,-0.014552 0.00323,0.011502 0.00301,0.02746 -4.72e-4,0.035464 -0.00349,0.008 -0.00612,-0.00141 -0.00587,-0.020912 z m -1.379386,-0.038224 c 0.029924,-0.0025 0.075727,-0.00246 0.1017823,8.28e-5 0.026056,0.00254 0.00157,0.00458 -0.054408,0.00454 -0.05598,-4.73e-5 -0.077299,-0.00212 -0.047374,-0.00462 z M 1.489516,3.4044642 c 0.00918,-0.00341 0.020158,-0.00299 0.024385,9.327e-4 0.00423,0.00393 -0.00329,0.00672 -0.016699,0.00621 -0.014821,-5.674e-4 -0.017836,-0.00337 -0.00769,-0.00714 z m 1.5301242,-0.069748 c 6.107e-4,-0.013771 0.00363,-0.016572 0.00769,-0.00714 0.00368,0.00853 0.00322,0.018729 -0.001,0.022657 -0.00423,0.00393 -0.00723,-0.00305 -0.00668,-0.015515 z m 0.012723,-0.082749 c 6.107e-4,-0.013771 0.00363,-0.016572 0.00769,-0.00714 0.00368,0.00853 0.00322,0.018729 -10e-4,0.022657 -0.00423,0.00393 -0.00723,-0.00305 -0.00668,-0.015515 z m -0.6697511,-0.043344 -0.037368,-0.038419 0.041349,0.03472 c 0.038543,0.032364 0.047197,0.042118 0.037368,0.042118 -0.00219,0 -0.020797,-0.017289 -0.041349,-0.038419 z M 0.93047601,3.17907 c -0.0158255,-0.018749 -0.0153755,-0.019167 0.004804,-0.00446 0.0122457,0.00892 0.0222649,0.018232 0.0222649,0.020687 0,0.00973 -0.0104478,0.00347 -0.0270685,-0.016224 z M 3.8360747,3.0373919 c 0.033238,-0.00244 0.087628,-0.00244 0.1208665,0 0.033238,0.00244 0.00604,0.00443 -0.060433,0.00443 -0.066477,0 -0.093672,-0.00199 -0.060433,-0.00443 z M 0.75235707,3.0135726 c -0.0158255,-0.018749 -0.0153755,-0.019167 0.004804,-0.00446 0.0122457,0.00892 0.0222649,0.018233 0.0222649,0.020687 0,0.00973 -0.0104478,0.00347 -0.0270684,-0.016224 z m 2.95092363,0.012612 c 0.00918,-0.00341 0.020158,-0.00299 0.024385,9.327e-4 0.00423,0.00393 -0.00329,0.00672 -0.016699,0.00621 -0.014821,-5.674e-4 -0.017836,-0.00337 -0.00769,-0.00714 z m 0.3808883,2.459e-4 c 0.00875,-0.00328 0.02306,-0.00328 0.031807,0 0.00875,0.00328 0.00159,0.00596 -0.015904,0.00596 -0.017494,0 -0.02465,-0.00268 -0.015903,-0.00596 z M 4.8888852,2.6877449 c 0,-0.00203 0.018607,-0.019323 0.041349,-0.038419 l 0.041349,-0.03472 -0.037368,0.038419 c -0.034832,0.035812 -0.04533,0.043853 -0.04533,0.03472 z M 0.39874636,2.2353411 c 6.1044e-4,-0.013771 0.003625,-0.016572 0.007687,-0.00714 0.003675,0.00853 0.003223,0.018729 -0.001004,0.022657 -0.004228,0.00393 -0.007235,-0.00305 -0.006682,-0.015515 z m -0.0127228,-0.09457 c 6.1044e-4,-0.013771 0.003625,-0.016572 0.007687,-0.00714 0.003675,0.00853 0.003223,0.018729 -0.001004,0.022657 -0.004228,0.00393 -0.007235,-0.00305 -0.006682,-0.015515 z m -0.009141,-0.2177079 c 0,-0.061766 0.002144,-0.087034 0.004765,-0.056151 0.002621,0.030883 0.002621,0.081419 0,0.1123018 -0.002621,0.030883 -0.004765,0.00562 -0.004765,-0.056151 z m 0.0101451,-0.2246035 c 0,-0.016254 0.002888,-0.022904 0.006417,-0.014777 0.003529,0.00813 0.003529,0.021426 0,0.029553 -0.003529,0.00813 -0.006417,0.00148 -0.006417,-0.014776 z M 5.4115239,1.6442791 c 6.107e-4,-0.013771 0.00363,-0.016572 0.00769,-0.00714 0.00368,0.00853 0.00322,0.018729 -0.001,0.022657 -0.00423,0.00393 -0.00723,-0.00305 -0.00668,-0.015515 z m 0.016575,-0.2354397 c 2.54e-5,-0.07802 0.00208,-0.1083992 0.00458,-0.067509 0.00249,0.04089 0.00247,0.104725 -5.09e-5,0.1418549 -0.00251,0.03713 -0.00455,0.00367 -0.00452,-0.074346 z M 5.4125282,1.1783252 c 0,-0.016254 0.00289,-0.022904 0.00642,-0.014776 0.00353,0.00813 0.00353,0.021426 0,0.029553 -0.00353,0.00813 -0.00642,0.00148 -0.00642,-0.014777 z"
         id="path10946" />
      <path
         style="fill:#eb6a00;stroke-width:0.0122637"
         d="M 1.689133,6.6329358 C 1.6389002,6.6085997 1.6075441,6.5815013 1.5870884,6.5447475 1.5778963,6.5282314 1.495079,6.1292521 1.4030501,5.6581266 1.3110213,5.1870013 1.2329867,4.7908959 1.2296398,4.7778926 1.2235923,4.754396 1.2284045,4.7542865 2.0097709,4.7601607 l 0.7862161,0.00591 0.00326,0.9427439 0.00326,0.9427438 -0.5376138,-7.09e-5 C 1.8022184,6.651429 1.7219562,6.6488394 1.689133,6.6329377 Z m 2.2338807,-0.00836 c 0.00292,-0.00184 0.016752,-0.011149 0.030747,-0.020687 0.023537,-0.016042 0.024136,-0.015791 0.00798,0.00335 -0.0096,0.011378 -0.02344,0.020687 -0.030747,0.020687 -0.00731,0 -0.0109,-0.00151 -0.00798,-0.00335 z M 4.0384674,6.4742404 c 0,-0.016254 0.00289,-0.022904 0.00642,-0.014776 0.00353,0.00813 0.00353,0.021426 0,0.029553 -0.00353,0.00813 -0.00642,0.00148 -0.00642,-0.014777 z m 0.012723,-0.059106 c 0,-0.016254 0.00289,-0.022904 0.00642,-0.014776 0.00353,0.00813 0.00353,0.021426 0,0.029553 -0.00353,0.00813 -0.00642,0.00148 -0.00642,-0.014777 z m 0.012723,-0.070927 c 0,-0.016254 0.00289,-0.022904 0.00642,-0.014777 0.00353,0.00813 0.00353,0.021426 0,0.029553 -0.00353,0.00813 -0.00642,0.00148 -0.00642,-0.014776 z m 0.012723,-0.059106 c 0,-0.016254 0.00289,-0.022904 0.00642,-0.014777 0.00353,0.00813 0.00353,0.021426 0,0.029553 -0.00353,0.00813 -0.00642,0.00148 -0.00642,-0.014776 z m 0.012723,-0.070927 c 0,-0.016254 0.00289,-0.022904 0.00642,-0.014776 0.00353,0.00813 0.00353,0.021426 0,0.029553 -0.00353,0.00813 -0.00642,0.00148 -0.00642,-0.014777 z m 0.012723,-0.059106 c 0,-0.016254 0.00289,-0.022904 0.00642,-0.014777 0.00353,0.00813 0.00353,0.021426 0,0.029553 -0.00353,0.00813 -0.00642,0.00148 -0.00642,-0.014776 z m 0.012723,-0.070927 c 0,-0.016254 0.00289,-0.022904 0.00642,-0.014776 0.00353,0.00813 0.00353,0.021426 0,0.029553 -0.00353,0.00813 -0.00642,0.00148 -0.00642,-0.014777 z m 0.012723,-0.059106 c 0,-0.016254 0.00289,-0.022904 0.00642,-0.014776 0.00353,0.00813 0.00353,0.021426 0,0.029553 -0.00353,0.00813 -0.00642,0.00148 -0.00642,-0.014777 z m 0.012723,-0.070927 c 0,-0.016254 0.00289,-0.022904 0.00642,-0.014777 0.00353,0.00813 0.00353,0.021426 0,0.029553 -0.00353,0.00813 -0.00642,0.00148 -0.00642,-0.014776 z m 0.012723,-0.059106 c 0,-0.016254 0.00289,-0.022904 0.00642,-0.014777 0.00353,0.00813 0.00353,0.021426 0,0.029553 -0.00353,0.00813 -0.00642,0.00148 -0.00642,-0.014776 z m 0.012723,-0.070927 c 0,-0.016254 0.00289,-0.022904 0.00642,-0.014777 0.00353,0.00813 0.00353,0.021426 0,0.029553 -0.00353,0.00813 -0.00642,0.00148 -0.00642,-0.014776 z m 0.012723,-0.059106 c 0,-0.016254 0.00289,-0.022904 0.00642,-0.014777 0.00353,0.00813 0.00353,0.021426 0,0.029553 -0.00353,0.00813 -0.00642,0.00148 -0.00642,-0.014776 z m 0.012723,-0.070927 c 0,-0.016254 0.00289,-0.022904 0.00642,-0.014776 0.00353,0.00813 0.00353,0.021426 0,0.029553 -0.00353,0.00813 -0.00642,0.00148 -0.00642,-0.014777 z m 0.012723,-0.059106 c 0,-0.016254 0.00289,-0.022904 0.00642,-0.014776 0.00353,0.00813 0.00353,0.021426 0,0.029553 -0.00353,0.00813 -0.00642,0.00148 -0.00642,-0.014777 z m 0.012723,-0.070927 c 0,-0.016254 0.00289,-0.022904 0.00642,-0.014777 0.00353,0.00813 0.00353,0.021426 0,0.029553 -0.00353,0.00813 -0.00642,0.00148 -0.00642,-0.014776 z m 0.013194,-0.065017 c 2.595e-4,-0.019505 0.00311,-0.026053 0.00634,-0.014552 0.00323,0.011502 0.00301,0.02746 -4.72e-4,0.035464 -0.00349,0.008 -0.00612,-0.00141 -0.00587,-0.020912 z m 0.012251,-0.065017 c 0,-0.016254 0.00289,-0.022904 0.00642,-0.014777 0.00353,0.00813 0.00353,0.021426 0,0.029553 -0.00353,0.00813 -0.00642,0.00148 -0.00642,-0.014776 z m 0.013194,-0.065017 c 2.595e-4,-0.019505 0.00311,-0.026053 0.00634,-0.014552 0.00323,0.011502 0.00301,0.02746 -4.72e-4,0.035464 -0.00349,0.008 -0.00612,-0.00141 -0.00587,-0.020912 z m 0.012251,-0.065017 c 0,-0.016254 0.00289,-0.022904 0.00642,-0.014776 0.00353,0.00813 0.00353,0.021426 0,0.029553 -0.00353,0.00813 -0.00642,0.00148 -0.00642,-0.014777 z m 0.013194,-0.065017 c 2.596e-4,-0.019505 0.00311,-0.026053 0.00634,-0.014552 0.00323,0.011502 0.00301,0.02746 -4.72e-4,0.035464 -0.00349,0.008 -0.00612,-0.00141 -0.00587,-0.020912 z m 0.012251,-0.065017 c 0,-0.016254 0.00289,-0.022904 0.00642,-0.014777 0.00353,0.00813 0.00353,0.021426 0,0.029553 -0.00353,0.00813 -0.00642,0.00148 -0.00642,-0.014776 z m 0.013194,-0.065017 c 2.595e-4,-0.019505 0.00311,-0.026053 0.00634,-0.014552 0.00323,0.011502 0.00301,0.02746 -4.721e-4,0.035464 -0.00349,0.008 -0.00612,-0.00141 -0.00587,-0.020912 z m 0.012251,-0.065017 c 0,-0.016254 0.00289,-0.022904 0.00642,-0.014777 0.00353,0.00813 0.00353,0.021426 0,0.029553 -0.00353,0.00813 -0.00642,0.00148 -0.00642,-0.014776 z m 0.013194,-0.065017 c 2.595e-4,-0.019505 0.00311,-0.026053 0.00634,-0.014551 0.00323,0.011502 0.00301,0.02746 -4.72e-4,0.035464 -0.00349,0.008 -0.00612,-0.00141 -0.00587,-0.020912 z m 0.012251,-0.065017 c 0,-0.016254 0.00289,-0.022904 0.00642,-0.014776 0.00353,0.00813 0.00353,0.021426 0,0.029553 -0.00353,0.00813 -0.00642,0.00148 -0.00642,-0.014777 z M 4.3570085,4.84882 c 2.596e-4,-0.019505 0.00311,-0.026053 0.00634,-0.014552 0.00323,0.011502 0.00301,0.02746 -4.72e-4,0.035464 -0.00349,0.008 -0.00612,-0.00141 -0.00587,-0.020912 z m 0.012251,-0.065017 c 0,-0.016254 0.00289,-0.022904 0.00642,-0.014777 0.00353,0.00813 0.00353,0.021426 0,0.029553 -0.00353,0.00813 -0.00642,0.00148 -0.00642,-0.014776 z m 0.013194,-0.065017 c 2.596e-4,-0.019505 0.00311,-0.026053 0.00634,-0.014552 0.00323,0.011502 0.00301,0.02746 -4.72e-4,0.035464 -0.00349,0.008 -0.00612,-0.00141 -0.00587,-0.020912 z M 1.214009,4.7128758 c 0,-0.016254 0.00289,-0.022904 0.00642,-0.014777 0.00353,0.00813 0.00353,0.021426 0,0.029553 -0.00353,0.00813 -0.00642,0.00148 -0.00642,-0.014776 z M 1.201286,4.6537698 c 0,-0.016254 0.00289,-0.022904 0.00642,-0.014777 0.00353,0.00813 0.00353,0.021426 0,0.029553 -0.00353,0.00813 -0.00642,0.00148 -0.00642,-0.014776 z m 3.1934192,0 c 0,-0.016254 0.00289,-0.022904 0.00642,-0.014777 0.00353,0.00813 0.00353,0.021426 0,0.029553 -0.00353,0.00813 -0.00642,0.00148 -0.00642,-0.014776 z m -3.2089331,-0.05798 c -0.00404,-0.02057 -0.01954,-0.0329 -0.056091,-0.044612 C 1.0640501,4.5301479 1.011452,4.4825114 0.99570331,4.4298381 0.97930568,4.3749941 0.97954537,4.1988288 0.99609263,4.1434735 1.0119872,4.0903023 1.08237,4.0305064 1.1385719,4.0224259 c 0.022892,-0.00329 0.4538393,-0.00754 0.9576616,-0.00945 0.5038224,-0.00191 0.8689122,-0.00192 0.8113108,-3.54e-5 l -0.1047297,0.00343 -0.00341,0.2743693 -0.00341,0.2743697 -0.7974824,0.00304 -0.7974824,0.00304 -0.00484,0.026509 c -0.00478,0.02621 -0.0049,0.026188 -0.010414,-0.00192 z m 3.2196471,-4.285e-4 c 0,-0.01262 0.0049,-0.025758 0.010885,-0.029195 0.00599,-0.00344 0.00818,0.00689 0.00488,0.022945 -0.00718,0.034878 -0.015763,0.038283 -0.015763,0.00625 z m 0.048506,-0.044237 c 0.00918,-0.00341 0.020158,-0.00299 0.024385,9.327e-4 0.00423,0.00393 -0.00329,0.00672 -0.016699,0.00621 -0.014821,-5.674e-4 -0.017836,-0.00337 -0.00769,-0.00714 z m 0.040554,-0.00839 c 0,-0.00256 0.00889,-0.00781 0.019745,-0.011686 0.011322,-0.00404 0.016429,-0.00206 0.011972,0.00465 -0.00747,0.011233 -0.031717,0.016614 -0.031717,0.00704 z m 0.071375,-0.04206 c 0.00777,-0.010071 0.020475,-0.02895 0.028239,-0.041954 0.00776,-0.013003 0.014291,-0.01729 0.014504,-0.00953 2.125e-4,0.00776 -0.012495,0.026644 -0.028239,0.041954 -0.015745,0.01531 -0.022271,0.019596 -0.014504,0.00953 z m 0.048033,-0.2133617 c 0,-0.081271 0.00203,-0.1145182 0.00452,-0.073883 0.00248,0.040636 0.00248,0.10713 0,0.1477655 -0.00248,0.040635 -0.00452,0.00739 -0.00452,-0.073882 z M 4.5907177,4.1134577 c -0.0069,-0.016848 -0.00544,-0.018205 0.00712,-0.00662 0.00869,0.00802 0.012604,0.017557 0.00869,0.021197 -0.00392,0.00364 -0.011031,-0.00292 -0.015809,-0.014579 z m -0.034248,-0.047795 c -0.015826,-0.018749 -0.015375,-0.019167 0.0048,-0.00446 0.021193,0.015443 0.027933,0.02515 0.017461,0.02515 -0.00264,0 -0.012661,-0.00931 -0.022265,-0.020687 z m -0.049268,-0.026598 c -0.011467,-0.00689 -0.013036,-0.011532 -0.00393,-0.01164 0.00833,-9.46e-5 0.018691,0.00514 0.023016,0.01164 0.00976,0.014676 0.00536,0.014676 -0.019084,0 z M 3.3853241,4.0183836 c 0.2051775,-0.00183 0.5372422,-0.00183 0.7379216,3e-6 0.2006795,0.00183 0.032807,0.00332 -0.3730498,0.00332 -0.4058568,-1.6e-6 -0.5700491,-0.0015 -0.3648718,-0.00332 z"
         id="path10944" />
      <path
         style="fill:#71a63c;stroke-width:0.0122637"
         d="M 2.7959917,3.9917874 C 2.7827355,3.9718581 2.8143484,3.522686 2.841071,3.3512806 2.8828222,3.083477 2.9488027,2.9065917 3.0641172,2.753322 3.2650134,2.4863016 3.4642565,2.3404325 4.0046516,2.0647417 4.3562216,1.8853829 4.5007427,1.800036 4.6789593,1.6665297 4.8986993,1.501917 5.0095597,1.3766603 5.1076553,1.1821629 5.1630507,1.0723289 5.2137861,0.90275758 5.2259742,0.7867099 5.2364909,0.68657568 5.2438441,0.65606084 5.2558018,0.66292744 5.2688199,0.67040298 5.2387995,0.86323242 5.2059289,0.98327478 5.1744562,1.0982117 5.0746436,1.2965753 4.9981948,1.3961171 4.8925706,1.5336475 4.6238604,1.7480051 4.3851931,1.8851256 4.3298409,1.9169269 4.16146,2.0055244 4.011013,2.0820088 3.5031795,2.3401823 3.3119508,2.4771815 3.1034134,2.7322269 2.9874374,2.8740677 2.9100486,3.0669541 2.8660334,3.3238801 2.83879,3.4829064 2.8097785,3.8471643 2.8168236,3.9417419 c 0.00436,0.058466 -0.00318,0.076577 -0.020832,0.050046 z m 0.1892349,-0.112309 c 2.55e-5,-0.071518 0.00212,-0.099252 0.00466,-0.06163 0.00253,0.037622 0.00251,0.096137 -5.09e-5,0.1300336 -0.00256,0.033896 -0.00463,0.00311 -0.0046,-0.068404 z m 0.011172,-0.3309947 c 1.412e-4,-0.026007 0.00275,-0.035254 0.00579,-0.020549 0.00304,0.014705 0.00293,0.035983 -2.57e-4,0.047285 -0.00318,0.011302 -0.00567,-7.294e-4 -0.00553,-0.026736 z m -0.3670614,-0.00711 c -0.027747,-0.033077 -0.03231,-0.045971 -0.013955,-0.039426 0.013837,0.00493 0.019907,-0.011623 0.026638,-0.07267 0.00815,-0.073877 0.00639,-0.082181 -0.026801,-0.1266834 C 2.5552746,3.2222219 2.3449931,3.0241766 2.2368899,2.9462805 2.0962451,2.8449359 1.9563466,2.7598625 1.6052102,2.5621513 1.2526424,2.363634 1.1162361,2.275364 0.97438514,2.1539377 0.73047248,1.9451449 0.57822509,1.6765198 0.53573236,1.3799794 c -0.00835,-0.058268 -0.0199121,-0.1032255 -0.0256946,-0.099905 -0.0165776,0.00952 -0.0122735,-0.012245 0.007353,-0.037185 0.0164235,-0.020869 0.0185031,-0.017948 0.0257405,0.03616 0.0207685,0.1552642 0.0353848,0.2250522 0.0660654,0.3154388 0.11334731,0.3339275 0.34147889,0.5711837 0.80636774,0.8386198 0.073474,0.042267 0.2452317,0.1402792 0.3816835,0.2178042 0.3010566,0.171045 0.4663663,0.283329 0.6149158,0.4176722 0.1132738,0.1024411 0.2407844,0.2402403 0.2526423,0.2730277 0.00353,0.00975 1.145e-4,0.062409 -0.00759,0.1170137 -0.010651,0.075495 -0.017329,0.095321 -0.027875,0.082749 z M 3.0079218,3.4007182 c 0,-0.016254 0.00289,-0.022904 0.00642,-0.014776 0.00353,0.00813 0.00353,0.021426 0,0.029553 -0.00353,0.00813 -0.00642,0.00148 -0.00642,-0.014777 z m -1.4802375,0.00375 c 0.00918,-0.00341 0.020158,-0.00299 0.024385,9.327e-4 0.00423,0.00393 -0.00329,0.00672 -0.016699,0.00621 -0.014821,-5.674e-4 -0.017836,-0.00337 -0.00769,-0.00714 z m 0.2671785,0 c 0.00918,-0.00341 0.020158,-0.00299 0.024385,9.327e-4 0.00423,0.00393 -0.00329,0.00672 -0.016699,0.00621 -0.014821,-5.674e-4 -0.017836,-0.00337 -0.00769,-0.00714 z M 1.4386248,3.392643 c 0.00918,-0.00341 0.020158,-0.00299 0.024385,9.327e-4 0.00423,0.00393 -0.00329,0.00672 -0.016699,0.00621 -0.014821,-5.674e-4 -0.017836,-0.00337 -0.00769,-0.00714 z M 1.3750108,3.380822 c 0.00918,-0.00341 0.020158,-0.003 0.024385,9.327e-4 0.00423,0.00393 -0.00329,0.00672 -0.016699,0.00621 -0.014821,-5.674e-4 -0.017836,-0.00337 -0.00769,-0.00714 z M 2.4894313,3.338657 2.4651943,3.312059 2.4938203,3.334578 c 0.026902,0.021163 0.034418,0.030676 0.024237,0.030676 -0.00241,0 -0.015296,-0.011969 -0.028626,-0.026597 z M 2.0145958,3.349026 c 0.013092,-0.010885 0.087999,-0.042869 0.087999,-0.037574 0,0.00681 -0.070533,0.041981 -0.084187,0.041981 -0.00501,0 -0.00673,-0.00198 -0.00381,-0.00441 z M 3.0196401,3.299252 c 6.107e-4,-0.013771 0.00363,-0.016572 0.00769,-0.00714 0.00368,0.00853 0.00322,0.018729 -10e-4,0.022657 -0.00423,0.00393 -0.00723,-0.00305 -0.00668,-0.015515 z M 2.4324245,3.273639 2.4015805,3.241131 2.4365685,3.269789 c 0.032701,0.026786 0.040822,0.036358 0.030844,0.036358 -0.00228,0 -0.018023,-0.014629 -0.034988,-0.032508 z M 2.1916546,3.254399 c 0,-0.00245 0.010019,-0.011764 0.022265,-0.020687 0.020179,-0.014704 0.020629,-0.014286 0.0048,0.00446 -0.016621,0.019691 -0.027068,0.025953 -0.027068,0.016224 z m 0.075374,-0.057598 c 0.016964,-0.01788 0.039865,-0.032088 0.050891,-0.031575 0.017166,7.991e-4 0.017305,0.00186 9.631e-4,0.00742 -0.010496,0.00357 -0.033397,0.017774 -0.050891,0.031575 L 2.2361847,3.229314 2.2670287,3.196806 Z M 0.95592178,3.190891 c -0.0158255,-0.018749 -0.0153755,-0.019167 0.004804,-0.00446 0.0122457,0.00892 0.0222649,0.018233 0.0222649,0.020687 0,0.00973 -0.0104478,0.00347 -0.0270685,-0.016224 z m -0.11331676,-0.09457 -0.0695407,-0.067972 0.073156,0.064613 c 0.0679642,0.060027 0.0789842,0.071331 0.0695407,0.071331 -0.001988,0 -0.0349086,-0.030587 -0.073156,-0.067972 z M 3.741449,3.0261846 c 0.00918,-0.00341 0.020158,-0.00299 0.024385,9.327e-4 0.00423,0.00393 -0.00329,0.00672 -0.016699,0.00621 -0.014821,-5.674e-4 -0.017836,-0.00337 -0.00769,-0.00714 z m 0.3053469,0 c 0.00918,-0.00341 0.020158,-0.00299 0.024385,9.327e-4 0.00423,0.00393 -0.00329,0.00672 -0.016699,0.00621 -0.014821,-5.674e-4 -0.017836,-0.00337 -0.00769,-0.00714 z M 0.73963429,2.9899301 c -0.0158255,-0.018749 -0.0153755,-0.019167 0.004804,-0.00446 0.0122457,0.00892 0.0222649,0.018232 0.0222649,0.020687 0,0.00973 -0.0104478,0.00347 -0.0270684,-0.016224 z m 3.47255781,0.012612 c 0.00918,-0.00341 0.020158,-0.00299 0.024385,9.327e-4 0.00423,0.00393 -0.00329,0.00672 -0.016699,0.00621 -0.014821,-5.674e-4 -0.017836,-0.00337 -0.00769,-0.00714 z M 0.70146593,2.9426452 c -0.0158255,-0.018749 -0.0153755,-0.019167 0.004804,-0.00446 0.0122457,0.00892 0.0222649,0.018232 0.0222649,0.020687 0,0.00973 -0.0104478,0.00347 -0.0270684,-0.016224 z M 3.2714685,2.8598965 c -0.015825,-0.018749 -0.015375,-0.019167 0.0048,-0.00446 0.021193,0.015443 0.027933,0.02515 0.017461,0.02515 -0.00264,0 -0.012661,-0.00931 -0.022265,-0.020687 z m 1.4901889,-0.078346 c 0,-0.00245 0.010019,-0.011764 0.022265,-0.020687 0.020179,-0.014704 0.020629,-0.014286 0.0048,0.00446 -0.016621,0.019691 -0.027069,0.025953 -0.027069,0.016224 z m 0.063614,-0.046073 c 0,-0.00179 0.044371,-0.043015 0.098602,-0.091615 l 0.098602,-0.088363 -0.095103,0.091615 c -0.088329,0.08509 -0.1021007,0.097008 -0.102101,0.088363 z m 0.209926,-0.2095311 c 0.012665,-0.013003 0.025891,-0.023642 0.029389,-0.023642 0.0035,0 -0.004,0.010639 -0.016667,0.023642 -0.012665,0.013003 -0.025891,0.023643 -0.029389,0.023643 -0.0035,0 0.004,-0.010639 0.016667,-0.023643 z M 0.3997508,2.1949518 c 0,-0.016254 0.002888,-0.022904 0.006417,-0.014776 0.003529,0.00813 0.003529,0.021426 0,0.029553 -0.003529,0.00813 -0.006417,0.00148 -0.006417,-0.014776 z M 0.387028,2.1003818 c 0,-0.016254 0.002888,-0.022904 0.006417,-0.014777 0.003529,0.00813 0.003529,0.021426 0,0.029553 -0.003529,0.00813 -0.006417,0.00148 -0.006417,-0.014776 z M 5.3733555,1.8334189 c 6.107e-4,-0.013771 0.00363,-0.016572 0.00769,-0.00714 0.00368,0.00853 0.00322,0.018729 -0.001,0.022657 -0.00423,0.00393 -0.00723,-0.00305 -0.00668,-0.015515 z M 0.38797087,1.7575659 c 0,-0.022756 0.002618,-0.032065 0.005818,-0.020687 0.0032,0.011378 0.0032,0.029996 0,0.041374 -0.0032,0.011378 -0.005818,0.00207 -0.005818,-0.020687 z m 4.99810743,0.016747 c 6.107e-4,-0.013771 0.00363,-0.016572 0.00769,-0.00714 0.00368,0.00853 0.00322,0.018729 -10e-4,0.022657 -0.00423,0.00393 -0.00723,-0.00305 -0.00668,-0.015515 z m 0.012723,-0.070927 c 6.107e-4,-0.013771 0.00363,-0.016572 0.00769,-0.00714 0.00368,0.00853 0.00322,0.018729 -10e-4,0.022657 -0.00423,0.00393 -0.00723,-0.00305 -0.00668,-0.015515 z M 0.39874636,1.6442791 c 6.1044e-4,-0.013771 0.003625,-0.016572 0.007687,-0.00714 0.003675,0.00853 0.003223,0.018729 -0.001004,0.022657 -0.004228,0.00393 -0.007235,-0.00305 -0.006682,-0.015515 z M 5.4125282,1.6038898 c 0,-0.016254 0.00289,-0.022904 0.00642,-0.014776 0.00353,0.00813 0.00353,0.021426 0,0.029553 -0.00353,0.00813 -0.00642,0.00148 -0.00642,-0.014777 z M 0.41146914,1.5733516 c 6.1044e-4,-0.013771 0.003625,-0.016572 0.007687,-0.00714 0.003675,0.00853 0.003223,0.018729 -0.001004,0.022657 -0.004228,0.00393 -0.007235,-0.00305 -0.006682,-0.015515 z M 5.4125282,1.2256102 c 0,-0.016254 0.00289,-0.022904 0.00642,-0.014777 0.00353,0.00813 0.00353,0.021426 0,0.029553 -0.00353,0.00813 -0.00642,0.00148 -0.00642,-0.014776 z M 5.3988011,1.1241445 c 6.107e-4,-0.013771 0.00363,-0.016572 0.00769,-0.00714 0.00368,0.00853 0.00322,0.018729 -0.001,0.022657 -0.00423,0.00393 -0.00723,-0.00305 -0.00668,-0.015515 z m -0.012723,-0.070927 c 6.107e-4,-0.013771 0.00363,-0.016572 0.00769,-0.00714 0.00368,0.00853 0.00322,0.018729 -0.001,0.022657 -0.00423,0.00393 -0.00723,-0.00305 -0.00668,-0.015515 z"
         id="path10942" />
      <path
         style="fill:#679c37;stroke-width:0.0122637"
         d="M 2.8235531,3.9957205 C 2.8012274,3.974977 2.82849,3.5454408 2.8661948,3.3238801 2.9098271,3.0674874 2.9873191,2.8742124 3.1034134,2.7322269 3.3119508,2.4771815 3.5031795,2.3401823 4.011013,2.0820088 4.4516589,1.8579923 4.6215455,1.751169 4.8331723,1.5650417 4.9672455,1.4471232 5.0361206,1.3586861 5.1172073,1.2003344 5.1873982,1.0632612 5.2253328,0.94151104 5.2471888,0.78316361 l 0.01475,-0.10686164 0.023278,0.0509258 c 0.035497,0.0776598 0.083363,0.23227176 0.108545,0.35061693 0.017267,0.081146 0.022528,0.1624909 0.022172,0.3428159 -4.173e-4,0.211304 -0.00415,0.2526009 -0.035152,0.3886667 C 5.3032763,2.1495095 5.1590599,2.4135153 4.930284,2.6340173 4.7257938,2.8311123 4.5007946,2.9457403 4.1992603,3.006445 4.038956,3.0387172 3.7439451,3.0364 3.6146134,3.0018528 3.4909222,2.9688122 3.3933657,2.9287156 3.3068526,2.8753607 3.205887,2.8130924 3.1955463,2.8164403 3.1355444,2.9308239 3.0431868,3.1068883 3.0121017,3.2728138 2.990486,3.7051151 L 2.9755611,4.0036014 H 2.903798 c -0.03947,0 -0.07558,-0.00355 -0.080245,-0.00788 z M 2.5630056,3.427316 C 2.5084543,3.3426323 2.3688821,3.1888898 2.3310703,3.171833 2.3136651,3.1639816 2.2899471,3.1759696 2.2278004,3.2240302 2.1277501,3.3014029 1.9736835,3.3711932 1.8481395,3.3960119 1.6683191,3.4315605 1.4107662,3.4024692 1.2104858,3.323987 0.56476879,3.0709554 0.2283804,2.2078143 0.46198629,1.4034071 0.50501247,1.2552491 0.51725895,1.2510606 0.53548722,1.3782686 0.57823695,1.6766026 0.72991809,1.9446703 0.97438514,2.1539377 1.1162361,2.275364 1.2526424,2.363634 1.6052102,2.5621513 c 0.3511364,0.1977112 0.4910349,0.2827846 0.6316797,0.3841292 0.1081032,0.077896 0.3183847,0.2759414 0.378329,0.3563143 0.033132,0.044423 0.034938,0.052897 0.026869,0.1260693 -0.00476,0.043145 -0.012932,0.078445 -0.018166,0.078445 -0.00523,0 -0.032646,-0.035907 -0.060916,-0.079793 z"
         id="path10940" />
      <path
         style="fill:#e44f00;stroke-width:0.0122637"
         d="M 2.7992439,5.7088152 2.795987,4.7660713 2.0140544,4.7601607 1.2321218,4.7542501 1.2162547,4.6833227 c -0.00873,-0.03901 -0.016117,-0.080197 -0.016422,-0.091526 -5.216e-4,-0.019339 0.048264,-0.020784 0.7977997,-0.023642 l 0.7983548,-0.00304 0.00341,-0.2718885 0.00341,-0.2718885 0.8426587,0.0042 c 0.9240938,0.0046 0.8898026,0.00182 0.9385946,0.076171 0.021135,0.032206 0.024835,0.059861 0.024835,0.1856105 0,0.1971697 -0.00957,0.2126996 -0.1660805,0.2693703 -0.032279,0.011688 -0.034362,0.020931 -0.2207539,0.9794558 -0.1034922,0.5322109 -0.1968698,0.9850244 -0.2075058,1.0062523 -0.010636,0.021228 -0.03551,0.047472 -0.055275,0.05832 -0.019765,0.010848 -0.033478,0.02342 -0.030474,0.027937 0.012405,0.018649 -0.099253,0.022913 -0.5999704,0.022913 H 2.8025007 Z"
         id="path10938" />
    </g>
  </g>
</svg>
