<?xml version="1.0" encoding="UTF-8" standalone="no"?>
<svg
   xmlns:dc="http://purl.org/dc/elements/1.1/"
   xmlns:cc="http://creativecommons.org/ns#"
   xmlns:rdf="http://www.w3.org/1999/02/22-rdf-syntax-ns#"
   xmlns:svg="http://www.w3.org/2000/svg"
   xmlns="http://www.w3.org/2000/svg"
   xmlns:sodipodi="http://sodipodi.sourceforge.net/DTD/sodipodi-0.dtd"
   xmlns:inkscape="http://www.inkscape.org/namespaces/inkscape"
   width="202"
   height="134"
   fill="none"
   version="1.1"
   id="svg75"
   sodipodi:docname="pan-bg2.svg"
   inkscape:version="1.0.2-2 (e86c870879, 2021-01-15)">
  <metadata
     id="metadata79">
    <rdf:RDF>
      <cc:Work
         rdf:about="">
        <dc:format>image/svg+xml</dc:format>
        <dc:type
           rdf:resource="http://purl.org/dc/dcmitype/StillImage" />
        <dc:title></dc:title>
      </cc:Work>
    </rdf:RDF>
  </metadata>
  <sodipodi:namedview
     pagecolor="#ffffff"
     bordercolor="#666666"
     borderopacity="1"
     objecttolerance="10"
     gridtolerance="10"
     guidetolerance="10"
     inkscape:pageopacity="0"
     inkscape:pageshadow="2"
     inkscape:window-width="958"
     inkscape:window-height="1008"
     id="namedview77"
     showgrid="false"
     inkscape:zoom="2.0713332"
     inkscape:cx="81.957674"
     inkscape:cy="-10.244934"
     inkscape:window-x="2873"
     inkscape:window-y="1080"
     inkscape:window-maximized="0"
     inkscape:current-layer="svg75" />
  <defs
     id="defs73">
    <linearGradient
       id="D"
       x1="42.576"
       x2="42.576"
       y1="0"
       y2="38.952"
       gradientUnits="userSpaceOnUse">
      <stop
         stop-color="#404042"
         id="stop55" />
      <stop
         offset="1"
         stop-color="#48484b"
         id="stop57" />
    </linearGradient>
    <linearGradient
       id="E"
       x1="40.016"
       x2="33.695"
       y1="78.836"
       y2="89.766"
       gradientUnits="userSpaceOnUse">
      <stop
         stop-color="#404042"
         id="stop60" />
      <stop
         offset="1"
         stop-color="#48484b"
         id="stop62" />
    </linearGradient>
    <linearGradient
       id="F"
       x1="60.591"
       x2="55.695"
       y1="65.065"
       y2="126.187"
       gradientUnits="userSpaceOnUse">
      <stop
         stop-color="#404042"
         id="stop65" />
      <stop
         offset="1"
         stop-color="#48484b"
         id="stop67" />
    </linearGradient>
    <clipPath
       id="G">
      <path
         fill="#fff"
         d="M0 0h202v133.654H0z"
         id="path70" />
    </clipPath>
  </defs>
  <g
     id="g154"
     transform="matrix(1.6470431,0,0,1.9250078,38.781587,7.1960247)">
    <path
       d="M 10,5 H 23 V 7 H 10 Z"
       fill="#305b26"
       id="path81" />
    <path
       d="m 10,10 h 13 v 2 H 10 Z"
       fill="#305b26"
       id="path83" />
    <path
       d="m 10,15 h 13 v 2 H 10 Z"
       fill="#305b26"
       id="path85" />
    <path
       d="M 26,20 H 24 A 3,3 0 0 1 21,17 V 6.5 A 4.5,4.5 0 0 0 16.5,2 4.5,4.5 0 0 0 12,6.5 V 16 a 10,10 0 0 0 10,10 h 4"
       fill="#447b3b"
       id="path87" />
    <path
       d="M 26,25 V 20 H 24 A 3,3 0 0 1 21,17 V 6.5 A 4.491,4.491 0 0 0 16.681,2.018 4.474,4.474 0 0 0 15,5.5 V 15 a 10,10 0 0 0 10,10 z"
       fill="#508c45"
       id="path89" />
    <path
       d="M 25,38 V 12 a 7,7 0 0 1 7,-7 7,7 0 0 1 7,7 v 26"
       fill="#305b26"
       id="path91" />
    <g
       fill="#5c9d52"
       id="g101">
      <path
         d="m 32,32 h 18 v 2 H 32 Z"
         id="path93" />
      <path
         d="m 32,27 h 18 v 2 H 32 Z"
         id="path95" />
      <path
         d="m 32,22 h 18 v 2 H 32 Z"
         id="path97" />
      <path
         d="m 32,17 h 18 v 2 H 32 Z"
         id="path99" />
    </g>
    <path
       d="M 35,38 V 18 a 6,6 0 0 1 6,-6 6,6 0 0 1 6,6 v 20"
       fill="#447b3b"
       id="path103" />
    <path
       d="M 51,38 H 19 a 3,3 0 0 0 -3,3 v 2 a 3,3 0 0 0 3,3 h 32 a 3,3 0 0 0 3,-3 v -2 a 3,3 0 0 0 -3,-3 z"
       fill="#4a352d"
       id="path105" />
    <path
       d="m 19,46 1.38,11.039 A 5.663,5.663 0 0 0 26,62 h 18 a 5.664,5.664 0 0 0 5.62,-4.961 L 51,46"
       fill="#574138"
       id="path107" />
    <path
       d="m 39,59 h 10 a 5.641,5.641 0 0 0 0.622,-1.961 L 51,46 H 23.291 A 16,16 0 0 0 39,59 Z"
       fill="#684d42"
       id="path109" />
    <path
       d="M 27,42 H 54 V 41 A 3,3 0 0 0 51,38 H 23 a 4,4 0 0 0 4,4 z"
       fill="#574138"
       id="path111" />
    <path
       d="m 42.05,12.1 a 5.674,5.674 0 0 0 -2.1,0 A 68.072,68.072 0 0 0 38,28.246 V 38 h 2 v -9.754 a 65.98,65.98 0 0 1 1,-11.441 65.98,65.98 0 0 1 1,11.441 V 38 h 2 V 28.246 A 68.072,68.072 0 0 0 42.05,12.1 Z"
       fill="#5c9d52"
       id="path113" />
    <circle
       cx="44"
       cy="11"
       fill="#a82e25"
       r="3"
       id="circle115" />
    <path
       d="M 44,8 A 2.965,2.965 0 0 0 42.446,8.446 2.965,2.965 0 0 0 42,10 3,3 0 0 0 45,13 2.965,2.965 0 0 0 46.554,12.554 2.965,2.965 0 0 0 47,11 3,3 0 0 0 44,8 Z"
       fill="#c33e37"
       id="path117" />
    <path
       d="M 32.965,5.263 32,5 A 7.047,7.047 0 0 0 30.946,5.088 86.124,86.124 0 0 0 28,27.4 V 38 h 2 V 27.4 A 84.174,84.174 0 0 1 32.965,5.263 Z"
       fill="#447b3b"
       id="path119" />
    <circle
       cx="35"
       cy="5"
       fill="#a82e25"
       r="3"
       id="circle121" />
    <path
       d="M 35,2 A 2.965,2.965 0 0 0 33.446,2.446 2.965,2.965 0 0 0 33,4 3,3 0 0 0 36,7 2.965,2.965 0 0 0 37.554,6.554 2.965,2.965 0 0 0 38,5 3,3 0 0 0 35,2 Z"
       fill="#c33e37"
       id="path123" />
  </g>
</svg>
