<?xml version="1.0" encoding="UTF-8" standalone="no"?>
<svg
   xmlns:dc="http://purl.org/dc/elements/1.1/"
   xmlns:cc="http://creativecommons.org/ns#"
   xmlns:rdf="http://www.w3.org/1999/02/22-rdf-syntax-ns#"
   xmlns:svg="http://www.w3.org/2000/svg"
   xmlns="http://www.w3.org/2000/svg"
   xmlns:sodipodi="http://sodipodi.sourceforge.net/DTD/sodipodi-0.dtd"
   xmlns:inkscape="http://www.inkscape.org/namespaces/inkscape"
   width="202"
   height="134"
   fill="none"
   version="1.1"
   id="svg75"
   sodipodi:docname="pan-bg2.svg"
   inkscape:version="1.0.2-2 (e86c870879, 2021-01-15)">
  <metadata
     id="metadata79">
    <rdf:RDF>
      <cc:Work
         rdf:about="">
        <dc:format>image/svg+xml</dc:format>
        <dc:type
           rdf:resource="http://purl.org/dc/dcmitype/StillImage" />
        <dc:title></dc:title>
      </cc:Work>
    </rdf:RDF>
  </metadata>
  <sodipodi:namedview
     pagecolor="#ffffff"
     bordercolor="#666666"
     borderopacity="1"
     objecttolerance="10"
     gridtolerance="10"
     guidetolerance="10"
     inkscape:pageopacity="0"
     inkscape:pageshadow="2"
     inkscape:window-width="1920"
     inkscape:window-height="1017"
     id="namedview77"
     showgrid="false"
     inkscape:zoom="4.1426664"
     inkscape:cx="143.29746"
     inkscape:cy="71.995596"
     inkscape:window-x="1912"
     inkscape:window-y="1072"
     inkscape:window-maximized="1"
     inkscape:current-layer="XMLID_3374_"
     inkscape:document-rotation="0" />
  <defs
     id="defs73">
    <linearGradient
       id="D"
       x1="42.576"
       x2="42.576"
       y1="0"
       y2="38.952"
       gradientUnits="userSpaceOnUse">
      <stop
         stop-color="#404042"
         id="stop55" />
      <stop
         offset="1"
         stop-color="#48484b"
         id="stop57" />
    </linearGradient>
    <linearGradient
       id="E"
       x1="40.016"
       x2="33.695"
       y1="78.836"
       y2="89.766"
       gradientUnits="userSpaceOnUse">
      <stop
         stop-color="#404042"
         id="stop60" />
      <stop
         offset="1"
         stop-color="#48484b"
         id="stop62" />
    </linearGradient>
    <linearGradient
       id="F"
       x1="60.591"
       x2="55.695"
       y1="65.065"
       y2="126.187"
       gradientUnits="userSpaceOnUse">
      <stop
         stop-color="#404042"
         id="stop65" />
      <stop
         offset="1"
         stop-color="#48484b"
         id="stop67" />
    </linearGradient>
    <clipPath
       id="G">
      <path
         fill="#fff"
         d="M0 0h202v133.654H0z"
         id="path70" />
    </clipPath>
  </defs>
  <g
     id="g154"
     transform="matrix(1.6470431,0,0,1.9250078,25.434003,-0.8972078)">
    <g
       id="XMLID_1_"
       transform="matrix(0.09755333,0,0,0.06148504,-19.50855,37.577338)">
      <g
         id="XMLID_3458_">
        <path
           id="XMLID_1411_"
           d="m 282,239 c 0,0 -23,-156 155,-156 0,0 -1,75.2 -40,114.3 C 358,236.4 282,239 282,239 Z"
           fill="#47b85b" />
        <path
           id="XMLID_2139_"
           d="m 437,83 c 0,0 -1,75.3 -40,114.3 C 358,236.3 282,239 282,239 315.7,177.9 361.1,136.3 393.8,111.1 413,96.3 437,83 437,83 Z"
           fill="#399349" />
        <path
           id="XMLID_1412_"
           d="M 230,161 C 230,161 253,5 75,5 c 0,0 1,75.2 40,114.3 39,39.1 115,41.7 115,41.7 z"
           fill="#47b85b" />
        <path
           id="XMLID_2105_"
           d="m 230,161 c 0,0 -76.1,-2.7 -115,-41.7 C 76,80.3 75,5 75,5 c 0,0 34,19.3 47.5,28.8 37.7,26.7 87.6,70.4 107.5,127.2 z"
           fill="#399349" />
        <path
           id="XMLID_1413_"
           d="M 437,507 H 75 c 0,0 8.7,-35.3 66,-33.3 0,0 10.3,-35.3 61,-35.3 0,0 11,-31.3 54,-31.3 43,0 54,31.3 54,31.3 50.7,0 61,35.3 61,35.3 57.3,-2 66,33.3 66,33.3 z"
           fill="#f89720" />
        <g
           id="XMLID_1410_">
          <path
             id="XMLID_2128_"
             d="m 261,407.3 -10,-0.5 c 0.1,-1.5 7.6,-149.1 -25.7,-244.1 C 205.9,107.2 157.1,64.3 119.6,38 l 5.7,-8.2 c 38.7,27.1 89.1,71.6 109.4,129.6 34,96.8 26.4,246.4 26.3,247.9 z"
             fill="#2b6e37" />
        </g>
        <g
           id="XMLID_1409_">
          <path
             id="XMLID_2127_"
             d="m 110.2,53.5 h 44.7 v 10 h -44.7 z"
             fill="#2b6e37"
             transform="matrix(1,0.023,-0.023,1,1.37,-3.01)" />
        </g>
        <g
           id="XMLID_1408_">
          <path
             id="XMLID_2126_"
             d="m 169,70.1 h 33.5 v 10 H 169 Z"
             fill="#2b6e37"
             transform="matrix(0.136,0.991,-0.991,0.136,234.914,-119.159)" />
        </g>
        <g
           id="XMLID_1407_">
          <path
             id="XMLID_2124_"
             d="M 164.5,109.6 H 206 v 10 h -41.5 z"
             fill="#2b6e37"
             transform="matrix(1,0.005,-0.005,1,0.587,-0.944)" />
        </g>
        <g
           id="XMLID_1406_">
          <path
             id="XMLID_2133_"
             d="m 258.2,292.1 -8.7,-4.9 c 8.8,-15.8 18.2,-32.8 28.1,-50.7 34.4,-62.2 80.5,-104.7 113.2,-129.4 l 6,8 c -31.9,24.1 -76.9,65.6 -110.4,126.3 -9.9,17.9 -19.4,34.9 -28.2,50.7 z"
             fill="#2b6e37" />
        </g>
        <g
           id="XMLID_1405_">
          <path
             id="XMLID_2132_"
             d="m 379.8,112.7 h 10 v 48.7 h -10 z"
             fill="#2b6e37"
             transform="matrix(0.084,0.997,-0.997,0.084,488.967,-257.872)" />
        </g>
        <g
           id="XMLID_1404_">
          <path
             id="XMLID_2131_"
             d="m 318.5,146 h 28.3 v 10 h -28.3 z"
             fill="#2b6e37"
             transform="matrix(0.164,0.986,-0.986,0.164,426.95,-201.94)" />
        </g>
        <g
           id="XMLID_1403_">
          <path
             id="XMLID_2130_"
             d="m 333.3,164.4 h 10 V 218 h -10 z"
             fill="#2b6e37"
             transform="matrix(0.082,0.997,-0.997,0.082,501.077,-161.613)" />
        </g>
        <path
           id="XMLID_2136_"
           d="m 242.3,478.3 c 0,0 -48,-4 -80.7,28.7 H 437 c 0,0 -8.7,-35.3 -66,-33.3 0,0 -10.3,-35.3 -61,-35.3 -41.7,-0.1 -67.7,39.9 -67.7,39.9 z"
           fill="#df7e07" />
      </g>
      <g
         id="XMLID_3108_">
        <g
           id="XMLID_912_">
          <path
             id="XMLID_2310_"
             d="M 437,512 H 297 v -10 h 132.4 c -5.4,-9.1 -20.2,-24.7 -58.2,-23.3 -2.3,0.1 -4.3,-1.4 -5,-3.6 -0.4,-1.3 -10.2,-31.7 -56.2,-31.7 -2.1,0 -4,-1.3 -4.7,-3.3 -0.4,-1.1 -10.6,-28 -49.3,-28 -38.7,0 -48.9,26.9 -49.3,28 -0.7,2 -2.6,3.3 -4.7,3.3 -46.4,0 -56.1,31.4 -56.2,31.7 -0.6,2.2 -2.7,3.7 -5,3.6 C 102.8,477.4 88,493 82.6,502 H 277 v 10 H 75 c -1.5,0 -3,-0.7 -3.9,-1.9 -0.9,-1.2 -1.3,-2.8 -0.9,-4.3 0.4,-1.6 9.8,-37.2 66.2,-37.2 h 1.3 c 4.2,-9.5 19.2,-34 61.1,-35.2 4.3,-8.7 19.3,-31.4 57.3,-31.4 38,0 52.9,22.7 57.3,31.4 42,1.2 56.9,25.7 61.1,35.2 h 1.3 c 56.4,0 65.8,35.7 66.2,37.2 0.4,1.5 0,3.1 -0.9,4.3 -1.1,1.2 -2.6,1.9 -4.1,1.9 z"
             fill="#4d2419" />
        </g>
        <g
           id="XMLID_2013_">
          <path
             id="XMLID_2309_"
             d="M 209.3,164 C 184.6,160.5 139.1,150.6 111.4,122.8 71.5,82.8 70,8.2 70,5.1 70,3.8 70.5,2.5 71.4,1.5 72.3,0.5 73.7,0 75,0 c 57.8,0 101,16.2 128.5,48 40.7,47.2 31.9,111 31.5,113.7 l -9.9,-1.5 4.9,0.7 -4.9,-0.7 C 225.2,159.6 233.6,98.1 195.9,54.4 171.2,25.9 132.3,11 80.2,10 c 1.1,17.3 7,74.3 38.3,105.7 25.6,25.7 68.8,35 92.2,38.3 z"
             fill="#4d2419" />
        </g>
        <g
           id="XMLID_384_">
          <path
             id="XMLID_2306_"
             d="m 282,244 c -2.5,0 -4.6,-1.8 -4.9,-4.3 C 276.7,237 267.8,173.2 308.6,126 336,94.2 379.2,78 437,78 c 1.3,0 2.6,0.5 3.6,1.5 1,1 1.5,2.2 1.4,3.6 0,3.2 -1.5,77.7 -41.5,117.7 -39.9,40 -115.2,43.1 -118.4,43.2 z M 431.8,88 c -52.1,0.9 -90.9,15.9 -115.6,44.4 -31.8,36.7 -30.8,86.1 -29.7,101.2 16.9,-1.3 75.3,-8.2 107,-39.9 31.3,-31.3 37.2,-88.3 38.3,-105.7 z"
             fill="#4d2419" />
        </g>
        <g
           id="XMLID_20_">
          <path
             id="XMLID_2305_"
             d="m 261,407.3 -10,-0.5 c 0.1,-1.5 7.6,-149.1 -25.7,-244.1 C 205.9,107.2 157.1,64.3 119.6,38 l 5.7,-8.2 c 38.7,27.1 89.1,71.6 109.4,129.6 34,96.8 26.4,246.4 26.3,247.9 z"
             fill="#4d2419" />
        </g>
        <g
           id="XMLID_365_">
          <path
             id="XMLID_2304_"
             d="m 110.2,53.5 h 44.7 v 10 h -44.7 z"
             fill="#4d2419"
             transform="matrix(1,0.023,-0.023,1,1.37,-3.01)" />
        </g>
        <g
           id="XMLID_377_">
          <path
             id="XMLID_2303_"
             d="m 169,70.1 h 33.5 v 10 H 169 Z"
             fill="#4d2419"
             transform="matrix(0.136,0.991,-0.991,0.136,234.914,-119.159)" />
        </g>
        <g
           id="XMLID_382_">
          <path
             id="XMLID_2302_"
             d="M 164.5,109.6 H 206 v 10 h -41.5 z"
             fill="#4d2419"
             transform="matrix(1,0.005,-0.005,1,0.587,-0.944)" />
        </g>
        <g
           id="XMLID_383_">
          <path
             id="XMLID_2301_"
             d="m 258.2,292.1 -8.7,-4.9 c 8.8,-15.8 18.2,-32.8 28.1,-50.7 34.4,-62.2 80.5,-104.7 113.2,-129.4 l 6,8 c -31.9,24.1 -76.9,65.6 -110.4,126.3 -9.9,17.9 -19.4,34.9 -28.2,50.7 z"
             fill="#4d2419" />
        </g>
        <g
           id="XMLID_385_">
          <path
             id="XMLID_2300_"
             d="m 379.8,112.7 h 10 v 48.7 h -10 z"
             fill="#4d2419"
             transform="matrix(0.084,0.997,-0.997,0.084,488.967,-257.872)" />
        </g>
        <g
           id="XMLID_386_">
          <path
             id="XMLID_2299_"
             d="m 318.5,146 h 28.3 v 10 h -28.3 z"
             fill="#4d2419"
             transform="matrix(0.164,0.986,-0.986,0.164,426.95,-201.94)" />
        </g>
        <g
           id="XMLID_400_">
          <path
             id="XMLID_2268_"
             d="m 333.3,164.4 h 10 V 218 h -10 z"
             fill="#4d2419"
             transform="matrix(0.082,0.997,-0.997,0.082,501.077,-161.613)" />
        </g>
      </g>
      <path
         id="XMLID_1413_-1"
         d="m 822.78825,505.8518 h -362 c 0,0 8.7,-35.3 66,-33.3 0,0 10.3,-35.3 61,-35.3 0,0 11,-31.3 54,-31.3 43,0 54,31.3 54,31.3 50.7,0 61,35.3 61,35.3 57.3,-2 66,33.3 66,33.3 z"
         fill="#f89720" />
      <path
         id="XMLID_2136_-7"
         d="m 637.14264,475.92315 c 0,0 -48,-4 -80.7,28.7 h 275.4 c 0,0 -8.7,-35.3 -66,-33.3 0,0 -10.3,-35.3 -61,-35.3 -41.7,-0.1 -67.7,39.9 -67.7,39.9 z"
         fill="#df7e07" />
      <g
         id="XMLID_912_-7"
         transform="translate(385.78825,-6.1482)">
        <path
           id="XMLID_2310_-2"
           d="M 437,512 H 297 v -10 h 132.4 c -5.4,-9.1 -20.2,-24.7 -58.2,-23.3 -2.3,0.1 -4.3,-1.4 -5,-3.6 -0.4,-1.3 -10.2,-31.7 -56.2,-31.7 -2.1,0 -4,-1.3 -4.7,-3.3 -0.4,-1.1 -10.6,-28 -49.3,-28 -38.7,0 -48.9,26.9 -49.3,28 -0.7,2 -2.6,3.3 -4.7,3.3 -46.4,0 -56.1,31.4 -56.2,31.7 -0.6,2.2 -2.7,3.7 -5,3.6 C 102.8,477.4 88,493 82.6,502 H 277 v 10 H 75 c -1.5,0 -3,-0.7 -3.9,-1.9 -0.9,-1.2 -1.3,-2.8 -0.9,-4.3 0.4,-1.6 9.8,-37.2 66.2,-37.2 h 1.3 c 4.2,-9.5 19.2,-34 61.1,-35.2 4.3,-8.7 19.3,-31.4 57.3,-31.4 38,0 52.9,22.7 57.3,31.4 42,1.2 56.9,25.7 61.1,35.2 h 1.3 c 56.4,0 65.8,35.7 66.2,37.2 0.4,1.5 0,3.1 -0.9,4.3 -1.1,1.2 -2.6,1.9 -4.1,1.9 z"
           fill="#4d2419" />
      </g>
    </g>
    <g
       id="XMLID_1_-2"
       transform="matrix(0.07251122,0,0,0.05511722,66.782251,40.837662)">
      <g
         id="XMLID_3556_">
        <path
           id="XMLID_1656_"
           d="m 46.5,320 c 0,0 63,-51.3 85.5,-3.6 0,0 -34,61.1 -85.5,3.6 z"
           fill="#47b85b" />
        <path
           id="XMLID_2206_"
           d="M 46.5,320 C 98,377.5 132,316.4 132,316.4 Z"
           fill="#399349" />
        <g
           id="XMLID_1654_">
          <path
             id="XMLID_2207_"
             d="m 175.3,387.4 -10,-0.7 C 173.4,274.5 133,201.6 132.6,200.9 l 8.7,-4.9 c 0.4,0.8 10.8,19.3 20.2,52.3 8.8,30.2 18.2,78.9 13.8,139.1 z"
             fill="#2b6e37" />
        </g>
        <path
           id="XMLID_1658_"
           d="m 91.4,56 c 30.4,0 32,43.2 32,43.2 0,0 15.2,-31.2 42.4,-21.6 27.2,9.6 -13.6,50.4 -13.6,50.4 0,0 52.8,-24 52.8,11.2 0,35.2 -52,33.6 -52,33.6 0,0 55.6,14 28.8,40.8 C 155,240.4 137,198.4 137,198.4 c 0,0 19.2,57.6 -18.4,57.6 -37.6,0 -20.8,-47.1 -20.8,-47.1 0,0 -36,50.3 -59.2,27.1 -23.2,-23.2 20,-48.8 20,-48.8 C 58.6,187.2 5,200 5,164 5,128 56.2,136 56.2,136 56.2,136 22.1,120 30.1,96.8 38.1,73.6 77,98.4 77,98.4 77,98.4 61,56 91.4,56 Z"
           fill="#ffe3a8" />
        <path
           id="XMLID_2296_"
           d="M 205,139.2 C 205,104 152.2,128 152.2,128 c 0,0 40.8,-40.8 13.6,-50.4 -4.3,-1.5 -8.4,-2 -12.1,-1.8 C 145.6,137.3 100.2,187 41,201.6 32.5,211 26.5,223.8 38.6,236 c 23.2,23.2 59.2,-27.1 59.2,-27.1 0,0 -16.8,47.1 20.8,47.1 37.6,0 18.4,-57.6 18.4,-57.6 0,0 18,42 44.8,15.2 26.8,-26.8 -28.8,-40.8 -28.8,-40.8 0,0 52,1.6 52,-33.6 z"
           fill="#ffcb5c" />
        <path
           id="XMLID_1651_"
           d="M 268.7,457 282.3,258.6 465.6,296.9 392,457 Z"
           fill="#3179af" />
        <path
           id="XMLID_2578_"
           d="M 344,271.5 331.8,328 c -3.5,16.2 6.8,32.2 23,35.6 2.1,0.5 4.2,0.7 6.3,0.7 13.8,0 26.3,-9.6 29.3,-23.7 l 12.3,-56.9 z"
           fill="#265e87" />
        <g
           id="XMLID_1649_">
          <path
             id="XMLID_1650_"
             d="m 358,349 c -8.1,-1.7 -13.2,-9.7 -11.5,-17.8 l 35.2,-163.3 29.3,6.3 -35.2,163.3 c -1.7,8.1 -9.7,13.2 -17.8,11.5 z"
             fill="#3179af" />
        </g>
        <path
           id="XMLID_1660_"
           d="m 507,507 c 0,0 -24,-84 -106.7,-55.3 0,0 -37.3,-36.7 -71.3,-36.7 -34,0 -76.7,18 -76.7,18 0,0 -52,-46 -82,-46 -30,0 -46,40.7 -94,60 C 28.3,466.3 5,507 5,507 Z"
           fill="#f89720" />
        <circle
           id="XMLID_1659_"
           cx="105"
           cy="156"
           fill="#f89720"
           r="35" />
        <path
           id="XMLID_2323_"
           d="m 121.1,124.9 c 2.5,4.8 3.9,10.3 3.9,16.1 0,19.3 -15.7,35 -35,35 -5.8,0 -11.3,-1.4 -16.1,-3.9 5.8,11.2 17.6,18.9 31.1,18.9 19.3,0 35,-15.7 35,-35 0,-13.5 -7.7,-25.3 -18.9,-31.1 z"
           fill="#df7e07" />
        <path
           id="XMLID_1657_"
           d="m 254.9,223.7 c 0,0 -68.1,-18.6 -63.7,47 0.1,0 55.6,25 63.7,-47 z"
           fill="#47b85b" />
        <path
           id="XMLID_2166_"
           d="m 254.9,223.7 -63.7,47 c 0.1,0 55.6,25 63.7,-47 z"
           fill="#399349" />
        <g
           id="XMLID_1655_">
          <path
             id="XMLID_2205_"
             d="m 189.4,232.8 h 10 v 71.1 h -10 z"
             fill="#2b6e37"
             transform="matrix(0.594,0.805,-0.805,0.594,294.804,-47.439)" />
        </g>
        <g
           id="XMLID_1653_">
          <path
             id="XMLID_2201_"
             d="m 124.2,276.5 h 10 v 79.9 h -10 z"
             fill="#2b6e37"
             transform="matrix(0.043,0.999,-0.999,0.043,439.869,173.94)" />
        </g>
        <path
           id="XMLID_2618_"
           d="m 372.7,209.5 29.3,6.6 9,-41.9 -29.3,-6.4 z"
           fill="#265e87" />
        <path
           id="XMLID_1652_"
           d="M 388.5,33.4 361,186.4 421.6,200 456.1,47.1 C 461,25.5 444.6,5 422.5,5 c -16.7,0 -31,12 -34,28.4 z"
           fill="#f89720" />
        <path
           id="XMLID_1648_"
           d="m 432.5,151.8 -62.9,-13.3 -3.1,17.4 62.4,11.9 z"
           fill="#df7e07" />
        <path
           id="XMLID_1647_"
           d="m 441.1,113.6 -64.4,-14.4 -3.4,18.8 63.8,13.3 z"
           fill="#df7e07" />
        <ellipse
           id="XMLID_2612_"
           cx="407"
           cy="54.799999"
           fill="#faae52"
           rx="14"
           ry="31.299999"
           transform="matrix(0.988,0.154,-0.154,0.988,13.285,-62.021)" />
        <path
           id="XMLID_2645_"
           d="m 205.7,468.3 c 0,0 24,-24.3 46.7,-35.3 0,0 -18.5,-16.3 -39.8,-29.5 -20.8,37.2 -6.9,64.8 -6.9,64.8 z"
           fill="#df7e07" />
        <path
           id="XMLID_1658_-4"
           d="m -484.60068,73.021607 c 30.4,0 32,43.200003 32,43.200003 0,0 15.2,-31.200003 42.4,-21.600003 27.2,9.600003 -13.6,50.400003 -13.6,50.400003 0,0 52.8,-24 52.8,11.2 0,35.2 -52,33.6 -52,33.6 0,0 55.6,14 28.8,40.8 -26.8,26.8 -44.8,-15.2 -44.8,-15.2 0,0 19.2,57.6 -18.4,57.6 -37.6,0 -20.8,-47.1 -20.8,-47.1 0,0 -36,50.3 -59.2,27.1 -23.2,-23.2 20,-48.8 20,-48.8 0,0 -53.6,12.8 -53.6,-23.2 0,-36 51.2,-28 51.2,-28 0,0 -34.1,-16 -26.1,-39.2 8,-23.200003 46.9,1.6 46.9,1.6 0,0 -16,-42.400003 14.4,-42.400003 z"
           fill="#ffe3a8" />
        <path
           id="XMLID_1658_-3"
           d="m -180.40968,84.3971 c 30.4,0 32,43.2 32,43.2 0,0 15.2,-31.2 42.4,-21.6 27.2,9.6 -13.6,50.4 -13.6,50.4 0,0 52.8,-24 52.8,11.2 0,35.2 -52,33.6 -52,33.6 0,0 55.6,14 28.8,40.8 -26.8,26.8 -44.8,-15.2 -44.8,-15.2 0,0 19.2,57.6 -18.4,57.6 -37.6,0 -20.8,-47.1 -20.8,-47.1 0,0 -36,50.3 -59.2,27.1 -23.2,-23.2 20,-48.8 20,-48.8 0,0 -53.6,12.8 -53.6,-23.2 0,-36 51.2,-28 51.2,-28 0,0 -34.1,-16 -26.1,-39.2 8,-23.2 46.9,1.6 46.9,1.6 0,0 -16,-42.4 14.4,-42.4 z"
           fill="#ffe3a8" />
        <path
           id="XMLID_2296_-0"
           d="m -66.80968,167.59709 c 0,-35.2 -52.8,-11.2 -52.8,-11.2 0,0 40.8,-40.8 13.6,-50.4 -4.3,-1.5 -8.4,-2 -12.1,-1.8 -8.1,61.50001 -53.5,111.2 -112.7,125.8 -8.5,9.4 -14.5,22.20001 -2.4,34.4 23.2,23.2 59.2,-27.1 59.2,-27.1 0,0 -16.8,47.1 20.8,47.1 37.6,0 18.4,-57.6 18.4,-57.6 0,0 18,42 44.8,15.2 26.8,-26.8 -28.8,-40.79999 -28.8,-40.79999 0,0 52,1.59999 52,-33.60001 z"
           fill="#ffcb5c" />
        <path
           id="XMLID_2296_-1"
           d="m -371.00068,156.22161 c 0,-35.19999 -52.8,-11.2 -52.8,-11.2 0,0 40.8,-40.79999 13.6,-50.399995 -4.3,-1.5 -8.4,-2 -12.1,-1.8 -8.1,61.499995 -53.5,111.199995 -112.7,125.799995 -8.5,9.4 -14.5,22.2 -2.4,34.4 23.2,23.2 59.2,-27.1 59.2,-27.1 0,0 -16.8,47.10001 20.8,47.10001 37.6,0 18.4,-57.60001 18.4,-57.60001 0,0 18,42 44.8,15.2 26.8,-26.8 -28.8,-40.8 -28.8,-40.8 0,0 52,1.6 52,-33.6 z"
           fill="#ffcb5c" />
        <circle
           id="XMLID_1659_-9"
           cx="-472.01129"
           cy="173.02161"
           fill="#f89720"
           r="35" />
        <circle
           id="XMLID_1659_-2"
           cx="-168.83089"
           cy="182.12199"
           fill="#f89720"
           r="35" />
        <path
           id="XMLID_2323_-5"
           d="m -153.67028,149.072 c 2.5,4.8 3.9,10.3 3.9,16.1 0,19.3 -15.7,35 -35,35 -5.8,0 -11.3,-1.4 -16.1,-3.9 5.8,11.2 17.6,18.9 31.1,18.9 19.3,0 35,-15.7 35,-35 0,-13.5 -7.7,-25.3 -18.9,-31.1 z"
           fill="#df7e07" />
        <path
           id="XMLID_2323_-4"
           d="m -458.87188,138.83406 c 2.5,4.8 3.9,10.3 3.9,16.1 0,19.3 -15.7,35 -35,35 -5.8,0 -11.3,-1.4 -16.1,-3.9 5.8,11.2 17.6,18.9 31.1,18.9 19.3,0 35,-15.7 35,-35 0,-13.5 -7.7,-25.3 -18.9,-31.1 z"
           fill="#df7e07" />
        <g
           id="XMLID_389_-3"
           transform="translate(-274.84148,24.984452)">
          <path
             id="XMLID_2803_-5"
             d="m 105,196 c -22.1,0 -40,-17.9 -40,-40 0,-22.1 17.9,-40 40,-40 22.1,0 40,17.9 40,40 0,22.1 -17.9,40 -40,40 z m 0,-70 c -16.5,0 -30,13.5 -30,30 0,16.5 13.5,30 30,30 16.5,0 30,-13.5 30,-30 0,-16.5 -13.5,-30 -30,-30 z"
             fill="#4d2419" />
        </g>
        <g
           id="XMLID_389_-9"
           transform="translate(-574.99008,18.159156)">
          <path
             id="XMLID_2803_-9"
             d="m 105,196 c -22.1,0 -40,-17.9 -40,-40 0,-22.1 17.9,-40 40,-40 22.1,0 40,17.9 40,40 0,22.1 -17.9,40 -40,40 z m 0,-70 c -16.5,0 -30,13.5 -30,30 0,16.5 13.5,30 30,30 16.5,0 30,-13.5 30,-30 0,-16.5 -13.5,-30 -30,-30 z"
             fill="#4d2419" />
        </g>
        <path
           id="XMLID_1657_-8"
           d="m -305.64911,202.1558 c 0,0 -76.17714,-23.33389 -71.25527,58.96197 0.11186,0 62.19455,31.36275 71.25527,-58.96197 z"
           fill="#47b85b"
           style="stroke-width:1.18461" />
        <path
           id="XMLID_1657_-4"
           d="m -303.9818,329.14407 c 0,0 -59.64571,-43.78087 -73.6272,26.12051 0.0951,0.0358 45.97948,45.96641 73.6272,-26.12051 z"
           fill="#47b85b"
           style="stroke-width:1.04416" />
        <path
           id="XMLID_1657_-5"
           d="m -82.692201,347.67242 c 0,0 -59.513149,-41.64547 -73.564799,22.21155 0.095,0.0352 45.86187,43.32285 73.564799,-22.21155 z"
           fill="#47b85b"
           inkscape:transform-center-x="0.54312846"
           inkscape:transform-center-y="-0.30173803" />
        <path
           id="XMLID_1656_-1"
           d="m -320.15949,277.31224 c 0,0 77.42696,-8.05025 75.21787,45.89909 0,0 -56.89931,33.10416 -75.21787,-45.89909 z"
           fill="#47b85b" />
        <path
           id="XMLID_1656_-3"
           d="m -526.3832,342.71064 c 0,0 63,-51.3 85.5,-3.6 0,0 -34,61.1 -85.5,3.6 z"
           fill="#47b85b"
           inkscape:transform-center-x="-1.2069521"
           inkscape:transform-center-y="3.0173803" />
        <path
           id="XMLID_2206_-5"
           d="m -526.3832,342.71064 c 51.5,57.5 85.5,-3.6 85.5,-3.6 z"
           fill="#399349" />
        <path
           id="XMLID_2206_-9"
           d="m -320.15949,277.31224 c 19.39294,78.67767 75.83446,44.59504 75.83446,44.59504 z"
           fill="#399349"
           inkscape:transform-center-x="0.94187547"
           inkscape:transform-center-y="-1.2714017" />
        <path
           id="XMLID_2166_-5"
           d="m -305.64911,202.1558 -66.32869,59.93253 c 0.10412,0 57.89443,31.87901 66.32869,-59.93253 z"
           fill="#399349"
           style="stroke-width:1.1523" />
        <path
           id="XMLID_2166_-7"
           d="m -303.9818,329.14407 -71.33801,30.03624 c 0.0975,0.0248 49.33559,38.18223 71.33801,-30.03624 z"
           fill="#399349" />
        <path
           id="XMLID_2166_-9"
           d="m -82.692201,347.67242 -73.311509,23.24842 c 0.0954,0.0339 46.34102,42.67195 73.311509,-23.24842 z"
           fill="#399349" />
        <path
           id="XMLID_2795_-9"
           d="m -134.89507,387.06881 c -11.87043,-4.03544 -20.21746,-11.46937 -20.74047,-11.85609 -1.42191,-1.31908 -2.06396,-3.20873 -1.69735,-4.9644 3.87395,-19.88866 12.60897,-32.58831 25.91086,-37.78113 23.93967,-9.41103 53.270001,9.75262 54.507469,10.59115 2.117703,1.45116 2.988561,4.04536 2.059235,6.34096 -9.127485,23.11682 -21.892515,36.43121 -37.783744,39.5947 -7.91992,1.48601 -15.65068,0.32034 -22.256,-1.92519 z m -12.05462,-17.36463 c 5.23005,3.86721 18.28184,12.06487 31.88022,9.27099 11.80984,-2.35729 21.607179,-12.39766 29.314948,-29.83391 -7.917478,-4.36298 -26.785438,-13.07543 -41.614348,-7.25265 -9.57073,3.74526 -16.12958,13.00627 -19.58082,27.81557 z"
           fill="#4d2419" />
        <path
           id="XMLID_2795_-90"
           d="m -360.83537,375.51129 c -12.85524,-3.61264 -22.15353,-11.27865 -22.73168,-11.6708 -1.58693,-1.36469 -2.37634,-3.42398 -2.08517,-5.40926 3.00154,-22.46896 11.57913,-37.2844 25.43767,-44.06991 24.93781,-12.28491 57.21899,6.89281 58.58266,7.73539 2.33455,1.45995 3.40704,4.28782 2.54763,6.9173 -8.40865,26.46173 -21.23884,42.26404 -37.96624,46.98008 -8.34176,2.24935 -16.63155,1.52747 -23.78487,-0.4828 z m -13.80158,-18.46324 c 5.78157,3.92157 20.1279,12.08747 34.43689,7.95504 12.43091,-3.51183 22.28833,-15.44113 29.50644,-35.4619 -8.66844,-4.27348 -29.23112,-12.57858 -44.67868,-4.97641 -9.97074,4.89223 -16.42684,15.71028 -19.26465,32.48327 z"
           fill="#4d2419"
           style="stroke-width:1.09113" />
        <path
           id="XMLID_2795_-0"
           d="m -352.00864,268.53306 c -12.66991,0 -22.78541,-4.94208 -23.39848,-5.16672 -1.737,-0.89856 -2.86094,-2.69568 -2.96312,-4.71744 -1.43048,-22.80095 3.78054,-39.64894 15.42869,-50.0947 20.94624,-18.86975 54.66457,-8.98559 56.09505,-8.53631 2.45224,0.78624 3.98489,3.25728 3.67836,6.06528 -2.86095,28.1923 -11.85251,47.17438 -26.56596,56.38461 -7.35673,4.4928 -15.22434,6.06528 -22.27454,6.06528 z m -16.34828,-14.26463 c 6.13061,2.24639 21.04842,6.28991 33.61616,-1.6848 10.93291,-6.85152 17.88093,-21.22847 20.84406,-42.79391 -8.88938,-1.79712 -29.63126,-4.26815 -42.60771,7.41312 -8.3785,7.52544 -12.36339,19.88063 -11.85251,37.06559 z"
           fill="#4d2419"
           style="stroke-width:1.07128" />
        <g
           id="XMLID_2082_-1"
           transform="translate(-575.43746,21.0264)">
          <path
             id="XMLID_2794_-6"
             d="M 100.5,348.3 98,338.6 c 14.7,-3.8 24.8,-17.2 28.3,-22.5 -4.3,-7.9 -10.1,-12.6 -17.7,-14.3 -19.4,-4.4 -44.7,11.7 -54.6,18.8 9,9.2 17.9,15.1 26.5,17.6 l -2.8,9.6 c -11.6,-3.4 -23.4,-11.6 -34.9,-24.5 -0.9,-1 -1.4,-2.4 -1.3,-3.7 0.1,-1.4 0.8,-2.6 1.8,-3.5 1.5,-1.3 38.1,-30.7 67.5,-24.1 11.3,2.6 20,10 25.7,22.2 0.7,1.5 0.6,3.2 -0.2,4.6 -0.4,1 -13.3,23.6 -35.8,29.5 z"
             fill="#4d2419" />
        </g>
        <g
           id="XMLID_2082_-3"
           transform="matrix(0.87482857,0.54528526,-0.430371,0.87482857,-223.03102,-28.436605)">
          <path
             id="XMLID_2794_-3"
             d="M 100.5,348.3 98,338.6 c 14.7,-3.8 24.8,-17.2 28.3,-22.5 -4.3,-7.9 -10.1,-12.6 -17.7,-14.3 -19.4,-4.4 -44.7,11.7 -54.6,18.8 9,9.2 17.9,15.1 26.5,17.6 l -2.8,9.6 c -11.6,-3.4 -23.4,-11.6 -34.9,-24.5 -0.9,-1 -1.4,-2.4 -1.3,-3.7 0.1,-1.4 0.8,-2.6 1.8,-3.5 1.5,-1.3 38.1,-30.7 67.5,-24.1 11.3,2.6 20,10 25.7,22.2 0.7,1.5 0.6,3.2 -0.2,4.6 -0.4,1 -13.3,23.6 -35.8,29.5 z"
             fill="#4d2419" />
        </g>
      </g>
      <g
         id="XMLID_3206_">
        <g
           id="XMLID_390_">
          <path
             id="XMLID_2806_"
             d="M 507,512 H 5 c -1.8,0 -3.4,-1 -4.3,-2.5 -0.9,-1.5 -0.9,-3.4 0,-5 1,-1.7 24.8,-42.4 73.8,-62.1 22.5,-9.1 37.7,-23 51.1,-35.3 14.7,-13.5 27.4,-25.1 44.8,-25.1 28.1,0 72.2,36 83,45.2 10.3,-4.1 45.9,-17.2 75.7,-17.2 31.1,0 63.8,27.9 72.6,36 24.6,-7.9 46.6,-6.9 65.5,2.9 33.1,17.2 44.3,55.2 44.7,56.8 0.4,1.5 0.1,3.1 -0.8,4.4 -1.1,1.2 -2.5,1.9 -4.1,1.9 z M 14.4,502 h 485.5 c -4.5,-10.9 -15.8,-33.1 -37.5,-44.3 -17.1,-8.8 -37.4,-9.3 -60.4,-1.3 -1.8,0.6 -3.8,0.2 -5.1,-1.2 -0.4,-0.4 -36.3,-35.2 -67.8,-35.2 -32.6,0 -74.3,17.4 -74.7,17.6 -1.8,0.7 -3.8,0.4 -5.3,-0.9 -0.5,-0.4 -50.9,-44.7 -78.7,-44.7 -13.5,0 -24.3,9.9 -38,22.5 -13.3,12.2 -29.9,27.4 -54.1,37.2 -33.7,13.5 -54.9,38 -63.9,50.3 z"
             fill="#4d2419" />
        </g>
        <g
           id="XMLID_389_">
          <path
             id="XMLID_2803_"
             d="m 105,196 c -22.1,0 -40,-17.9 -40,-40 0,-22.1 17.9,-40 40,-40 22.1,0 40,17.9 40,40 0,22.1 -17.9,40 -40,40 z m 0,-70 c -16.5,0 -30,13.5 -30,30 0,16.5 13.5,30 30,30 16.5,0 30,-13.5 30,-30 0,-16.5 -13.5,-30 -30,-30 z"
             fill="#4d2419" />
        </g>
        <g
           id="XMLID_391_">
          <path
             id="XMLID_2800_"
             d="m 118.6,261 c -11,0 -19.1,-3.6 -24.2,-10.7 -4.8,-6.8 -5.7,-15.7 -5.2,-23.7 -9,9.2 -21.7,19.4 -34.4,20.4 -7.5,0.6 -14.2,-1.9 -19.8,-7.5 -6.4,-6.4 -9.1,-13.5 -8.1,-21.3 1.2,-9.3 7.6,-17.6 14.2,-23.9 C 30.8,194.6 18.5,193.2 10,186.5 3.4,181.3 0,173.7 0,164 c 0,-10 3.4,-18 10.2,-23.8 7.9,-6.8 19,-9.1 28.4,-9.8 -9.3,-7.9 -18.5,-20.1 -13.3,-35.3 2.1,-5.9 6,-10.1 11.6,-12 9.9,-3.5 23,1 32.1,5.3 -1.7,-8.8 -2.5,-20.4 3.1,-28.6 2.8,-4 8.4,-8.8 19.2,-8.8 21.4,0 31.4,18.5 35.1,34.6 8.8,-10.1 23,-19.1 40.9,-12.8 8.4,3 11.3,8.5 12.2,12.5 2.2,9.9 -4.7,22.4 -11.8,31.9 10.6,-2.7 23.7,-4 32.5,1.7 4.4,2.8 9.5,8.6 9.5,20.2 0,9.5 -3.3,17.5 -9.8,23.8 -7.1,6.9 -16.9,10.6 -25.8,12.5 8.4,4.4 16.7,10.7 19.1,19.1 2.1,7.5 -0.7,15 -8.1,22.5 -8.3,8.3 -16.9,11.7 -25.5,10 -5.1,-1 -9.5,-3.6 -13.3,-6.9 1,10.5 0.2,22.4 -5.7,30.6 -4.7,6.9 -12.2,10.3 -22,10.3 z M 97.8,203.9 c 0.8,0 1.6,0.2 2.3,0.6 2.2,1.2 3.2,3.8 2.4,6.1 -2.2,6.3 -6.5,24.6 0.1,34 3.1,4.4 8.3,6.5 16,6.5 6.5,0 11.1,-2 14.1,-6.1 8.1,-11.3 2.5,-36.3 -0.4,-45 -0.8,-2.5 0.5,-5.3 3,-6.3 2.5,-1 5.3,0.2 6.4,2.7 2.2,5.2 10.2,19 20.1,20.9 5.2,1 10.8,-1.4 16.6,-7.3 4.7,-4.7 6.6,-9 5.6,-12.7 -2.5,-9.1 -21,-16.9 -32,-19.7 -2.5,-0.6 -4.1,-3 -3.7,-5.5 0.4,-2.5 2.5,-4.3 5.1,-4.3 0.3,0 27.1,0.6 40.1,-11.9 4.5,-4.4 6.8,-9.9 6.8,-16.7 0,-5.8 -1.6,-9.7 -5,-11.8 -9.9,-6.4 -33.4,1.8 -40.8,5.2 -2.2,1 -4.8,0.3 -6.2,-1.7 -1.4,-2 -1.1,-4.7 0.6,-6.4 9.3,-9.4 23.4,-27.6 21.3,-36.8 -0.3,-1.5 -1.3,-3.7 -5.8,-5.3 -22.6,-8 -35.7,18 -36.2,19.1 -1,2.1 -3.3,3.2 -5.5,2.7 -2.2,-0.5 -3.9,-2.4 -4,-4.7 0,-0.1 -0.4,-10.3 -4.3,-20.2 C 109.3,67.1 101.7,61 91.4,61 c -5.3,0 -8.9,1.5 -11,4.5 -5.5,8 -0.8,25.6 1.3,31.1 0.8,2 0.1,4.3 -1.5,5.6 -1.6,1.3 -4,1.5 -5.8,0.3 -6.2,-3.9 -24.4,-13.4 -34.1,-10 -2.6,0.9 -4.3,2.8 -5.4,5.8 -6.5,18.7 23.2,32.9 23.5,33 2.3,1.1 3.4,3.6 2.7,6 -0.7,2.4 -3.1,3.9 -5.6,3.5 -0.3,0 -26.1,-3.9 -38.7,6.9 -4.6,4 -6.8,9.3 -6.8,16.3 0,6.6 2,11.4 6.2,14.7 10.7,8.5 33.4,5.5 41.2,3.6 2.4,-0.6 4.9,0.7 5.8,3 0.9,2.3 0,4.9 -2.1,6.2 -6.2,3.7 -22.8,16 -24.3,28 -0.6,4.6 1.1,8.9 5.3,13 3.5,3.5 7.3,5 11.9,4.6 15.2,-1.2 33.8,-22.9 39.7,-31.1 1,-1.4 2.5,-2.1 4.1,-2.1 z"
             fill="#4d2419" />
        </g>
        <g
           id="XMLID_80_">
          <path
             id="XMLID_2795_"
             d="m 212.1,279.9 c -12.4,0 -22.3,-4.4 -22.9,-4.6 -1.7,-0.8 -2.8,-2.4 -2.9,-4.2 -1.4,-20.3 3.7,-35.3 15.1,-44.6 20.5,-16.8 53.5,-8 54.9,-7.6 2.4,0.7 3.9,2.9 3.6,5.4 -2.8,25.1 -11.6,42 -26,50.2 -7.2,4 -14.9,5.4 -21.8,5.4 z m -16,-12.7 c 6,2 20.6,5.6 32.9,-1.5 10.7,-6.1 17.5,-18.9 20.4,-38.1 -8.7,-1.6 -29,-3.8 -41.7,6.6 -8.2,6.7 -12.1,17.7 -11.6,33 z"
             fill="#4d2419" />
        </g>
        <g
           id="XMLID_2082_">
          <path
             id="XMLID_2794_"
             d="M 100.5,348.3 98,338.6 c 14.7,-3.8 24.8,-17.2 28.3,-22.5 -4.3,-7.9 -10.1,-12.6 -17.7,-14.3 -19.4,-4.4 -44.7,11.7 -54.6,18.8 9,9.2 17.9,15.1 26.5,17.6 l -2.8,9.6 c -11.6,-3.4 -23.4,-11.6 -34.9,-24.5 -0.9,-1 -1.4,-2.4 -1.3,-3.7 0.1,-1.4 0.8,-2.6 1.8,-3.5 1.5,-1.3 38.1,-30.7 67.5,-24.1 11.3,2.6 20,10 25.7,22.2 0.7,1.5 0.6,3.2 -0.2,4.6 -0.4,1 -13.3,23.6 -35.8,29.5 z"
             fill="#4d2419" />
        </g>
        <g
           id="XMLID_395_">
          <path
             id="XMLID_2793_"
             d="m 189.4,232.8 h 10 v 71.1 h -10 z"
             fill="#4d2419"
             transform="matrix(0.594,0.805,-0.805,0.594,294.804,-47.439)" />
        </g>
        <g
           id="XMLID_392_">
          <path
             id="XMLID_2792_"
             d="m 175.3,387.4 -10,-0.7 C 173.4,274.5 133,201.6 132.6,200.9 l 8.7,-4.9 c 0.4,0.8 10.8,19.3 20.2,52.3 8.8,30.2 18.2,78.9 13.8,139.1 z"
             fill="#4d2419" />
        </g>
        <g
           id="XMLID_2_">
          <path
             id="XMLID_2791_"
             d="m 124.2,276.5 h 10 v 79.9 h -10 z"
             fill="#4d2419"
             transform="matrix(0.043,0.999,-0.999,0.043,439.869,173.94)" />
        </g>
        <g
           id="XMLID_357_">
          <path
             id="XMLID_2787_"
             d="m 421.7,205 c -0.4,0 -0.7,0 -1.1,-0.1 L 360,191.3 c -2.6,-0.6 -4.3,-3.1 -3.8,-5.8 l 27.5,-153 C 387,13.7 403.4,0 422.5,0 c 12.1,0 23.3,5.4 30.9,14.8 7.6,9.4 10.3,21.6 7.7,33.4 l -34.5,152.9 c -0.6,2.3 -2.7,3.9 -4.9,3.9 z m -54.9,-22.4 51.1,11.5 33.4,-148 c 2,-8.8 -0.1,-17.9 -5.7,-24.9 -5.6,-7 -14,-11.1 -23,-11.1 -14.3,0 -26.5,10.2 -29,24.3 z"
             fill="#4d2419" />
        </g>
        <g
           id="XMLID_397_">
          <g
             id="XMLID_2012_">
            <path
               id="XMLID_2786_"
               d="m 361.1,354.3 c -1.4,0 -2.8,-0.1 -4.2,-0.5 -10.8,-2.3 -17.7,-13 -15.3,-23.8 l 26.1,-121.2 9.8,2.1 -26.1,121.2 c -1.2,5.4 2.3,10.7 7.7,11.9 5.4,1.2 10.7,-2.3 11.9,-7.7 l 30.4,-141 9.8,2.1 -30.4,141 c -2.1,9.5 -10.4,15.9 -19.7,15.9 z"
               fill="#4d2419" />
          </g>
        </g>
        <g
           id="XMLID_27_">
          <path
             id="XMLID_2785_"
             d="m 368,140.1 h 65.2 v 10 H 368 Z"
             fill="#4d2419"
             transform="matrix(0.979,0.206,-0.206,0.979,38.564,-79.56)" />
        </g>
        <g
           id="XMLID_398_">
          <path
             id="XMLID_2784_"
             d="m 375,101.3 h 66.9 v 10 H 375 Z"
             fill="#4d2419"
             transform="matrix(0.976,0.219,-0.219,0.976,33.115,-86.714)" />
        </g>
        <g
           id="XMLID_2642_">
          <path
             id="XMLID_2085_"
             d="m 209.2,471.8 -7.1,-7 c 1,-1 24.9,-25.1 48,-36.3 l 4.4,9 c -21.6,10.5 -45,34.1 -45.3,34.3 z"
             fill="#4d2419" />
        </g>
        <g
           id="XMLID_2014_">
          <path
             id="XMLID_1524_"
             d="m 275.8,426.6 -10,-0.7 11.6,-167.7 c 0.1,-1.4 0.8,-2.8 2,-3.6 1.2,-0.9 2.6,-1.2 4,-0.9 l 76.4,15.9 -2,9.8 -70.7,-14.8 z"
             fill="#4d2419" />
        </g>
        <g
           id="XMLID_396_">
          <path
             id="XMLID_1491_"
             d="m 400.7,450 -9.1,-4.2 66.8,-145.3 -71.4,-14.9 2,-9.8 77.6,16.2 c 1.5,0.3 2.8,1.3 3.4,2.6 0.7,1.4 0.7,3 0.1,4.3 z"
             fill="#4d2419" />
        </g>
        <g
           id="XMLID_392_-6"
           transform="translate(-568.85507,30.760641)">
          <path
             id="XMLID_2792_-4"
             d="m 175.3,387.4 -10,-0.7 C 173.4,274.5 133,201.6 132.6,200.9 l 8.7,-4.9 c 0.4,0.8 10.8,19.3 20.2,52.3 8.8,30.2 18.2,78.9 13.8,139.1 z"
             fill="#4d2419" />
        </g>
        <g
           id="XMLID_392_-3"
           transform="matrix(-0.8985548,-0.49398946,0.38988536,-0.8985548,-171.91858,683.02322)"
           inkscape:transform-center-x="-15.420254"
           inkscape:transform-center-y="1.130722">
          <path
             id="XMLID_2792_-2"
             d="m 175.3,387.4 -10,-0.7 C 173.4,274.5 133,201.6 132.6,200.9 l 8.7,-4.9 c 0.4,0.8 10.8,19.3 20.2,52.3 8.8,30.2 18.2,78.9 13.8,139.1 z"
             fill="#4d2419" />
        </g>
        <g
           id="XMLID_2_-2"
           transform="matrix(0.94594395,0.3650713,-0.28813561,0.94594395,-277.7203,-30.350651)"
           inkscape:transform-center-x="0.36208564"
           inkscape:transform-center-y="0.12069521">
          <path
             id="XMLID_2791_-6"
             d="m 124.2,276.5 h 10 v 79.9 h -10 z"
             fill="#4d2419"
             transform="matrix(0.043,0.999,-0.999,0.043,439.869,173.94)" />
        </g>
        <g
           id="XMLID_2_-3"
           transform="matrix(0.98356508,-0.20323448,0.16040453,0.98356508,-621.66759,48.277907)">
          <path
             id="XMLID_2791_-9"
             d="m 124.2,276.5 h 10 v 79.9 h -10 z"
             fill="#4d2419"
             transform="matrix(0.043,0.999,-0.999,0.043,439.869,173.94)" />
        </g>
        <g
           id="XMLID_2_-32"
           transform="matrix(0.83089552,-0.57599714,0.37485138,1.0076898,-603.12685,10.34355)"
           inkscape:transform-center-x="0.11247441"
           inkscape:transform-center-y="2.7281309">
          <path
             id="XMLID_2791_-5"
             d="m 124.2,276.5 h 10 v 79.9 h -10 z"
             fill="#4d2419"
             transform="matrix(0.043,0.999,-0.999,0.043,439.869,173.94)" />
        </g>
        <g
           id="XMLID_2_-5"
           transform="matrix(0.67464346,0,0,0.94257089,-456.07243,51.292218)">
          <path
             id="XMLID_2791_-0"
             d="m 124.2,276.5 h 10 v 79.9 h -10 z"
             fill="#4d2419"
             transform="matrix(0.043,0.999,-0.999,0.043,439.869,173.94)" />
        </g>
        <g
           id="XMLID_395_-9"
           transform="matrix(1.5588936,0.24021889,-0.33681354,0.87751257,-378.71001,88.151696)">
          <path
             id="XMLID_2793_-3"
             d="m 189.4,232.8 h 10 v 71.1 h -10 z"
             fill="#4d2419"
             transform="matrix(0.594,0.805,-0.805,0.594,294.804,-47.439)" />
        </g>
      </g>
      <path
         id="XMLID_2800_-7"
         d="m -453.20827,281.43426 c -11,0 -19.1,-3.6 -24.2,-10.7 -4.8,-6.8 -5.7,-15.7 -5.2,-23.7 -9,9.2 -21.7,19.4 -34.4,20.4 -7.5,0.6 -14.2,-1.9 -19.8,-7.5 -6.4,-6.4 -9.1,-13.5 -8.1,-21.3 1.2,-9.3 7.6,-17.6 14.2,-23.9 -10.3,0.3 -22.6,-1.1 -31.1,-7.8 -6.6,-5.2 -10,-12.8 -10,-22.5 0,-10 3.4,-18 10.2,-23.8 7.9,-6.8 19,-9.1 28.4,-9.8 -9.3,-7.9 -18.5,-20.1 -13.3,-35.30001 2.1,-5.9 6,-10.1 11.6,-12 9.9,-3.5 23,1 32.1,5.3 -1.7,-8.8 -2.5,-20.399996 3.1,-28.599996 2.8,-4 8.4,-8.8 19.2,-8.8 21.4,0 31.4,18.5 35.1,34.599996 8.8,-10.099996 23,-19.099996 40.9,-12.799996 8.4,3 11.3,8.499996 12.2,12.499996 2.2,9.9 -4.7,22.40001 -11.8,31.90001 10.6,-2.7 23.7,-4 32.5,1.7 4.4,2.8 9.5,8.6 9.5,20.2 0,9.5 -3.3,17.5 -9.8,23.8 -7.1,6.9 -16.9,10.6 -25.8,12.5 8.4,4.4 16.7,10.7 19.1,19.1 2.1,7.5 -0.7,15 -8.1,22.5 -8.3,8.3 -16.9,11.7 -25.5,10 -5.1,-1 -9.5,-3.6 -13.3,-6.9 1,10.5 0.2,22.4 -5.7,30.6 -4.7,6.9 -12.2,10.3 -22,10.3 z m -20.8,-57.1 c 0.8,0 1.6,0.2 2.3,0.6 2.2,1.2 3.2,3.8 2.4,6.1 -2.2,6.3 -6.5,24.6 0.1,34 3.1,4.4 8.3,6.5 16,6.5 6.5,0 11.1,-2 14.1,-6.1 8.1,-11.3 2.5,-36.3 -0.4,-45 -0.8,-2.5 0.5,-5.3 3,-6.3 2.5,-1 5.3,0.2 6.4,2.7 2.2,5.2 10.2,19 20.1,20.9 5.2,1 10.8,-1.4 16.6,-7.3 4.7,-4.7 6.6,-9 5.6,-12.7 -2.5,-9.1 -21,-16.9 -32,-19.7 -2.5,-0.6 -4.1,-3 -3.7,-5.5 0.4,-2.5 2.5,-4.3 5.1,-4.3 0.3,0 27.1,0.6 40.1,-11.9 4.5,-4.4 6.8,-9.9 6.8,-16.7 0,-5.8 -1.6,-9.7 -5,-11.8 -9.9,-6.4 -33.4,1.8 -40.8,5.2 -2.2,1 -4.8,0.3 -6.2,-1.7 -1.4,-2 -1.1,-4.7 0.6,-6.4 9.3,-9.4 23.4,-27.6 21.3,-36.8 -0.3,-1.5 -1.3,-3.7 -5.8,-5.3 -22.6,-8.000005 -35.7,18 -36.2,19.1 -1,2.1 -3.3,3.2 -5.5,2.7 -2.2,-0.5 -3.9,-2.4 -4,-4.7 0,-0.1 -0.4,-10.3 -4.3,-20.200005 -5.1,-12.200001 -12.7,-18.300001 -23,-18.300001 -5.3,0 -8.9,1.5 -11,4.5 -5.5,8.000001 -0.8,25.599996 1.3,31.099996 0.8,2 0.1,4.3 -1.5,5.6 -1.6,1.30001 -4,1.50001 -5.8,0.3 -6.2,-3.9 -24.4,-13.4 -34.1,-10 -2.6,0.9 -4.3,2.8 -5.4,5.8 -6.5,18.70001 23.2,32.90001 23.5,33.00001 2.3,1.1 3.4,3.6 2.7,6 -0.7,2.4 -3.1,3.9 -5.6,3.5 -0.3,0 -26.1,-3.9 -38.7,6.9 -4.6,4 -6.8,9.3 -6.8,16.3 0,6.6 2,11.4 6.2,14.7 10.7,8.5 33.4,5.5 41.2,3.6 2.4,-0.6 4.9,0.7 5.8,3 0.9,2.3 0,4.9 -2.1,6.2 -6.2,3.7 -22.8,16 -24.3,28 -0.6,4.6 1.1,8.9 5.3,13 3.5,3.5 7.3,5 11.9,4.6 15.2,-1.2 33.8,-22.9 39.7,-31.1 1,-1.4 2.5,-2.1 4.1,-2.1 z"
         fill="#4d2419" />
      <path
         id="XMLID_2800_-6"
         d="m -151.03847,295.08485 c -11,0 -19.1,-3.6 -24.2,-10.7 -4.8,-6.8 -5.7,-15.7 -5.2,-23.7 -9,9.2 -21.7,19.4 -34.4,20.4 -7.5,0.6 -14.2,-1.9 -19.8,-7.5 -6.4,-6.4 -9.1,-13.5 -8.1,-21.3 1.2,-9.3 7.6,-17.6 14.2,-23.9 -10.3,0.3 -22.6,-1.1 -31.1,-7.8 -6.6,-5.2 -10,-12.8 -10,-22.5 0,-10 3.4,-18 10.2,-23.8 7.9,-6.8 19,-9.1 28.4,-9.8 -9.3,-7.9 -18.5,-20.1 -13.3,-35.3 2.1,-5.9 6,-10.1 11.6,-12 9.9,-3.5 23,1 32.1,5.3 -1.7,-8.8 -2.5,-20.4 3.1,-28.600002 2.8,-4 8.4,-8.8 19.2,-8.8 21.4,0 31.4,18.500002 35.1,34.600002 8.8,-10.1 23,-19.1 40.9,-12.8 8.399997,3 11.299997,8.5 12.199997,12.5 2.2,9.9 -4.7,22.4 -11.799997,31.9 10.599997,-2.7 23.699997,-4 32.499997,1.7 4.4,2.8 9.5,8.6 9.5,20.2 0,9.5 -3.3,17.5 -9.8,23.8 -7.1,6.9 -16.9,10.6 -25.8,12.5 8.4,4.4 16.7,10.7 19.1,19.1 2.1,7.5 -0.7,15 -8.1,22.5 -8.3,8.3 -16.899997,11.7 -25.499997,10 -5.1,-1 -9.5,-3.6 -13.3,-6.9 1,10.5 0.2,22.4 -5.7,30.6 -4.7,6.9 -12.2,10.3 -22,10.3 z m -20.8,-57.1 c 0.8,0 1.6,0.2 2.3,0.6 2.2,1.2 3.2,3.8 2.4,6.1 -2.2,6.3 -6.5,24.6 0.1,34 3.1,4.4 8.3,6.5 16,6.5 6.5,0 11.1,-2 14.1,-6.1 8.1,-11.3 2.5,-36.3 -0.4,-45 -0.8,-2.5 0.5,-5.3 3,-6.3 2.5,-1 5.3,0.2 6.4,2.7 2.2,5.2 10.2,19 20.1,20.9 5.2,1 10.799997,-1.4 16.599997,-7.3 4.7,-4.7 6.6,-9 5.6,-12.7 -2.5,-9.1 -20.999997,-16.9 -31.999997,-19.7 -2.5,-0.6 -4.1,-3 -3.7,-5.5 0.4,-2.5 2.5,-4.3 5.1,-4.3 0.3,0 27.099997,0.6 40.099997,-11.9 4.5,-4.4 6.8,-9.9 6.8,-16.7 0,-5.8 -1.6,-9.7 -5,-11.8 -9.9,-6.4 -33.399997,1.8 -40.799997,5.2 -2.2,1 -4.8,0.3 -6.2,-1.7 -1.4,-2 -1.1,-4.7 0.6,-6.4 9.3,-9.4 23.399997,-27.6 21.299997,-36.8 -0.3,-1.5 -1.299997,-3.7 -5.799997,-5.3 -22.6,-8 -35.7,18 -36.2,19.1 -1,2.1 -3.3,3.2 -5.5,2.7 -2.2,-0.5 -3.9,-2.4 -4,-4.7 0,-0.1 -0.4,-10.3 -4.3,-20.2 -5.1,-12.2 -12.7,-18.300002 -23,-18.300002 -5.3,0 -8.9,1.5 -11,4.5 -5.5,8.000002 -0.8,25.600002 1.3,31.100002 0.8,2 0.1,4.3 -1.5,5.6 -1.6,1.3 -4,1.5 -5.8,0.3 -6.2,-3.9 -24.4,-13.4 -34.1,-10 -2.6,0.9 -4.3,2.8 -5.4,5.8 -6.5,18.7 23.2,32.9 23.5,33 2.3,1.1 3.4,3.6 2.7,6 -0.7,2.4 -3.1,3.9 -5.6,3.5 -0.3,0 -26.1,-3.9 -38.7,6.9 -4.6,4 -6.8,9.3 -6.8,16.3 0,6.6 2,11.4 6.2,14.7 10.7,8.5 33.4,5.5 41.2,3.6 2.4,-0.6 4.9,0.7 5.8,3 0.9,2.3 0,4.9 -2.1,6.2 -6.2,3.7 -22.8,16 -24.3,28 -0.6,4.6 1.1,8.9 5.3,13 3.5,3.5 7.3,5 11.9,4.6 15.2,-1.2 33.8,-22.9 39.7,-31.1 1,-1.4 2.5,-2.1 4.1,-2.1 z"
         fill="#4d2419" />
    </g>
    <g
       id="XMLID_1_-0"
       transform="matrix(0.05826702,0,0,0.04386113,58.851328,3.8431737)">
      <g
         id="XMLID_3598_">
        <path
           id="XMLID_1742_"
           d="M 247,265 325,13.7 507,5 498.3,187 Z"
           fill="#3179af" />
        <path
           id="XMLID_2506_"
           d="M 262.1,216.5 C 371.4,208.8 457.8,118.3 459,7.3 l -134,6.4 z"
           fill="#4893cc" />
        <g
           id="XMLID_1740_">
          <path
             id="XMLID_1924_"
             d="M 493.8,189 C 493.5,188.4 467.1,129.8 424.6,87.4 382.2,45 323.5,18.5 323,18.2 l 4.1,-9.1 c 2.5,1.1 60.9,27.5 104.6,71.2 43.7,43.7 70.1,102.2 71.2,104.6 z"
             fill="#265e87" />
        </g>
        <g
           id="XMLID_1727_">
          <path
             id="XMLID_1922_"
             d="m 56.2,461.9 -2.3,-9.7 c 0.6,-0.2 15.5,-4.5 17.5,-32.8 1.7,-24.5 8.8,-42.7 21.4,-55.8 16.2,-16.7 40.9,-24.8 75.5,-24.8 27.8,0 48.6,-12.3 61.8,-36.4 10.1,-18.5 11.9,-37.5 11.9,-37.6 0.1,-1.2 0.6,-2.3 1.4,-3.1 l 260,-260 7.1,7.1 -258.7,258.5 c -0.7,5.5 -3.5,22.4 -12.7,39.4 -10.4,19.1 -31.1,41.9 -70.7,41.9 -72.6,0 -84.7,38.1 -87,71.4 -2.6,36.1 -24.3,41.6 -25.2,41.9 z"
             fill="#265e87" />
        </g>
        <g
           id="XMLID_1646_">
          <path
             id="XMLID_1920_"
             d="m 241.7,510.1 -7.8,-6.2 C 338.7,372.2 384.6,265.1 404.7,198.4 426.4,126.2 423.3,84.7 423.3,84.3 l 10,-0.8 c 0.1,1.7 3.3,43.4 -18.7,117.1 -12.9,43.1 -31.8,88.3 -56.2,134.3 -30.7,57.4 -69.9,116.4 -116.7,175.2 z"
             fill="#265e87" />
        </g>
        <g
           fill="#d84861"
           id="g2099">
          <g
             id="XMLID_1737_">
            <path
               id="XMLID_1739_"
               d="M 55,457 71.7,507 105,473.7 Z" />
            <path
               id="XMLID_1738_"
               d="M 5,440.3 55,457 38.3,407 Z" />
          </g>
          <g
             id="XMLID_1734_">
            <path
               id="XMLID_1736_"
               d="m 99,363 16.7,50 33.3,-33.3 z" />
            <path
               id="XMLID_1735_"
               d="M 49,346.3 99,363 82.3,313 Z" />
          </g>
          <g
             id="XMLID_1731_">
            <path
               id="XMLID_1733_"
               d="m 247,265 16.7,50 33.3,-33.3 z" />
            <path
               id="XMLID_1732_"
               d="M 197,248.3 247,265 230.3,215 Z" />
          </g>
          <g
             id="XMLID_1728_">
            <path
               id="XMLID_1730_"
               d="m 197,338 16.7,50 33.3,-33.3 z" />
            <path
               id="XMLID_1729_"
               d="M 147,321.3 197,338 180.3,288 Z" />
          </g>
        </g>
      </g>
      <g
         id="XMLID_3248_">
        <g
           id="XMLID_462_">
          <path
             id="XMLID_2914_"
             d="m 247,270 c -1.3,0 -2.6,-0.5 -3.5,-1.5 -1.3,-1.3 -1.8,-3.2 -1.2,-5 l 53.1,-171 9.6,3 -50.3,161.9 238.9,-74.1 8.2,-173 -173,8.2 -17,54.9 -9.6,-3 18.1,-58.2 c 0.6,-2 2.4,-3.4 4.5,-3.5 L 506.8,0 c 1.4,-0.1 2.8,0.5 3.8,1.5 1,1 1.5,2.4 1.5,3.8 l -8.7,182 c -0.1,2.1 -1.5,3.9 -3.5,4.5 l -251.3,78 c -0.6,0.1 -1.1,0.2 -1.6,0.2 z"
             fill="#4d2419" />
        </g>
        <g
           id="XMLID_21_">
          <path
             id="XMLID_2913_"
             d="m 56.2,461.9 -2.3,-9.7 c 0.6,-0.2 15.5,-4.5 17.5,-32.8 1.7,-24.5 8.8,-42.7 21.4,-55.8 16.2,-16.7 40.9,-24.8 75.5,-24.8 27.9,0 48.7,-12.4 61.9,-36.7 10.1,-18.5 11.7,-37.2 11.7,-37.4 l 10,0.8 c -0.1,0.8 -1.9,20.9 -12.9,41.3 -10.4,19.1 -31.1,41.9 -70.7,41.9 -72.6,0 -84.7,38.1 -87,71.4 -2.5,36 -24.2,41.5 -25.1,41.8 z"
             fill="#4d2419" />
        </g>
        <g
           id="XMLID_496_">
          <path
             id="XMLID_2912_"
             d="M 493.8,189 C 493.5,188.4 467.1,129.8 424.6,87.4 382.2,45 323.5,18.5 323,18.2 l 4.1,-9.1 c 2.5,1.1 60.9,27.5 104.6,71.2 43.7,43.7 70.1,102.2 71.2,104.6 z"
             fill="#4d2419" />
        </g>
        <g
           id="XMLID_497_">
          <g
             id="XMLID_499_">
            <path
               id="XMLID_2909_"
               d="m 71.7,512 c -0.4,0 -0.8,0 -1.1,-0.1 -1.7,-0.4 -3,-1.6 -3.6,-3.3 l -16.7,-50 c -0.6,-1.8 -0.1,-3.8 1.2,-5.1 1.3,-1.3 3.3,-1.8 5.1,-1.2 l 50,16.7 c 1.6,0.5 2.9,1.9 3.3,3.6 0.4,1.7 -0.1,3.5 -1.3,4.7 l -33.3,33.3 c -1,0.9 -2.3,1.4 -3.6,1.4 z m -8.8,-47.1 10.9,32.8 21.9,-21.9 z"
               fill="#4d2419" />
          </g>
          <g
             id="XMLID_500_">
            <path
               id="XMLID_2906_"
               d="m 55,462 c -0.5,0 -1.1,-0.1 -1.6,-0.3 L 3.4,445 c -1.6,-0.5 -2.9,-1.9 -3.3,-3.6 -0.4,-1.7 0.1,-3.5 1.3,-4.7 l 33.3,-33.3 c 1.2,-1.2 3,-1.7 4.7,-1.3 1.7,0.4 3,1.6 3.6,3.3 l 16.7,50 c 0.6,1.8 0.1,3.8 -1.2,5.1 -0.9,1 -2.2,1.5 -3.5,1.5 z M 14.3,438.1 47.1,449 36.2,416.2 Z"
               fill="#4d2419" />
          </g>
        </g>
        <g
           id="XMLID_501_">
          <g
             id="XMLID_494_">
            <path
               id="XMLID_2905_"
               d="m 115.7,418 c -0.4,0 -0.8,0 -1.1,-0.1 -1.7,-0.4 -3,-1.6 -3.6,-3.3 l -9.2,-27.5 9.5,-3.2 6.6,19.8 21.9,-21.9 -42.3,-14.1 3.2,-9.5 50,16.7 c 1.6,0.5 2.9,1.9 3.3,3.6 0.4,1.7 -0.1,3.5 -1.3,4.7 l -33.3,33.3 c -1.1,1 -2.4,1.5 -3.7,1.5 z"
               fill="#4d2419" />
          </g>
          <g
             id="XMLID_502_">
            <path
               id="XMLID_2902_"
               d="m 99,368 c -0.5,0 -1.1,-0.1 -1.6,-0.3 L 47.4,351 c -1.6,-0.5 -2.9,-1.9 -3.3,-3.6 -0.4,-1.7 0.1,-3.5 1.3,-4.7 l 33.3,-33.3 c 1.2,-1.2 3,-1.7 4.7,-1.3 1.7,0.4 3,1.6 3.6,3.3 l 16.7,50 c 0.6,1.8 0.1,3.8 -1.2,5.1 -0.9,1 -2.2,1.5 -3.5,1.5 z M 58.3,344.1 91.1,355 80.2,322.2 Z"
               fill="#4d2419" />
          </g>
        </g>
        <g
           id="XMLID_505_">
          <g
             id="XMLID_507_">
            <path
               id="XMLID_2899_"
               d="m 263.7,320 c -0.4,0 -0.8,0 -1.1,-0.1 -1.7,-0.4 -3,-1.6 -3.6,-3.3 l -16.7,-50 c -0.6,-1.8 -0.1,-3.8 1.2,-5.1 1.3,-1.3 3.3,-1.8 5.1,-1.2 l 50,16.7 c 1.6,0.5 2.9,1.9 3.3,3.6 0.4,1.7 -0.1,3.5 -1.3,4.7 l -33.3,33.3 c -1,0.9 -2.3,1.4 -3.6,1.4 z m -8.8,-47.1 10.9,32.8 21.9,-21.9 z"
               fill="#4d2419" />
          </g>
          <g
             id="XMLID_506_">
            <path
               id="XMLID_2896_"
               d="m 247,270 c -0.5,0 -1.1,-0.1 -1.6,-0.3 l -50,-16.7 c -1.6,-0.5 -2.9,-1.9 -3.3,-3.6 -0.4,-1.7 0.1,-3.5 1.3,-4.7 l 33.3,-33.3 c 1.2,-1.2 3,-1.7 4.7,-1.3 1.7,0.4 3,1.6 3.6,3.3 l 16.7,50 c 0.6,1.8 0.1,3.8 -1.2,5.1 -0.9,1 -2.2,1.5 -3.5,1.5 z m -40.7,-23.9 32.8,10.9 -10.9,-32.8 z"
               fill="#4d2419" />
          </g>
        </g>
        <g
           id="XMLID_508_">
          <g
             id="XMLID_510_">
            <path
               id="XMLID_2893_"
               d="m 213.7,393 c -0.4,0 -0.8,0 -1.1,-0.1 -1.7,-0.4 -3,-1.6 -3.6,-3.3 l -16.7,-50 c -0.6,-1.8 -0.1,-3.8 1.2,-5.1 1.3,-1.3 3.3,-1.8 5.1,-1.2 l 50,16.7 c 1.6,0.5 2.9,1.9 3.3,3.6 0.4,1.7 -0.1,3.5 -1.3,4.7 l -33.3,33.3 c -1,0.9 -2.3,1.4 -3.6,1.4 z m -8.8,-47.1 10.9,32.8 21.9,-21.9 z"
               fill="#4d2419" />
          </g>
          <g
             id="XMLID_509_">
            <path
               id="XMLID_2890_"
               d="m 197,343 c -0.5,0 -1.1,-0.1 -1.6,-0.3 l -50,-16.7 c -1.6,-0.5 -2.9,-1.9 -3.3,-3.6 -0.4,-1.7 0.1,-3.5 1.3,-4.7 l 33.3,-33.3 c 1.2,-1.2 3,-1.7 4.7,-1.3 1.7,0.4 3,1.6 3.6,3.3 l 16.7,50 c 0.6,1.8 0.1,3.8 -1.2,5.1 -0.9,1 -2.2,1.5 -3.5,1.5 z m -40.7,-23.9 32.8,10.9 -10.9,-32.8 z"
               fill="#4d2419" />
          </g>
        </g>
        <g
           id="XMLID_495_">
          <path
             id="XMLID_2889_"
             d="m 372,-48.8 h 10 v 367.7 h -10 z"
             fill="#4d2419"
             transform="matrix(0.707,0.707,-0.707,0.707,205.88,-227.039)" />
        </g>
        <g
           id="XMLID_613_">
          <path
             id="XMLID_2782_"
             d="m 241.7,510.1 -7.8,-6.2 C 338.7,372.2 384.6,265.1 404.7,198.4 426.4,126.2 423.3,84.7 423.3,84.3 l 10,-0.8 c 0.1,1.7 3.3,43.4 -18.7,117.1 -12.9,43.1 -31.8,88.3 -56.2,134.3 -30.7,57.4 -69.9,116.4 -116.7,175.2 z"
             fill="#4d2419" />
        </g>
        <g
           id="XMLID_613_-9"
           transform="matrix(-0.99342692,0.13010684,-0.10070922,-0.99342692,525.38306,979.20025)"
           inkscape:transform-center-x="-0.34137762"
           inkscape:transform-center-y="4.7792866">
          <path
             id="XMLID_2782_-1"
             d="m 241.7,510.1 -7.8,-6.2 C 338.7,372.2 384.6,265.1 404.7,198.4 426.4,126.2 423.3,84.7 423.3,84.3 l 10,-0.8 c 0.1,1.7 3.3,43.4 -18.7,117.1 -12.9,43.1 -31.8,88.3 -56.2,134.3 -30.7,57.4 -69.9,116.4 -116.7,175.2 z"
             fill="#4d2419" />
        </g>
      </g>
    </g>
    <g
       id="XMLID_1_-8"
       transform="matrix(0.08044911,0,0,0.06711812,-20.94153,-5.743915)">
      <g
         id="XMLID_3374_">
        <circle
           id="XMLID_1770_"
           cx="256"
           cy="276"
           fill="#ffcb5c"
           r="100" />
        <circle
           id="XMLID_1913_"
           cx="236"
           cy="256"
           fill="#ffdca3"
           r="40" />
        <path
           id="XMLID_1868_"
           d="m 306.4,189.6 c 8.6,14.8 13.6,32 13.6,50.4 0,55.2 -44.8,100 -100,100 -18.4,0 -35.6,-5 -50.4,-13.6 17.4,29.7 49.5,49.6 86.4,49.6 55.2,0 100,-44.8 100,-100 0,-36.9 -19.9,-69 -49.6,-86.4 z"
           fill="#ffb30f" />
        <g
           id="XMLID_1714_">
          <path
             id="XMLID_1908_"
             d="m 251,397 h 10 v 30 h -10 z"
             fill="#ffb30f" />
        </g>
        <g
           id="XMLID_1713_">
          <path
             id="XMLID_1907_"
             d="m 251,125 h 10 v 30 h -10 z"
             fill="#ffb30f" />
        </g>
        <g
           id="XMLID_1712_">
          <path
             id="XMLID_1906_"
             d="m 337.2,367.2 h 30 v 10 h -30 z"
             fill="#ffb30f"
             transform="matrix(0.707,0.707,-0.707,0.707,366.297,-140.015)" />
        </g>
        <g
           id="XMLID_1711_">
          <path
             id="XMLID_1905_"
             d="m 144.8,174.8 h 30 v 10 h -30 z"
             fill="#ffb30f"
             transform="matrix(0.707,0.707,-0.707,0.707,173.976,-60.347)" />
        </g>
        <g
           id="XMLID_1710_">
          <path
             id="XMLID_1904_"
             d="m 377,271 h 30 v 10 h -30 z"
             fill="#ffb30f" />
        </g>
        <g
           id="XMLID_1709_">
          <path
             id="XMLID_1903_"
             d="m 105,271 h 30 v 10 h -30 z"
             fill="#ffb30f" />
        </g>
        <g
           id="XMLID_1708_">
          <path
             id="XMLID_1902_"
             d="m 347.2,164.8 h 10 v 30 h -10 z"
             fill="#ffb30f"
             transform="matrix(0.707,0.707,-0.707,0.707,230.335,-196.356)" />
        </g>
        <g
           id="XMLID_1707_">
          <path
             id="XMLID_1901_"
             d="m 154.8,357.2 h 10 v 30 h -10 z"
             fill="#ffb30f"
             transform="matrix(0.707,0.707,-0.707,0.707,309.976,-4.014)" />
        </g>
        <g
           id="XMLID_1706_">
          <path
             id="XMLID_1900_"
             d="m 189,145.4 h 30 v 10 h -30 z"
             fill="#ffb30f"
             transform="matrix(0.383,0.924,-0.924,0.383,264.812,-95.615)" />
        </g>
        <g
           id="XMLID_1705_">
          <path
             id="XMLID_1899_"
             d="m 293,396.6 h 30 v 10 h -30 z"
             fill="#ffb30f"
             transform="matrix(0.383,0.924,-0.924,0.383,561.235,-36.653)" />
        </g>
        <g
           id="XMLID_1704_">
          <path
             id="XMLID_1898_"
             d="m 115.4,219 h 30 v 10 h -30 z"
             fill="#ffb30f"
             transform="matrix(0.924,0.383,-0.383,0.924,95.626,-32.836)" />
        </g>
        <g
           id="XMLID_1703_">
          <path
             id="XMLID_1897_"
             d="m 366.6,323 h 30 v 10 h -30 z"
             fill="#ffb30f"
             transform="matrix(0.924,0.383,-0.383,0.924,154.586,-121.078)" />
        </g>
        <g
           id="XMLID_1702_">
          <path
             id="XMLID_1896_"
             d="m 125.4,313 h 10 v 30 h -10 z"
             fill="#ffb30f"
             transform="matrix(0.383,0.924,-0.924,0.383,383.54,82.075)" />
        </g>
        <g
           id="XMLID_1701_">
          <path
             id="XMLID_1895_"
             d="m 376.6,209 h 10 v 30 h -10 z"
             fill="#ffb30f"
             transform="matrix(0.383,0.924,-0.924,0.383,442.539,-214.34)" />
        </g>
        <g
           id="XMLID_1700_">
          <path
             id="XMLID_1894_"
             d="m 199,386.6 h 10 v 30 h -10 z"
             fill="#ffb30f"
             transform="matrix(0.924,0.383,-0.383,0.924,169.234,-47.477)" />
        </g>
        <g
           id="XMLID_1699_">
          <path
             id="XMLID_1893_"
             d="m 303,135.4 h 10 v 30 h -10 z"
             fill="#ffb30f"
             transform="matrix(0.924,0.383,-0.383,0.924,80.998,-106.45)" />
        </g>
      </g>
      <g
         id="XMLID_3023_">
        <g
           id="XMLID_1356_">
          <path
             id="XMLID_2961_"
             d="m 256,381 c -57.9,0 -105,-47.1 -105,-105 0,-49.7 35.3,-93 84,-102.9 l 2,9.8 c -44,8.9 -76,48.1 -76,93.1 0,52.4 42.6,95 95,95 52.4,0 95,-42.6 95,-95 0,-52.4 -42.6,-95 -95,-95 v -10 c 57.9,0 105,47.1 105,105 0,57.9 -47.1,105 -105,105 z"
             fill="#4d2419" />
        </g>
        <g
           id="XMLID_409_">
          <path
             id="XMLID_2868_"
             d="m 251,397 h 10 v 30 h -10 z"
             fill="#4d2419" />
        </g>
        <g
           id="XMLID_410_">
          <path
             id="XMLID_2867_"
             d="m 251,125 h 10 v 30 h -10 z"
             fill="#4d2419" />
        </g>
        <g
           id="XMLID_412_">
          <path
             id="XMLID_2866_"
             d="m 337.2,367.2 h 30 v 10 h -30 z"
             fill="#4d2419"
             transform="matrix(0.707,0.707,-0.707,0.707,366.297,-140.015)" />
        </g>
        <g
           id="XMLID_411_">
          <path
             id="XMLID_2865_"
             d="m 144.8,174.8 h 30 v 10 h -30 z"
             fill="#4d2419"
             transform="matrix(0.707,0.707,-0.707,0.707,173.976,-60.347)" />
        </g>
        <g
           id="XMLID_422_">
          <path
             id="XMLID_2864_"
             d="m 377,271 h 30 v 10 h -30 z"
             fill="#4d2419" />
        </g>
        <g
           id="XMLID_413_">
          <path
             id="XMLID_2863_"
             d="m 105,271 h 30 v 10 h -30 z"
             fill="#4d2419" />
        </g>
        <g
           id="XMLID_424_">
          <path
             id="XMLID_2862_"
             d="m 347.2,164.8 h 10 v 30 h -10 z"
             fill="#4d2419"
             transform="matrix(0.707,0.707,-0.707,0.707,230.335,-196.356)" />
        </g>
        <g
           id="XMLID_423_">
          <path
             id="XMLID_2861_"
             d="m 154.8,357.2 h 10 v 30 h -10 z"
             fill="#4d2419"
             transform="matrix(0.707,0.707,-0.707,0.707,309.976,-4.014)" />
        </g>
        <g
           id="XMLID_426_">
          <path
             id="XMLID_2860_"
             d="m 189,145.4 h 30 v 10 h -30 z"
             fill="#4d2419"
             transform="matrix(0.383,0.924,-0.924,0.383,264.812,-95.615)" />
        </g>
        <g
           id="XMLID_425_">
          <path
             id="XMLID_2859_"
             d="m 293,396.6 h 30 v 10 h -30 z"
             fill="#4d2419"
             transform="matrix(0.383,0.924,-0.924,0.383,561.235,-36.653)" />
        </g>
        <g
           id="XMLID_428_">
          <path
             id="XMLID_2858_"
             d="m 115.4,219 h 30 v 10 h -30 z"
             fill="#4d2419"
             transform="matrix(0.924,0.383,-0.383,0.924,95.626,-32.836)" />
        </g>
        <g
           id="XMLID_427_">
          <path
             id="XMLID_2857_"
             d="m 366.6,323 h 30 v 10 h -30 z"
             fill="#4d2419"
             transform="matrix(0.924,0.383,-0.383,0.924,154.586,-121.078)" />
        </g>
        <g
           id="XMLID_429_">
          <path
             id="XMLID_2856_"
             d="m 125.4,313 h 10 v 30 h -10 z"
             fill="#4d2419"
             transform="matrix(0.383,0.924,-0.924,0.383,383.54,82.075)" />
        </g>
        <g
           id="XMLID_394_">
          <path
             id="XMLID_2855_"
             d="m 376.6,209 h 10 v 30 h -10 z"
             fill="#4d2419"
             transform="matrix(0.383,0.924,-0.924,0.383,442.539,-214.34)" />
        </g>
        <g
           id="XMLID_431_">
          <path
             id="XMLID_2854_"
             d="m 199,386.6 h 10 v 30 h -10 z"
             fill="#4d2419"
             transform="matrix(0.924,0.383,-0.383,0.924,169.234,-47.477)" />
        </g>
        <g
           id="XMLID_430_">
          <path
             id="XMLID_2853_"
             d="m 303,135.4 h 10 v 30 h -10 z"
             fill="#4d2419"
             transform="matrix(0.924,0.383,-0.383,0.924,80.998,-106.45)" />
        </g>
      </g>
    </g>
  </g>
</svg>
