<?xml version="1.0" encoding="UTF-8" standalone="no"?>
<svg
   xmlns:dc="http://purl.org/dc/elements/1.1/"
   xmlns:cc="http://creativecommons.org/ns#"
   xmlns:rdf="http://www.w3.org/1999/02/22-rdf-syntax-ns#"
   xmlns:svg="http://www.w3.org/2000/svg"
   xmlns="http://www.w3.org/2000/svg"
   xmlns:sodipodi="http://sodipodi.sourceforge.net/DTD/sodipodi-0.dtd"
   xmlns:inkscape="http://www.inkscape.org/namespaces/inkscape"
   width="202"
   height="134"
   fill="none"
   version="1.1"
   id="svg81"
   sodipodi:docname="pan-bg.svg"
   inkscape:version="1.0.2-2 (e86c870879, 2021-01-15)">
  <metadata
     id="metadata85">
    <rdf:RDF>
      <cc:Work
         rdf:about="">
        <dc:format>image/svg+xml</dc:format>
        <dc:type
           rdf:resource="http://purl.org/dc/dcmitype/StillImage" />
        <dc:title></dc:title>
      </cc:Work>
    </rdf:RDF>
  </metadata>
  <sodipodi:namedview
     pagecolor="#ffffff"
     bordercolor="#666666"
     borderopacity="1"
     objecttolerance="10"
     gridtolerance="10"
     guidetolerance="10"
     inkscape:pageopacity="0"
     inkscape:pageshadow="2"
     inkscape:window-width="958"
     inkscape:window-height="1008"
     id="namedview83"
     showgrid="false"
     inkscape:zoom="1.4648618"
     inkscape:cx="147.6171"
     inkscape:cy="-52.826602"
     inkscape:window-x="2873"
     inkscape:window-y="1080"
     inkscape:window-maximized="0"
     inkscape:current-layer="svg81" />
  <style
     id="style2">.B{fill:#fff}.C{fill:#000}.D{fill-rule:evenodd}.E{fill:#612f01}.F{fill:#fedc90}.G{fill:#d1884f}</style>
  <defs
     id="defs79">
    <clipPath
       id="G">
      <path
         d="M0 0h202v133.654H0z"
         class="B"
         id="path76" />
    </clipPath>
  </defs>
  <g
     id="Layer_9"
     data-name="Layer 9"
     transform="matrix(1.6098032,0,0,1.5787623,-5.2728093,35.241908)">
    <path
       d="m 31,40 h -2 a 6.984,6.984 0 0 0 -5.044,-6.687 l -1.23,-0.352 0.548,-1.922 1.231,0.351 A 8.991,8.991 0 0 1 31,40 Z"
       fill="#305b26"
       id="path87" />
    <path
       d="m 23,32 v 2.382 A 2.618,2.618 0 0 1 21.553,36.724 2.631,2.631 0 0 1 20.382,37 13.671,13.671 0 0 1 12.434,34.453 8.2,8.2 0 0 1 9,27.78 2.88,2.88 0 0 0 7.408,25.2 L 7,25 10.483,23.258 a 12.6,12.6 0 0 1 5.33,-1.324 12.578,12.578 0 0 1 5.118,0.96 l 2.4,1 a 4.322,4.322 0 0 1 2.669,3.991 4.322,4.322 0 0 1 -2.956,4.1 z"
       fill="#447b3b"
       id="path89" />
    <path
       d="m 23.336,23.893 -2.4,-1 A 12.569,12.569 0 0 0 10.488,23.257 L 7,25 12.4,27.312 A 8.5,8.5 0 0 0 15.746,28 8.507,8.507 0 0 1 22.552,31.4 L 23,32 23.044,31.985 A 4.321,4.321 0 0 0 26,27.885 4.322,4.322 0 0 0 23.336,23.893 Z"
       fill="#508c45"
       id="path91" />
    <path
       d="m 36.929,40.371 -1.858,-0.742 0.425,-1.061 a 21.542,21.542 0 0 1 4.746,-7.224 l 0.405,-0.541 a 9.583,9.583 0 0 1 1.483,-1.568 l 1.287,1.53 A 7.5,7.5 0 0 0 42.248,32 L 41.8,32.6 a 0.951,0.951 0 0 1 -0.093,0.107 19.568,19.568 0 0 0 -4.354,6.6 z"
       fill="#305b26"
       id="path93" />
    <path
       d="m 41,32 v 2.382 A 2.618,2.618 0 0 0 42.447,36.724 2.631,2.631 0 0 0 43.618,37 13.671,13.671 0 0 0 51.566,34.453 8.2,8.2 0 0 0 55,27.78 2.88,2.88 0 0 1 56.592,25.2 L 57,25 53.517,23.258 a 12.6,12.6 0 0 0 -5.33,-1.324 12.578,12.578 0 0 0 -5.118,0.96 l -2.405,1 A 4.322,4.322 0 0 0 38,27.885 a 4.322,4.322 0 0 0 2.956,4.1 z"
       fill="#447b3b"
       id="path95" />
    <path
       d="M 51.605,27.312 A 8.5,8.5 0 0 1 48.254,28 8.507,8.507 0 0 0 41.448,31.4 L 41,32 v 2.382 A 2.617,2.617 0 0 0 43.618,37 13.678,13.678 0 0 0 51.566,34.453 8.2,8.2 0 0 0 55,27.78 2.88,2.88 0 0 1 56.592,25.2 L 57,25 Z"
       fill="#508c45"
       id="path97" />
    <path
       d="m 37,45 h -2 v -8.229 a 54.674,54.674 0 0 0 -3.929,-20.4 l 1.858,-0.744 A 56.694,56.694 0 0 1 37,36.771 Z"
       fill="#305b26"
       id="path99" />
    <path
       d="m 28,29 0.43,-0.645 a 7.7,7.7 0 0 1 4.293,-3.133 7.7,7.7 0 0 0 5.356,-5.538 l 2.328,-9.31 A 8.4,8.4 0 0 0 40.226,5.679 5.38,5.38 0 0 0 35.122,2 5.381,5.381 0 0 0 30.451,4.711 L 28,9 25.549,4.711 A 5.381,5.381 0 0 0 20.878,2 a 5.38,5.38 0 0 0 -5.1,3.679 8.4,8.4 0 0 0 -0.181,4.7 l 2.328,9.31 a 7.7,7.7 0 0 0 5.356,5.538 7.7,7.7 0 0 1 4.293,3.133 z"
       fill="#c33e37"
       id="path101" />
    <g
       fill="#e15240"
       id="g109">
      <path
         d="m 38.24,19.04 -0.16,0.64 a 7.71,7.71 0 0 1 -5.36,5.54 7.7,7.7 0 0 0 -4.29,3.13 L 28,29 27.57,28.35 A 7.7,7.7 0 0 0 23.28,25.22 7.7,7.7 0 0 1 17.92,19.68 L 17.76,19.04 A 49.665,49.665 0 0 1 26,20 a 2.006,2.006 0 0 0 2,2 2.015,2.015 0 0 0 2,-2 49.665,49.665 0 0 1 8.24,-0.96 z"
         id="path103" />
      <path
         d="m 26,14 v 3 l -0.31,-0.25 a 17.067,17.067 0 0 0 -9.43,-3.7 L 15.59,10.37 A 8.763,8.763 0 0 1 15.34,8.33 8.549,8.549 0 0 1 15.77,5.68 5.853,5.853 0 0 1 16.18,4.76 23.04,23.04 0 0 1 26,14 Z"
         id="path105" />
      <path
         d="m 40.41,10.37 -0.67,2.68 a 17.067,17.067 0 0 0 -9.43,3.7 L 30,17 v -3 a 23.04,23.04 0 0 1 9.82,-9.24 5.853,5.853 0 0 1 0.41,0.92 8.5,8.5 0 0 1 0.18,4.69 z"
         id="path107" />
    </g>
    <path
       d="M 29,27.615 V 20 h -2 v 7.615 a 7.651,7.651 0 0 1 0.57,0.74 L 28,29 28.43,28.355 A 7.651,7.651 0 0 1 29,27.615 Z"
       fill="#f9d468"
       id="path111" />
    <rect
       fill="#f7c242"
       height="10"
       rx="2"
       width="4"
       x="26"
       y="12"
       id="rect113" />
    <path
       d="m 44,46 -2.001,16 h -18 L 22,46"
       fill="#684d42"
       id="path115" />
    <path
       d="m 24.375,46 a 18.259,18.259 0 0 0 17.748,14 h 0.126 L 44,46 Z"
       fill="#745749"
       id="path117" />
    <path
       d="m 20,40 h 26 v 6 H 20 Z"
       fill="#574138"
       id="path119" />
    <path
       d="m 23.499,58 0.5,4 h 18 l 0.5,-4 z"
       fill="#574138"
       id="path121" />
    <path
       d="M 27,43 H 46 V 40 H 24 a 3,3 0 0 0 3,3 z"
       fill="#684d42"
       id="path123" />
  </g>
  <g
     id="XMLID_2_"
     transform="matrix(0.34781756,0,0,0.25200922,44.418395,2.7274735)">
    <g
       id="XMLID_3640_">
      <path
         id="XMLID_1483_"
         d="M 327,25 C 319.2,17.2 295.2,5 256,5 c -39.2,0 -62,11 -71,20 -8.7,9.1 -21.7,24.9 -31,48 -9.7,24 -11.1,45.3 -11,58 H 369 C 368.2,116.2 365.1,93.8 354.3,69 345.9,49.6 335.4,35 327,25 Z"
         fill="#f89720" />
      <path
         id="XMLID_1482_"
         d="M 369,131 H 143 c -0.1,-8.8 0.6,-21.7 4.2,-36.8 28.9,-7 67,-11.2 108.8,-11.2 41,0 78.4,4.1 107,10.8 4,14.7 5.5,27.6 6,37.2 z"
         fill="#d84861" />
      <path
         id="XMLID_955_"
         d="M 249.5,131 H 369 C 368.2,116.2 365.1,93.8 354.3,69 345.8,49.6 335.4,35 327,25 c -3.4,-3.4 -9.8,-7.6 -19.2,-11.3 -2.5,47 -24.6,88.8 -58.3,117.3 z"
         fill="#df7e07" />
      <path
         id="XMLID_957_"
         d="M 249.5,131 H 369 c -0.5,-9.6 -2,-22.5 -6,-37.2 -21,-4.9 -46.7,-8.4 -75.1,-10 -9.7,18.1 -22.8,34 -38.4,47.2 z"
         fill="#c12944" />
      <path
         id="XMLID_440_"
         d="m 361.5,191 c 35.2,-9 57.5,-20.3 57.5,-33.8 0,-24.3 -73,-44.1 -163,-44.1 -90,0 -163,19.9 -163,44.2 0,13.4 22.3,24.7 57.5,33.7 z"
         fill="#df7e07" />
      <path
         id="XMLID_1792_"
         d="m 169,246 c -35,0 -38,-26.7 -38,-39 0,-12.3 9.7,-17 30,-17 h 8 z"
         fill="#ffcb5c" />
      <path
         id="XMLID_2264_"
         d="m 343,246 c 35,0 38,-26.7 38,-39 0,-12.3 -9.7,-17 -30,-17 h -8 z"
         fill="#ffcb5c" />
      <path
         id="XMLID_2171_"
         d="M 368.5,207 343,233 v 13 c 32.5,-12.2 25.5,-39 25.5,-39 z"
         fill="#ffb30f" />
      <path
         id="XMLID_435_"
         d="m 143.5,207 25.5,26 v 13 c -32.5,-12.2 -25.5,-39 -25.5,-39 z"
         fill="#ffb30f" />
      <path
         id="XMLID_1790_"
         d="m 286,307 h -60 v 38 l -98.4,45.8 C 106.5,400.7 93,421.9 93,445.2 V 507 h 326 v -61.8 c 0,-23.3 -13.5,-44.5 -34.6,-54.4 L 286,345 Z"
         fill="#f89720" />
      <path
         id="XMLID_2273_"
         d="m 322,361.8 -19,19.6 c 0,0 -20.5,18.1 -47,18.1 -26.5,0 -47,-18.1 -47,-18.1 L 190,361.8 226,345 v -38 h 60 v 38 z"
         fill="#ffc970" />
      <path
         id="XMLID_2807_"
         d="M 286,339.2 V 307 h -60 v 32.6 c 8.1,5.1 14,8.4 14,8.4 h 32 c 0,0 5.9,-3.5 14,-8.8 z"
         fill="#ffb30f" />
      <path
         id="XMLID_1504_"
         d="m 351,151 v 39 c 0,0 -3.9,67.4 -24,95.7 -12,16.9 -55,42.3 -55,42.3 h -32 c 0,0 -41.8,-23.2 -55,-42.3 C 165.3,257.2 161,190 161,190 v -39 c 22.9,-4.3 57,-7 95,-7 38,0 72,2.7 95,7 z"
         fill="#ffcb5c" />
      <path
         id="XMLID_667_"
         d="m 317.8,207 c -2.7,-1.9 -9.1,-5.9 -17.9,-6 -9,-0.1 -15.2,4.8 -17.9,5.8 l -4,12.2 h 37.9 z"
         fill="#ffe3a8" />
      <path
         id="XMLID_1525_"
         d="m 194.3,207 c 2.7,-1.9 9.1,-5.9 17.9,-6 9,-0.1 15.2,4.8 17.9,5.8 L 234,219 h -37.9 z"
         fill="#ffe3a8" />
      <g
         id="XMLID_1789_">
        <path
           id="XMLID_2176_"
           d="m 256,282.1 c -18.6,0 -29.7,-11.4 -31.7,-13.7 l 7.5,-6.7 c 1,1.1 9.8,10.4 24.6,10.3 14.1,-0.1 22.4,-8.6 23.9,-10.3 l 7.5,6.7 c -2,2.3 -13,13.5 -31.3,13.7 -0.2,0 -0.4,0 -0.5,0 z"
           fill="#ffb30f" />
      </g>
      <g
         id="XMLID_1788_">
        <path
           id="XMLID_2175_"
           d="m 192.5,181.3 -5.1,-8.6 c 5.2,-3.1 13.6,-6.7 24.5,-6.7 h 0.3 c 10.8,0.1 19.1,3.7 24.3,6.7 l -5.1,8.6 c -4.1,-2.4 -10.7,-5.3 -19.2,-5.3 -0.1,0 -0.2,0 -0.2,0 -8.6,0 -15.3,2.9 -19.5,5.3 z"
           fill="#265e87" />
      </g>
      <g
         id="XMLID_1787_">
        <path
           id="XMLID_2174_"
           d="m 204,201 h 10 v 18 h -10 z"
           fill="#265e87" />
      </g>
      <g
         id="XMLID_1786_">
        <path
           id="XMLID_2173_"
           d="m 210,201 h 10 v 18 h -10 z"
           fill="#265e87" />
      </g>
      <g
         id="XMLID_1785_">
        <path
           id="XMLID_2172_"
           d="m 228.3,211.5 c -1,-0.4 -2,-0.9 -3.2,-1.5 -3.1,-1.7 -7.5,-4 -13.1,-4 -5.2,0 -10.5,1.8 -15.2,5.1 l -5.8,-8.2 c 6.4,-4.5 13.6,-6.9 20.8,-6.9 h 0.2 c 8.1,0 14.1,3.2 17.7,5.1 0.7,0.4 1.6,0.8 1.9,0.9 z"
           fill="#265e87" />
      </g>
      <g
         id="XMLID_1784_">
        <path
           id="XMLID_2170_"
           d="m 319.5,181.3 c -4.2,-2.4 -10.9,-5.4 -19.7,-5.3 -8.5,0 -15.2,2.9 -19.2,5.3 l -5.1,-8.6 c 5.1,-3 13.5,-6.6 24.3,-6.7 11.1,0 19.6,3.6 24.8,6.7 z"
           fill="#265e87" />
      </g>
      <g
         id="XMLID_1783_">
        <path
           id="XMLID_2169_"
           d="m 298,201 h 10 v 18 h -10 z"
           fill="#265e87" />
      </g>
      <g
         id="XMLID_1782_">
        <path
           id="XMLID_1793_"
           d="m 292,201 h 10 v 18 h -10 z"
           fill="#265e87" />
      </g>
      <g
         id="XMLID_1781_">
        <path
           id="XMLID_1791_"
           d="m 283.7,211.5 -3.4,-9.4 c 0.3,-0.1 1.2,-0.6 1.9,-0.9 3.6,-1.9 9.7,-5.2 17.9,-5.1 7.3,0 14.5,2.4 20.8,6.9 l -5.8,8.2 c -4.7,-3.3 -9.9,-5.1 -15.2,-5.1 h -0.1 c -5.6,0 -9.8,2.3 -12.9,4 -1.2,0.5 -2.2,1 -3.2,1.4 z"
           fill="#265e87" />
      </g>
      <g
         fill="#265e87"
         id="g311">
        <path
           id="XMLID_1485_"
           d="m 185,147.5 c 0,0 -6.1,42.5 -24,42.5 0,0 -18,-11.9 -18,-34.6 9.5,-3.1 24,-5.9 42,-7.9 z" />
        <path
           id="XMLID_1484_"
           d="m 327,147.5 c 0,0 6.1,42.5 24,42.5 0,0 18,-11.9 18,-34.6 -9.5,-3.1 -24,-5.9 -42,-7.9 z" />
        <path
           id="XMLID_1481_"
           d="m 362,503 v 4 H 150 v -4 c 0,-20.5 3.1,-41 9.2,-60.6 3.8,-12.3 6.5,-24.8 7.9,-37.6 l 5,-44.2 c 1,-8.9 8.6,-15.6 17.5,-15.6 9.2,0 16.8,7 17.6,16.2 L 214,442 h 84 l 6.7,-80.8 c 0.8,-9.2 8.4,-16.2 17.6,-16.2 9,0 16.5,6.7 17.5,15.6 l 5,44.2 c 1.5,12.8 4.1,25.3 7.9,37.6 6.2,19.6 9.3,40.1 9.3,60.6 z" />
      </g>
    </g>
    <g
       id="XMLID_3290_">
      <g
         id="XMLID_18_">
        <path
           id="XMLID_2982_"
           d="m 169,251 c -27.7,0 -43,-15.6 -43,-44 0,-22 25.4,-22 35,-22 v 10 c -23.1,0 -25,6.2 -25,12 0,22.6 11.1,34 33,34 z"
           fill="#4d2419" />
      </g>
      <g
         id="XMLID_17_">
        <path
           id="XMLID_2981_"
           d="m 138.8,213.3 h 31.6 v 10 h -31.6 z"
           fill="#4d2419"
           transform="matrix(0.7,0.714,-0.714,0.7,202.141,-44.92)" />
      </g>
      <g
         id="XMLID_15_">
        <path
           id="XMLID_2980_"
           d="m 343,251 v -10 c 21.9,0 33,-11.4 33,-34 0,-5.8 -1.9,-12 -25,-12 v -10 c 9.6,0 35,0 35,22 0,28.4 -15.3,44 -43,44 z"
           fill="#4d2419" />
      </g>
      <g
         id="XMLID_14_">
        <path
           id="XMLID_2979_"
           d="m 352.4,202.5 h 10 v 31.6 h -10 z"
           fill="#4d2419"
           transform="matrix(0.714,0.7,-0.7,0.714,255.163,-187.853)" />
      </g>
      <g
         id="XMLID_12_">
        <path
           id="XMLID_2978_"
           d="m 256,282.1 c -18.6,0 -29.7,-11.4 -31.7,-13.7 l 7.5,-6.7 c 1,1.1 9.8,10.4 24.6,10.3 14.1,-0.1 22.4,-8.6 23.9,-10.3 l 7.5,6.7 c -2,2.3 -13,13.5 -31.3,13.7 -0.2,0 -0.4,0 -0.5,0 z"
           fill="#4d2419" />
      </g>
      <g
         id="XMLID_11_">
        <path
           id="XMLID_2977_"
           d="m 192.5,181.3 -5.1,-8.6 c 5.2,-3.1 13.6,-6.7 24.5,-6.7 h 0.3 c 10.8,0.1 19.1,3.7 24.3,6.7 l -5.1,8.6 c -4.1,-2.4 -10.7,-5.3 -19.2,-5.3 -0.1,0 -0.2,0 -0.2,0 -8.6,0 -15.3,2.9 -19.5,5.3 z"
           fill="#4d2419" />
      </g>
      <g
         id="XMLID_10_">
        <path
           id="XMLID_2976_"
           d="m 204,201 h 10 v 18 h -10 z"
           fill="#4d2419" />
      </g>
      <g
         id="XMLID_9_">
        <path
           id="XMLID_2975_"
           d="m 210,201 h 10 v 18 h -10 z"
           fill="#4d2419" />
      </g>
      <g
         id="XMLID_618_">
        <path
           id="XMLID_2974_"
           d="m 228.3,211.5 c -1,-0.4 -2,-0.9 -3.2,-1.5 -3.1,-1.7 -7.5,-4 -13.1,-4 -5.2,0 -10.5,1.8 -15.2,5.1 l -5.8,-8.2 c 6.4,-4.5 13.6,-6.9 20.8,-6.9 h 0.2 c 8.1,0 14.1,3.2 17.7,5.1 0.7,0.4 1.6,0.8 1.9,0.9 z"
           fill="#4d2419" />
      </g>
      <g
         id="XMLID_7_">
        <path
           id="XMLID_2973_"
           d="m 319.5,181.3 c -4.2,-2.4 -10.9,-5.4 -19.7,-5.3 -8.5,0 -15.2,2.9 -19.2,5.3 l -5.1,-8.6 c 5.1,-3 13.5,-6.6 24.3,-6.7 11.1,0 19.6,3.6 24.8,6.7 z"
           fill="#4d2419" />
      </g>
      <g
         id="XMLID_5_">
        <path
           id="XMLID_2972_"
           d="m 298,201 h 10 v 18 h -10 z"
           fill="#4d2419" />
      </g>
      <g
         id="XMLID_4_">
        <path
           id="XMLID_2971_"
           d="m 292,201 h 10 v 18 h -10 z"
           fill="#4d2419" />
      </g>
      <g
         id="XMLID_8_">
        <path
           id="XMLID_2970_"
           d="m 283.7,211.5 -3.4,-9.4 c 0.3,-0.1 1.2,-0.6 1.9,-0.9 3.6,-1.9 9.7,-5.2 17.9,-5.1 7.3,0 14.5,2.4 20.8,6.9 l -5.8,8.2 c -4.7,-3.3 -9.9,-5.1 -15.2,-5.1 h -0.1 c -5.6,0 -9.8,2.3 -12.9,4 -1.2,0.5 -2.2,1 -3.2,1.4 z"
           fill="#4d2419" />
      </g>
      <g
         id="XMLID_2112_">
        <path
           id="XMLID_2547_"
           d="m 272,333 h -32 c -0.8,0 -1.7,-0.2 -2.4,-0.6 -1.7,-1 -42.9,-24 -56.7,-43.9 -20.3,-29.3 -24.7,-95.4 -24.9,-98.2 l 10,-0.6 c 0,0.7 4.4,66.1 23.1,93.1 11.3,16.3 45.6,36.4 52.2,40.2 h 29.3 c 6.9,-4.1 42.1,-25.9 52.3,-40.2 19,-26.8 23,-92.4 23.1,-93.1 l 10,0.6 c -0.2,2.8 -4.3,69.2 -24.9,98.3 -12.5,17.6 -54.7,42.7 -56.5,43.7 -0.8,0.5 -1.7,0.7 -2.6,0.7 z"
           fill="#4d2419" />
      </g>
      <g
         id="XMLID_837_">
        <path
           id="XMLID_2546_"
           d="M 350.1,155.9 C 326.6,151.5 292.3,149 256,149 c -36.3,0 -70.6,2.5 -94.1,6.9 l -1.8,-9.8 c 24.1,-4.5 59,-7.1 95.9,-7.1 36.9,0 71.8,2.6 95.9,7.1 z"
           fill="#4d2419" />
      </g>
      <g
         id="XMLID_19_">
        <path
           id="XMLID_2531_"
           d="m 362.6,195.4 -2.2,-9.7 C 400,176.6 414,164.5 414,157 414,150 402.4,139.5 370,130.7 339.6,122.5 299.2,118 256,118 c -43.2,0 -83.6,4.5 -114,12.7 -32.5,8.8 -44,19.3 -44,26.3 0,7.5 14,19.6 53.6,28.7 l -2.2,9.7 C 121.4,189 88,177.1 88,157 c 0,-31.8 86.6,-49 168,-49 81.4,0 168,17.2 168,49 0,20.1 -33.4,32 -61.4,38.4 z"
           fill="#4d2419" />
      </g>
      <g
         id="XMLID_836_">
        <path
           id="XMLID_2526_"
           d="m 161,195 c -1,0 -1.9,-0.3 -2.8,-0.8 -0.8,-0.5 -20.2,-13.7 -20.2,-38.7 0,-2.1 1.4,-4.1 3.4,-4.7 9.8,-3.3 24.6,-6.1 43.1,-8.1 1.5,-0.2 3.1,0.4 4.1,1.5 1.1,1.1 1.6,2.7 1.4,4.2 -0.7,4.6 -7.4,46.6 -29,46.6 z m -12.8,-35.9 c 1.4,14.2 10.7,22.9 14.3,25.8 8,-1.9 13.8,-19.1 16.4,-31.5 -12.6,1.5 -23,3.5 -30.7,5.7 z"
           fill="#4d2419" />
      </g>
      <g
         id="XMLID_1_">
        <path
           id="XMLID_2522_"
           d="m 351,195 c -21.6,0 -28.3,-42 -28.9,-46.8 -0.2,-1.5 0.3,-3.1 1.4,-4.2 1.1,-1.1 2.6,-1.7 4.1,-1.5 18.4,2 33.3,4.8 43.1,8.1 2,0.7 3.4,2.6 3.4,4.7 0,25 -19.4,38.2 -20.2,38.7 -1,0.7 -1.9,1 -2.9,1 z m -17.9,-41.7 c 2.7,12.5 8.5,29.7 16.4,31.5 3.5,-2.8 12.9,-11.6 14.3,-25.8 -7.7,-2.1 -18.1,-4.1 -30.7,-5.7 z"
           fill="#4d2419" />
      </g>
      <g
         id="XMLID_842_">
        <path
           id="XMLID_2521_"
           d="M 363.5,124.7 C 361.8,106.1 357.1,88 349.7,71 343,55.6 334.1,41.3 323.3,28.4 316.7,21.9 294.4,10 256,10 c -36,0 -58.4,9.5 -67.4,18.5 -12.9,13.5 -23,29.1 -29.9,46.4 -6.4,15.9 -10,32.6 -10.6,49.8 l -10,-0.3 c 0.6,-18.3 4.4,-36.2 11.3,-53.2 7.5,-18.5 18.2,-35.2 32,-49.6 0,0 0.1,-0.1 0.1,-0.1 5,-5 25.3,-21.5 74.5,-21.5 41.9,0 66.6,13.5 74.5,21.5 0.1,0.1 0.2,0.2 0.3,0.3 11.5,13.7 21,28.9 28.1,45.2 7.8,18 12.7,37.1 14.6,56.8 z"
           fill="#4d2419" />
      </g>
      <g
         id="XMLID_13_">
        <path
           id="XMLID_2520_"
           d="M 361.9,98.7 C 332.6,91.8 295,88 256,88 c -31.4,0 -61.8,2.4 -87.9,7 l -1.7,-9.8 C 193,80.5 224,78 256,78 c 39.8,0 78.2,3.9 108.2,11 z"
           fill="#4d2419" />
      </g>
      <g
         id="XMLID_433_">
        <path
           id="XMLID_2517_"
           d="M 362,512 H 150 c -2.8,0 -5,-2.2 -5,-5 v -4 c 0,-21.1 3.2,-42 9.5,-62.1 3.7,-11.9 6.3,-24.3 7.7,-36.7 l 5,-44.2 c 1.3,-11.4 11,-20.1 22.5,-20.1 11.7,0 21.6,9.1 22.6,20.8 l 6.3,76.2 h 74.8 l 6.3,-76.2 c 1,-11.7 10.9,-20.8 22.6,-20.8 11.5,0 21.2,8.6 22.5,20.1 l 5,44.2 c 1.4,12.4 4,24.7 7.7,36.7 6.3,20.1 9.5,41 9.5,62.1 v 4 c 0,2.8 -2.2,5 -5,5 z M 155,502 h 202 c -0.1,-19.7 -3.1,-39.3 -9,-58.1 -3.9,-12.5 -6.7,-25.5 -8.1,-38.5 l -5,-44.2 c -0.7,-6.4 -6.1,-11.2 -12.6,-11.2 -6.5,0 -12.1,5.1 -12.6,11.6 l -6.7,80.8 c -0.2,2.6 -2.4,4.6 -5,4.6 h -84 c -2.6,0 -4.8,-2 -5,-4.6 l -6.7,-80.8 c -0.5,-6.5 -6.1,-11.6 -12.6,-11.6 -6.4,0 -11.8,4.8 -12.6,11.2 l -5,44.2 c -1.5,13 -4.2,26 -8.1,38.5 -5.9,18.8 -8.9,38.4 -9,58.1 z"
           fill="#4d2419" />
      </g>
      <g
         id="XMLID_16_">
        <path
           id="XMLID_2514_"
           d="m 256,404.5 c -28.1,0 -49.4,-18.6 -50.3,-19.4 l 6.6,-7.5 c 0.2,0.2 19.5,16.9 43.7,16.9 24.2,0 43.5,-16.7 43.7,-16.9 l 6.6,7.5 c -0.9,0.8 -22.2,19.4 -50.3,19.4 z"
           fill="#4d2419" />
      </g>
      <g
         id="XMLID_968_">
        <path
           id="XMLID_1349_"
           d="m 207.6,359.1 -4.2,-9.1 17.7,-8.2 v -22.2 h 10 V 345 c 0,1.9 -1.1,3.7 -2.9,4.5 z"
           fill="#4d2419" />
      </g>
      <g
         id="XMLID_967_">
        <path
           id="XMLID_1340_"
           d="m 304.4,359.1 -20.6,-9.6 c -1.8,-0.8 -2.9,-2.6 -2.9,-4.5 v -25.8 h 10 v 22.6 l 17.7,8.2 z"
           fill="#4d2419" />
      </g>
      <g
         id="XMLID_2143_">
        <path
           id="XMLID_972_"
           d="m 419,512 h -37 v -10 h 32 v -56.8 c 0,-21.3 -12.5,-40.9 -31.8,-49.8 l -43.4,-20.2 4.2,-9.1 43.4,20.2 c 22.8,10.6 37.5,33.8 37.5,58.9 V 507 c 0.1,2.8 -2.1,5 -4.9,5 z"
           fill="#4d2419" />
      </g>
      <g
         id="XMLID_2140_">
        <path
           id="XMLID_930_"
           d="M 362,512 H 93 c -2.8,0 -5,-2.2 -5,-5 v -61.8 c 0,-25.2 14.7,-48.3 37.5,-58.9 l 43.4,-20.2 4.2,9.1 -43.4,20.2 c -19.3,9 -31.8,28.6 -31.8,49.8 V 502 h 264 v 10 z"
           fill="#4d2419" />
      </g>
    </g>
  </g>
</svg>
