<?xml version="1.0" encoding="UTF-8" standalone="no"?>
<svg
   xmlns:dc="http://purl.org/dc/elements/1.1/"
   xmlns:cc="http://creativecommons.org/ns#"
   xmlns:rdf="http://www.w3.org/1999/02/22-rdf-syntax-ns#"
   xmlns:svg="http://www.w3.org/2000/svg"
   xmlns="http://www.w3.org/2000/svg"
   xmlns:sodipodi="http://sodipodi.sourceforge.net/DTD/sodipodi-0.dtd"
   xmlns:inkscape="http://www.inkscape.org/namespaces/inkscape"
   width="250"
   height="84"
   fill="none"
   version="1.1"
   id="svg152"
   sodipodi:docname="pan-bg-mobile.svg"
   inkscape:version="1.0.2-2 (e86c870879, 2021-01-15)">
  <metadata
     id="metadata156">
    <rdf:RDF>
      <cc:Work
         rdf:about="">
        <dc:format>image/svg+xml</dc:format>
        <dc:type
           rdf:resource="http://purl.org/dc/dcmitype/StillImage" />
        <dc:title></dc:title>
      </cc:Work>
    </rdf:RDF>
  </metadata>
  <sodipodi:namedview
     pagecolor="#ffffff"
     bordercolor="#666666"
     borderopacity="1"
     objecttolerance="10"
     gridtolerance="10"
     guidetolerance="10"
     inkscape:pageopacity="0"
     inkscape:pageshadow="2"
     inkscape:window-width="958"
     inkscape:window-height="1008"
     id="namedview154"
     showgrid="false"
     inkscape:zoom="0.97035431"
     inkscape:cx="71.788682"
     inkscape:cy="-49.267804"
     inkscape:window-x="2873"
     inkscape:window-y="1080"
     inkscape:window-maximized="0"
     inkscape:current-layer="svg152" />
  <style
     id="style2">.B{fill:#fff}.C{fill:#000}.D{fill-rule:evenodd}.E{fill:#612f01}.F{fill:#fedc90}.G{fill:#d1884f}</style>
  <defs
     id="defs150">
    <linearGradient
       id="J"
       x1="26.346"
       x2="26.346"
       y1="0"
       y2="24.104"
       gradientUnits="userSpaceOnUse">
      <stop
         stop-color="#404042"
         id="stop129" />
      <stop
         offset="1"
         stop-color="#48484b"
         id="stop131" />
    </linearGradient>
    <linearGradient
       id="K"
       x1="24.763"
       x2="20.851"
       y1="49.115"
       y2="55.879"
       gradientUnits="userSpaceOnUse">
      <stop
         stop-color="#404042"
         id="stop134" />
      <stop
         offset="1"
         stop-color="#48484b"
         id="stop136" />
    </linearGradient>
    <linearGradient
       id="L"
       x1="37.494"
       x2="34.465"
       y1="40.594"
       y2="78.417"
       gradientUnits="userSpaceOnUse">
      <stop
         stop-color="#404042"
         id="stop139" />
      <stop
         offset="1"
         stop-color="#48484b"
         id="stop141" />
    </linearGradient>
    <clipPath
       id="M">
      <path
         d="M0 0h125v82.707H0z"
         class="B"
         transform="translate(125 .331)"
         id="path144" />
    </clipPath>
    <clipPath
       id="N">
      <path
         d="M0 0h125v82.707H0z"
         class="B"
         transform="translate(0 .331)"
         id="path147" />
    </clipPath>
  </defs>
  <g
     id="g373"
     transform="matrix(1.9806429,0,0,2.9846498,-127.79003,91.021011)">
    <path
       d="m 95.027999,-20.778025 h -1.00892 a 1.5133955,1.1527314 0 0 1 -1.51341,-1.152731 v -4.034559 a 2.2700933,1.7290971 0 0 0 -2.27009,-1.729098 2.2700933,1.7290971 0 0 0 -2.27009,1.729098 V -22.315 a 5.0446517,3.8424379 0 0 0 5.04466,3.842438 h 2.01785"
       fill="#447b3b"
       id="path306"
       style="stroke-width:0.44027" />
    <path
       d="m 95.027999,-18.856806 v -1.921219 h -1.00892 a 1.5133955,1.1527314 0 0 1 -1.51341,-1.152731 v -4.034559 a 2.2655531,1.7256389 0 0 0 -2.17878,-1.722181 2.2569771,1.7191067 0 0 0 -0.84801,1.337937 v 3.650316 a 5.0446517,3.8424379 0 0 0 5.04466,3.842437 z"
       fill="#508c45"
       id="path308"
       style="stroke-width:0.44027" />
    <path
       d="m 94.523539,-13.861636 v -9.990339 a 3.5312562,2.6897065 0 0 1 3.53125,-2.689706 3.5312562,2.6897065 0 0 1 3.531261,2.689706 v 9.990339"
       fill="#305b26"
       id="path310"
       style="stroke-width:0.44027" />
    <g
       fill="#5c9d52"
       id="g320"
       transform="matrix(0.50446517,0,0,0.38424379,81.911899,-28.4629)">
      <path
         d="m 32,32 h 18 v 2 H 32 Z"
         id="path312" />
      <path
         d="m 32,27 h 18 v 2 H 32 Z"
         id="path314" />
      <path
         d="m 32,22 h 18 v 2 H 32 Z"
         id="path316" />
      <path
         d="m 32,17 h 18 v 2 H 32 Z"
         id="path318" />
    </g>
    <path
       d="m 99.568189,-13.861636 v -7.684876 a 3.026791,2.3054628 0 0 1 3.026791,-2.305463 3.026791,2.3054628 0 0 1 3.02679,2.305463 v 7.684876"
       fill="#447b3b"
       id="path322"
       style="stroke-width:0.44027" />
    <path
       d="M 107.63963,-13.861636 H 91.496739 a 1.5133955,1.1527314 0 0 0 -1.51339,1.152731 v 0.768487 a 1.5133955,1.1527314 0 0 0 1.51339,1.152732 h 16.142891 a 1.5133955,1.1527314 0 0 0 1.5134,-1.152732 v -0.768487 a 1.5133955,1.1527314 0 0 0 -1.5134,-1.152731 z"
       fill="#4a352d"
       id="path324"
       style="stroke-width:0.44027" />
    <path
       d="m 91.496739,-10.787686 0.69617,4.2416675 a 2.8567863,2.1759726 0 0 0 2.83509,1.9062335 h 9.080381 a 2.8572907,2.1763568 0 0 0 2.83509,-1.9062335 l 0.69616,-4.2416675"
       fill="#574138"
       id="path326"
       style="stroke-width:0.44027" />
    <path
       d="m 101.58605,-5.7925164 h 5.04465 a 2.845688,2.1675192 0 0 0 0.31378,-0.7535021 l 0.69515,-4.2416675 H 93.661409 a 8.0714427,6.1479006 0 0 0 7.924641,4.9951696 z"
       fill="#684d42"
       id="path328"
       style="stroke-width:0.44027" />
    <path
       d="m 95.532469,-12.324661 h 13.620561 v -0.384244 a 1.5133955,1.1527314 0 0 0 -1.5134,-1.152731 H 93.514609 a 2.0178606,1.5369751 0 0 0 2.01786,1.536975 z"
       fill="#574138"
       id="path330"
       style="stroke-width:0.44027" />
    <path
       d="m 103.12467,-23.81355 a 2.8623353,2.1801992 0 0 0 -1.05938,0 34.339953,26.156243 0 0 0 -0.98371,6.204 v 3.747914 h 1.00893 v -3.747914 a 33.284612,25.352405 0 0 1 0.50447,-4.396133 33.284612,25.352405 0 0 1 0.50447,4.396133 v 3.747914 h 1.00893 v -3.747914 a 34.339953,26.156243 0 0 0 -0.98371,-6.204 z"
       fill="#5c9d52"
       id="path332"
       style="stroke-width:0.44027" />
    <ellipse
       cx="104.10838"
       cy="-24.236216"
       fill="#a82e25"
       id="circle334"
       rx="1.5133955"
       ry="1.1527313"
       style="stroke-width:0.44027" />
    <path
       d="m 104.10838,-25.38895 a 1.4957392,1.1392829 0 0 0 -0.78395,0.171373 1.4957392,1.1392829 0 0 0 -0.22498,0.597115 1.5133955,1.1527314 0 0 0 1.51339,1.152731 1.4957392,1.1392829 0 0 0 0.78394,-0.171373 1.4957392,1.1392829 0 0 0 0.22499,-0.597114 1.5133955,1.1527314 0 0 0 -1.51339,-1.152732 z"
       fill="#c33e37"
       id="path336"
       style="stroke-width:0.44027" />
    <path
       d="m 98.541599,-26.440625 -0.48681,-0.101056 a 3.554966,2.707766 0 0 0 -0.5317,0.03381 43.446558,33.092612 0 0 0 -1.48616,8.573247 v 4.072985 h 1.00893 v -4.072985 a 42.462851,32.343337 0 0 1 1.49574,-8.506004 z"
       fill="#447b3b"
       id="path338"
       style="stroke-width:0.44027" />
    <ellipse
       cx="99.568184"
       cy="-26.541681"
       fill="#a82e25"
       id="circle340"
       rx="1.5133955"
       ry="1.1527313"
       style="stroke-width:0.44027" />
    <path
       d="m 99.568189,-27.694413 a 1.4957392,1.1392829 0 0 0 -0.78394,0.171373 1.4957392,1.1392829 0 0 0 -0.22499,0.597115 1.5133955,1.1527314 0 0 0 1.513391,1.152732 1.4957392,1.1392829 0 0 0 0.78394,-0.171373 1.4957392,1.1392829 0 0 0 0.22499,-0.597115 1.5133955,1.1527314 0 0 0 -1.513391,-1.152732 z"
       fill="#c33e37"
       id="path342"
       style="stroke-width:0.44027" />
  </g>
  <g
     id="g469"
     transform="matrix(1.0560465,0,0,0.87194692,126.45726,14.865319)">
    <path
       d="m 42,48.692 2.321,-1.9 A 23.664,23.664 0 0 0 53,28.478 26.48,26.48 0 0 0 41.706,6.786 26.479,26.479 0 0 0 22.5,2.308 L 20,2.692 18.5,5.05 a 35.174,35.174 0 0 0 -5.5,18.883 24.754,24.754 0 0 0 7.866,18.1 24.757,24.757 0 0 0 16.893,6.659 z"
       fill="#305b26"
       id="path423" />
    <path
       d="M 53,28.478 A 26.48,26.48 0 0 0 41.706,6.786 26.479,26.479 0 0 0 22.5,2.308 L 20,2.692 A 60.037,60.037 0 0 1 35.274,28.65 l 5.8,17.3 c 0.3,0.9 0.657,1.786 1.034,2.656 l 2.216,-1.813 A 23.664,23.664 0 0 0 53,28.478 Z"
       fill="#447b3b"
       id="path425" />
    <path
       d="m 41,45.692 -6.8,-1.7 A 17.281,17.281 0 0 1 22,32.692 l 3,-1 -1.05,-1.05 A 16.9,16.9 0 0 1 19,18.692 l 3,2 A 67,67 0 0 1 20,4.446 V 2.692 a 36.641,36.641 0 0 1 19.727,12.659 l 0.273,0.341 1,-4 a 13.658,13.658 0 0 1 4,9.657 v 9.343 l 3,-3 a 26.23,26.23 0 0 1 -5.525,16.1 z"
       fill="#dfe0df"
       id="path427" />
    <g
       fill="#447b3b"
       id="g435">
      <path
         d="m 39,55 -1.45,1.813 A 13.834,13.834 0 0 1 31.128,61.291 13.818,13.818 0 0 1 26.757,62 H 26.4 A 15.4,15.4 0 0 1 14.372,56.219 15.4,15.4 0 0 1 11,46.6 V 42 l 7.6,-2.28 A 17.04,17.04 0 0 1 23.5,39 16.56,16.56 0 0 1 37.8,47.2 7.17,7.17 0 0 1 39,51.169 Z"
         id="path429" />
      <path
         d="M 39,53.962 V 51.169 A 7.17,7.17 0 0 0 37.8,47.2 16.56,16.56 0 0 0 23.5,39 17.04,17.04 0 0 0 18.6,39.72 l -6.417,1.925 a 61.218,61.218 0 0 0 21.423,10.819 z"
         id="path431" />
      <path
         d="M 11,43.255 V 46.6 A 15.4,15.4 0 0 0 26.4,62 h 0.354 A 13.82,13.82 0 0 0 37.55,56.813 l 0.771,-0.964 -5.25,-1.458 A 63.189,63.189 0 0 1 11,43.255 Z"
         id="path433" />
    </g>
    <path
       d="M 37.8,47.2 A 16.56,16.56 0 0 0 23.5,39 17.04,17.04 0 0 0 18.6,39.72 L 11,42 A 62.543,62.543 0 0 0 33.339,53.427 L 39,55 V 51.169 A 7.17,7.17 0 0 0 37.8,47.2 Z"
       fill="#5c9d52"
       id="path437" />
    <path
       d="m 39,55 -7.223,3.21 A 9.163,9.163 0 0 1 28.055,59 9.163,9.163 0 0 1 22.555,57.167 L 21,56 24,54 A 12.487,12.487 0 0 1 12.154,45.462 L 11,42 h 6.044 a 10.929,10.929 0 0 1 7,2.532 L 27,47 26,44 a 10.925,10.925 0 0 1 9.221,5.061 z"
       fill="#dfe0df"
       id="path439" />
    <path
       d="m 26,44 1,3 -2.961,-2.468 A 10.929,10.929 0 0 0 17.039,42 H 11 A 62.543,62.543 0 0 0 33.339,53.427 L 39,55 35.221,49.061 A 10.925,10.925 0 0 0 26,44 Z"
       fill="#edeeed"
       id="path441" />
    <path
       d="M 40.135,54.175 39.216,54.022 39,53.962 33.606,52.462 A 61.218,61.218 0 0 1 12.184,41.645 L 11,42 v 1.255 a 63.189,63.189 0 0 0 22.071,11.136 l 5.25,1.458 0.411,0.114 a 1.008,1.008 0 0 0 0.1,0.023 l 0.971,0.162 A 6.423,6.423 0 0 1 45.02,61.2 l 1.96,-0.392 a 8.433,8.433 0 0 0 -6.845,-6.633 z"
       fill="#447b3b"
       id="path443" />
    <path
       d="M 42.475,43.8 A 26.23,26.23 0 0 0 48,27.692 l -3,3 v -9.343 a 13.658,13.658 0 0 0 -4,-9.657 l -1,4 -0.273,-0.341 A 36.641,36.641 0 0 0 20,2.692 60.037,60.037 0 0 1 35.274,28.65 l 5.709,17.038 H 41 Z"
       fill="#edeeed"
       id="path445" />
    <path
       d="M 42.905,47.951 C 42.584,47.19 42.283,46.419 42.019,45.632 L 36.235,28.375 A 61.179,61.179 0 0 0 21.211,2.506 L 20,2.692 19.448,3.559 a 59.233,59.233 0 0 1 14.877,25.409 l 5.8,17.3 c 0.275,0.822 0.588,1.628 0.924,2.424 a 34.387,34.387 0 0 0 9.3,12.759 l 1.3,-1.518 A 32.4,32.4 0 0 1 42.905,47.951 Z"
       fill="#305b26"
       id="path447" />
  </g>
</svg>
