<?xml version="1.0" encoding="UTF-8" standalone="no"?>
<svg
   xmlns:dc="http://purl.org/dc/elements/1.1/"
   xmlns:cc="http://creativecommons.org/ns#"
   xmlns:rdf="http://www.w3.org/1999/02/22-rdf-syntax-ns#"
   xmlns:svg="http://www.w3.org/2000/svg"
   xmlns="http://www.w3.org/2000/svg"
   xmlns:sodipodi="http://sodipodi.sourceforge.net/DTD/sodipodi-0.dtd"
   xmlns:inkscape="http://www.inkscape.org/namespaces/inkscape"
   width="64"
   height="64"
   fill="none"
   version="1.1"
   id="svg55"
   sodipodi:docname="plant.svg"
   inkscape:version="1.0.2-2 (e86c870879, 2021-01-15)">
  <metadata
     id="metadata59">
    <rdf:RDF>
      <cc:Work
         rdf:about="">
        <dc:format>image/svg+xml</dc:format>
        <dc:type
           rdf:resource="http://purl.org/dc/dcmitype/StillImage" />
        <dc:title></dc:title>
      </cc:Work>
    </rdf:RDF>
  </metadata>
  <sodipodi:namedview
     pagecolor="#ffffff"
     bordercolor="#666666"
     borderopacity="1"
     objecttolerance="10"
     gridtolerance="10"
     guidetolerance="10"
     inkscape:pageopacity="0"
     inkscape:pageshadow="2"
     inkscape:window-width="958"
     inkscape:window-height="1008"
     id="namedview57"
     showgrid="false"
     inkscape:zoom="7.0308339"
     inkscape:cx="24.61134"
     inkscape:cy="26.555401"
     inkscape:window-x="2873"
     inkscape:window-y="1080"
     inkscape:window-maximized="0"
     inkscape:current-layer="svg55" />
  <style
     id="style2">.B{fill-rule:evenodd}.C{fill:#633001}.D{fill:#fedc90}.E{fill:#d1884f}</style>
  <defs
     id="defs53">
    <linearGradient
       id="A"
       x1="25.691"
       x2="25.691"
       y1="9.655"
       y2="40.261"
       gradientUnits="userSpaceOnUse">
      <stop
         stop-color="#9f4a08"
         id="stop46" />
      <stop
         offset=".37"
         stop-color="#7d3900"
         id="stop48" />
      <stop
         offset="1"
         stop-color="#8d4104"
         id="stop50" />
    </linearGradient>
  </defs>
  <g
     id="Layer_9"
     data-name="Layer 9"
     transform="matrix(1.2171782,0,0,0.99126277,-6.8305243,0.12787994)">
    <path
       d="m 31,40 h -2 a 6.984,6.984 0 0 0 -5.044,-6.687 l -1.23,-0.352 0.548,-1.922 1.231,0.351 A 8.991,8.991 0 0 1 31,40 Z"
       fill="#305b26"
       id="path75" />
    <path
       d="m 23,32 v 2.382 A 2.618,2.618 0 0 1 21.553,36.724 2.631,2.631 0 0 1 20.382,37 13.671,13.671 0 0 1 12.434,34.453 8.2,8.2 0 0 1 9,27.78 2.88,2.88 0 0 0 7.408,25.2 L 7,25 10.483,23.258 a 12.6,12.6 0 0 1 5.33,-1.324 12.578,12.578 0 0 1 5.118,0.96 l 2.4,1 a 4.322,4.322 0 0 1 2.669,3.991 4.322,4.322 0 0 1 -2.956,4.1 z"
       fill="#447b3b"
       id="path77" />
    <path
       d="m 23.336,23.893 -2.4,-1 A 12.569,12.569 0 0 0 10.488,23.257 L 7,25 12.4,27.312 A 8.5,8.5 0 0 0 15.746,28 8.507,8.507 0 0 1 22.552,31.4 L 23,32 23.044,31.985 A 4.321,4.321 0 0 0 26,27.885 4.322,4.322 0 0 0 23.336,23.893 Z"
       fill="#508c45"
       id="path79" />
    <path
       d="m 36.929,40.371 -1.858,-0.742 0.425,-1.061 a 21.542,21.542 0 0 1 4.746,-7.224 l 0.405,-0.541 a 9.583,9.583 0 0 1 1.483,-1.568 l 1.287,1.53 A 7.5,7.5 0 0 0 42.248,32 L 41.8,32.6 a 0.951,0.951 0 0 1 -0.093,0.107 19.568,19.568 0 0 0 -4.354,6.6 z"
       fill="#305b26"
       id="path81" />
    <path
       d="m 41,32 v 2.382 A 2.618,2.618 0 0 0 42.447,36.724 2.631,2.631 0 0 0 43.618,37 13.671,13.671 0 0 0 51.566,34.453 8.2,8.2 0 0 0 55,27.78 2.88,2.88 0 0 1 56.592,25.2 L 57,25 53.517,23.258 a 12.6,12.6 0 0 0 -5.33,-1.324 12.578,12.578 0 0 0 -5.118,0.96 l -2.405,1 A 4.322,4.322 0 0 0 38,27.885 a 4.322,4.322 0 0 0 2.956,4.1 z"
       fill="#447b3b"
       id="path83" />
    <path
       d="M 51.605,27.312 A 8.5,8.5 0 0 1 48.254,28 8.507,8.507 0 0 0 41.448,31.4 L 41,32 v 2.382 A 2.617,2.617 0 0 0 43.618,37 13.678,13.678 0 0 0 51.566,34.453 8.2,8.2 0 0 0 55,27.78 2.88,2.88 0 0 1 56.592,25.2 L 57,25 Z"
       fill="#508c45"
       id="path85" />
    <path
       d="m 37,45 h -2 v -8.229 a 54.674,54.674 0 0 0 -3.929,-20.4 l 1.858,-0.744 A 56.694,56.694 0 0 1 37,36.771 Z"
       fill="#305b26"
       id="path87" />
    <path
       d="m 28,29 0.43,-0.645 a 7.7,7.7 0 0 1 4.293,-3.133 7.7,7.7 0 0 0 5.356,-5.538 l 2.328,-9.31 A 8.4,8.4 0 0 0 40.226,5.679 5.38,5.38 0 0 0 35.122,2 5.381,5.381 0 0 0 30.451,4.711 L 28,9 25.549,4.711 A 5.381,5.381 0 0 0 20.878,2 a 5.38,5.38 0 0 0 -5.1,3.679 8.4,8.4 0 0 0 -0.181,4.7 l 2.328,9.31 a 7.7,7.7 0 0 0 5.356,5.538 7.7,7.7 0 0 1 4.293,3.133 z"
       fill="#c33e37"
       id="path89" />
    <g
       fill="#e15240"
       id="g97">
      <path
         d="m 38.24,19.04 -0.16,0.64 a 7.71,7.71 0 0 1 -5.36,5.54 7.7,7.7 0 0 0 -4.29,3.13 L 28,29 27.57,28.35 A 7.7,7.7 0 0 0 23.28,25.22 7.7,7.7 0 0 1 17.92,19.68 L 17.76,19.04 A 49.665,49.665 0 0 1 26,20 a 2.006,2.006 0 0 0 2,2 2.015,2.015 0 0 0 2,-2 49.665,49.665 0 0 1 8.24,-0.96 z"
         id="path91" />
      <path
         d="m 26,14 v 3 l -0.31,-0.25 a 17.067,17.067 0 0 0 -9.43,-3.7 L 15.59,10.37 A 8.763,8.763 0 0 1 15.34,8.33 8.549,8.549 0 0 1 15.77,5.68 5.853,5.853 0 0 1 16.18,4.76 23.04,23.04 0 0 1 26,14 Z"
         id="path93" />
      <path
         d="m 40.41,10.37 -0.67,2.68 a 17.067,17.067 0 0 0 -9.43,3.7 L 30,17 v -3 a 23.04,23.04 0 0 1 9.82,-9.24 5.853,5.853 0 0 1 0.41,0.92 8.5,8.5 0 0 1 0.18,4.69 z"
         id="path95" />
    </g>
    <path
       d="M 29,27.615 V 20 h -2 v 7.615 a 7.651,7.651 0 0 1 0.57,0.74 L 28,29 28.43,28.355 A 7.651,7.651 0 0 1 29,27.615 Z"
       fill="#f9d468"
       id="path99" />
    <rect
       fill="#f7c242"
       height="10"
       rx="2"
       width="4"
       x="26"
       y="12"
       id="rect101" />
    <path
       d="m 44,46 -2.001,16 h -18 L 22,46"
       fill="#684d42"
       id="path103" />
    <path
       d="m 24.375,46 a 18.259,18.259 0 0 0 17.748,14 h 0.126 L 44,46 Z"
       fill="#745749"
       id="path105" />
    <path
       d="m 20,40 h 26 v 6 H 20 Z"
       fill="#574138"
       id="path107" />
    <path
       d="m 23.499,58 0.5,4 h 18 l 0.5,-4 z"
       fill="#574138"
       id="path109" />
    <path
       d="M 27,43 H 46 V 40 H 24 a 3,3 0 0 0 3,3 z"
       fill="#684d42"
       id="path111" />
  </g>
</svg>
